<?xml version="1.0" encoding="utf-8"?>
<!-- Generator: Adobe Illustrator 25.0.0, SVG Export Plug-In . SVG Version: 6.00 Build 0)  -->
<svg version="1.1" id="Capa_1" xmlns="http://www.w3.org/2000/svg" xmlns:xlink="http://www.w3.org/1999/xlink" x="0px" y="0px"
	 viewBox="0 0 453.5 82.2" style="enable-background:new 0 0 453.5 82.2;" xml:space="preserve">
<style type="text/css">
	.st0{fill:#FFFFFF;}
</style>
<g>
	<path class="st0" d="M348,33.9c0.6,0.4,1.7,0.7,2.5,0.7c1.9,0,3-1.2,3-3c0-1.6-1-2.6-2.4-3.7c-1.4-1-3.4-2.6-3.4-4.9
		c0-2.7,1.9-4.7,4.7-4.7c1.1,0,2.1,0.4,2.5,0.7l-0.5,1.7c-0.5-0.3-1.2-0.6-2.1-0.6c-1.8,0-2.6,1.3-2.6,2.5c0,1.8,0.9,2.5,2.6,3.7
		c2.1,1.5,3.1,3.1,3.1,5.1c0,3.1-2.1,5-5,5c-1.2,0-2.5-0.4-3-0.8L348,33.9z"/>
	<path class="st0" d="M359.9,30.1c0,3.9,1.6,4.8,3,4.8c0.9,0,1.6-0.2,2.1-0.5l0.4,1.5c-0.7,0.4-1.8,0.6-2.8,0.6
		c-3.1,0-4.6-2.5-4.6-6.4c0-4.1,1.8-6.7,4.3-6.7c2.6,0,3.6,2.8,3.6,5.6c0,0.5,0,0.8,0,1.2L359.9,30.1L359.9,30.1z M363.9,28.6
		c0-2.5-0.9-3.7-1.9-3.7c-1.3,0-2,1.9-2.1,3.7H363.9z"/>
	<path class="st0" d="M376.3,18v15.2c0,0.9,0.1,2.3,0.1,3.1h-1.7l-0.1-1.6h-0.1c-0.4,0.9-1.3,1.8-2.7,1.8c-2.1,0-3.7-2.3-3.7-6.5
		c0-4.5,1.9-6.6,3.8-6.6c1,0,1.9,0.4,2.4,1.5h0V18L376.3,18L376.3,18z M374.3,28.4c0-0.3,0-0.6,0-0.8c-0.1-1.4-0.9-2.5-1.9-2.5
		c-1.7,0-2.3,2.4-2.3,4.9c0,2.7,0.7,4.9,2.2,4.9c0.6,0,1.5-0.3,2-2.2c0-0.2,0.1-0.5,0.1-0.8L374.3,28.4L374.3,28.4z"/>
	<path class="st0" d="M381.1,30.1c0,3.9,1.6,4.8,3,4.8c0.9,0,1.6-0.2,2.1-0.5l0.4,1.5c-0.7,0.4-1.8,0.6-2.8,0.6
		c-3.1,0-4.6-2.5-4.6-6.4c0-4.1,1.8-6.7,4.3-6.7c2.6,0,3.6,2.8,3.6,5.6c0,0.5,0,0.8,0,1.2L381.1,30.1L381.1,30.1z M385.1,28.6
		c0-2.5-0.9-3.7-1.9-3.7c-1.4,0-2,1.9-2.1,3.7H385.1z"/>
	<path class="st0" d="M351.3,63.9l-4.1-17.8h2.2l1.7,8.3c0.4,2,1,4.6,1.3,6.8h0.1c0.3-2.3,0.8-4.8,1.2-6.9l1.7-8.3h2.2l-4.1,17.8
		L351.3,63.9L351.3,63.9z"/>
	<path class="st0" d="M361.4,47.8c0,0.8-0.5,1.3-1.2,1.3c-0.7,0-1.2-0.5-1.2-1.3s0.5-1.3,1.2-1.3C361,46.5,361.4,47,361.4,47.8
		 M359.2,51.1h2v12.8h-2V51.1z"/>
	<path class="st0" d="M364.6,54.4c0-1.5-0.1-2.3-0.1-3.3h1.8l0.1,1.6h0c0.6-1,1.6-1.7,2.9-1.7c1.8,0,3.1,1.3,3.1,4.4v8.6h-2v-8.2
		c0-1.5-0.3-3-1.8-3c-0.9,0-1.7,0.7-1.9,2.1c-0.1,0.3-0.1,0.7-0.1,1.2v8h-2V54.4z M365.7,49.1c0-1.4,0.5-2.5,1.6-2.5
		c0.5,0,0.9,0.2,1.3,0.5c0.4,0.2,0.7,0.5,1,0.5c0.4,0,0.6-0.2,0.7-1h1.1c0,1.5-0.5,2.4-1.7,2.4c-0.5,0-0.9-0.2-1.3-0.5
		c-0.4-0.2-0.7-0.5-1-0.5c-0.4,0-0.6,0.4-0.6,1L365.7,49.1L365.7,49.1z"/>
	<path class="st0" d="M382.6,61c0,1,0,2.1,0.1,2.9h-1.8l-0.1-1.3h-0.1c-0.5,1-1.5,1.6-2.6,1.6c-1.7,0-3-1.4-3-3.6
		c0-3.2,2.6-4.6,5.4-4.6v-0.4c0-1.7-0.5-2.9-2-2.9c-0.8,0-1.5,0.2-2.1,0.7l-0.5-1.4c0.5-0.4,1.7-0.8,3-0.8c2.6,0,3.6,1.7,3.6,4.5
		L382.6,61L382.6,61z M380.6,57.3c-1.1,0-3.5,0.2-3.5,3c0,1.7,0.8,2.3,1.6,2.3c0.9,0,1.6-0.6,1.9-1.9c0-0.2,0.1-0.5,0.1-0.7
		L380.6,57.3L380.6,57.3z"/>
	<path class="st0" d="M398.3,45.6v15.2c0,0.9,0.1,2.3,0.1,3.1h-1.8l-0.1-1.6h-0.1c-0.4,0.9-1.3,1.8-2.7,1.8c-2.1,0-3.7-2.3-3.7-6.5
		c0-4.5,1.9-6.6,3.8-6.6c1,0,1.9,0.4,2.4,1.5h0v-6.8H398.3z M396.3,56c0-0.3,0-0.6,0-0.8c-0.1-1.4-0.9-2.5-1.9-2.5
		c-1.7,0-2.3,2.4-2.3,4.9c0,2.7,0.7,4.9,2.2,4.9c0.6,0,1.5-0.3,2-2.2c0-0.2,0.1-0.5,0.1-0.8L396.3,56L396.3,56z"/>
	<path class="st0" d="M403.1,57.7c0,3.9,1.6,4.8,3,4.8c0.9,0,1.6-0.2,2.1-0.5l0.4,1.5c-0.7,0.4-1.8,0.6-2.8,0.6
		c-3.1,0-4.6-2.5-4.6-6.4c0-4.1,1.8-6.7,4.3-6.7c2.6,0,3.6,2.8,3.6,5.6c0,0.5,0,0.8,0,1.2L403.1,57.7L403.1,57.7z M407.2,56.2
		c0-2.5-0.9-3.7-1.9-3.7c-1.4,0-2,1.9-2.1,3.7H407.2z"/>
	<rect x="411.8" y="45.6" class="st0" width="2" height="18.3"/>
	<path class="st0" d="M433,56.2c-0.1-2.4-0.3-5-0.2-7h-0.1c-0.4,2-0.9,4.1-1.4,6.2l-2.2,8.3h-1.3l-2.1-8c-0.6-2.3-1.1-4.5-1.5-6.5
		h-0.1c0,2.1-0.1,4.6-0.2,7.1l-0.3,7.5h-1.8l1.1-17.8h2.2l2.1,8.1c0.6,2.4,1.1,4.1,1.4,6.1h0.1c0.3-2,0.7-3.7,1.3-6.1l2-8.1h2.3
		l1,17.8h-1.9L433,56.2z"/>
	<path class="st0" d="M445.2,61c0,1,0,2.1,0.1,2.9h-1.8l-0.1-1.3h-0.1c-0.5,1-1.5,1.6-2.6,1.6c-1.7,0-3-1.4-3-3.6
		c0-3.2,2.6-4.6,5.4-4.6v-0.4c0-1.7-0.5-2.9-2-2.9c-0.8,0-1.5,0.2-2.1,0.7l-0.5-1.4c0.5-0.4,1.7-0.8,3-0.8c2.6,0,3.6,1.7,3.6,4.5
		L445.2,61L445.2,61z M443.2,57.3c-1.1,0-3.5,0.2-3.5,3c0,1.7,0.8,2.3,1.6,2.3c0.9,0,1.6-0.6,1.9-1.9c0-0.2,0.1-0.5,0.1-0.7
		L443.2,57.3L443.2,57.3z"/>
	<path class="st0" d="M448.5,54.4c0-1.1-0.1-2.4-0.1-3.3h1.8l0.1,2h0c0.4-1.2,1.5-2.2,2.7-2.2c0.2,0,0.3,0,0.4,0V53h-0.4
		c-1.3,0-2.2,1.2-2.5,2.6c0,0.3-0.1,0.7-0.1,1.2v7.1h-2L448.5,54.4L448.5,54.4z"/>
	<rect x="332.3" y="0.1" class="st0" width="1.2" height="82"/>
	<path class="st0" d="M0,16.4c4.3-0.8,10-1.2,15.9-1.2c10,0,16.5,1.6,21.5,5.4c5.4,4,8.8,10.5,8.8,19.8c0,10-3.6,16.9-8.6,21.1
		c-5.5,4.6-13.9,6.7-24.2,6.7C7.3,68.4,2.9,68,0,67.6C0,67.6,0,16.4,0,16.4z M11.8,59c1,0.2,2.7,0.2,4.1,0.2
		c10.8,0.1,17.8-5.8,17.8-18.3c0-11.2-6.4-16.6-16.6-16.6c-2.6,0-4.3,0.2-5.3,0.5V59z"/>
	<path class="st0" d="M86.3,55.7c0,5,0.2,9,0.3,12.2H76.4l-0.5-5.4h-0.2c-1.5,2.3-5,6.2-11.9,6.2c-7.8,0-13.3-4.8-13.3-16.5V30h11.8
		v20.4c0,5.5,1.8,8.8,6,8.8c3.2,0,5.2-2.2,5.9-4.1c0.3-0.7,0.5-1.5,0.5-2.6V30h11.8L86.3,55.7L86.3,55.7z"/>
	<path class="st0" d="M110.3,68.7c-11.1,0-19.6-7.3-19.6-19.5s8.1-20.1,20.3-20.1c11.6,0,19.3,8,19.3,19.5
		C130.2,62.4,120.4,68.7,110.3,68.7L110.3,68.7z M110.5,60.3c4.6,0,7.5-4.6,7.5-11.4c0-5.6-2.2-11.3-7.5-11.3
		c-5.6,0-7.8,5.7-7.8,11.4C102.7,55.4,105.5,60.3,110.5,60.3L110.5,60.3L110.5,60.3z"/>
	<path class="st0" d="M164.9,67c-2.1,1-6,1.8-10.5,1.8c-12.2,0-20.1-7.5-20.1-19.5c0-11.1,7.6-20.1,21.7-20.1c3.1,0,6.5,0.5,9,1.5
		l-1.9,8.8c-1.4-0.6-3.5-1.2-6.6-1.2c-6.2,0-10.2,4.4-10.1,10.6c0,7,4.6,10.7,10.4,10.7c2.8,0,5-0.5,6.7-1.2L164.9,67z"/>
	<path class="st0" d="M187.4,19.8v27.9c0,8.3,3.2,12.6,8.8,12.6c5.7,0,8.9-4,8.9-12.6V19.8H216v27.1c0,14.9-7.5,22-20.2,22
		c-12.2,0-19.4-6.8-19.4-22.2v-27L187.4,19.8L187.4,19.8z"/>
	<path class="st0" d="M259.2,66.8c-2,1-6.5,2.1-12.4,2.1c-16.7,0-25.4-10.5-25.4-24.3c0-16.5,11.8-25.7,26.4-25.7
		c5.7,0,10,1.1,11.9,2.2l-2.2,8.7c-2.2-0.9-5.3-1.8-9.2-1.8c-8.7,0-15.4,5.2-15.4,16c0,9.7,5.7,15.8,15.5,15.8c3.3,0,7-0.7,9.1-1.6
		L259.2,66.8z"/>
	<path class="st0" d="M302.2,66.5C302.2,66.4,302.2,66.4,302.2,66.5L302.2,66.5c-0.1,0.1-0.1,0.3-0.1,0.3c-0.1,0.2-0.2,0.2-0.5,0.3
		c-0.4,0.1-0.5,0.1-0.6,0.1c-0.1,0-0.2-0.4-0.5-1l-0.3-0.8c-0.3-0.7-0.3-0.8-0.4-1c0-0.2,0-0.3,0.1-0.3c0,0,0.1-0.1,0.2-0.1
		c0.1,0,0.1,0,0.1-0.1c0,0,0,0-0.1,0c-0.2,0.1-0.5,0.2-0.6,0.3c-0.1,0-0.4,0.1-0.6,0.2c-0.1,0-0.1,0-0.1,0.1s0,0,0.1,0
		c0.1,0,0.1,0,0.2,0c0.2,0,0.2,0,0.3,0.2c0.1,0.1,0.1,0.3,0.4,1l0.3,0.8c0.2,0.4,0.3,0.8,0.4,1c0,0.1,0,0.2,0,0.3
		c0,0-0.1,0.1-0.2,0.1c-0.1,0-0.1,0-0.1,0.1c0,0,0,0,0.1,0c0.2-0.1,0.5-0.2,0.6-0.2c0.4-0.1,0.7-0.2,1.4-0.5
		c0.2-0.1,0.2-0.1,0.2-0.2C302.3,66.9,302.2,66.5,302.2,66.5 M299,68.2c-0.1,0-0.2,0-0.2,0c-0.1,0-0.2-0.1-0.3-0.2
		c-0.1-0.2-0.2-0.6-0.3-1l-0.2-0.8c-0.2-0.7-0.2-0.9-0.3-1c0-0.2,0-0.3,0.1-0.3c0,0,0.1,0,0.1,0l0.1-0.1c0,0,0,0-0.1,0
		c-0.2,0-0.5,0.1-0.6,0.2c-0.1,0-0.4,0.1-0.6,0.2c-0.1,0-0.1,0-0.1,0.1l0.1,0c0.1,0,0.1,0,0.2,0c0.1,0,0.2,0.1,0.2,0.2
		c0,0.1,0.1,0.3,0.3,1l0.2,0.8c0.1,0.5,0.2,0.8,0.3,1c0,0.1,0,0.2-0.1,0.3c0,0-0.1,0-0.2,0.1c-0.1,0-0.1,0-0.1,0.1c0,0,0,0,0.1,0
		c0.2-0.1,0.5-0.2,0.6-0.2C298.4,68.5,298.7,68.4,299,68.2c0.1,0.1,0.1,0.1,0.1,0C299.1,68.2,299.1,68.2,299,68.2 M296.3,69
		c-0.1,0-0.2,0-0.2,0c-0.1,0-0.2-0.1-0.2-0.2c0-0.2-0.1-0.6-0.1-1l-0.1-0.9c-0.1-0.7-0.1-0.9-0.1-1s0-0.3,0.1-0.3c0.1,0,0.1,0,0.1,0
		c0.1,0,0.1,0,0.1-0.1c0,0,0,0-0.1,0c-0.2,0-0.5,0.1-0.6,0.1c-0.1,0-0.4,0-0.7,0.1c-0.1,0-0.1,0-0.1,0c0,0,0,0,0.1,0
		c0.1,0,0.1,0,0.2,0c0.2,0,0.2,0.1,0.2,0.3c0,0.1,0,0.3,0.1,1l0,0.1l0,0l-1.9,0.2l0,0l0-0.1c-0.1-0.7-0.1-0.9-0.1-1
		c0-0.2,0-0.3,0.1-0.3c0,0,0.1,0,0.1,0c0.1,0,0.1,0,0.1-0.1c0,0,0,0-0.1,0c-0.2,0-0.5,0.1-0.6,0.1c-0.1,0-0.4,0-0.7,0.1
		c-0.1,0-0.1,0-0.1,0.1c0,0,0,0,0.1,0c0.1,0,0.1,0,0.2,0c0.2,0,0.2,0.1,0.2,0.3c0,0.1,0,0.3,0.1,1l0.1,0.9c0.1,0.5,0.1,0.8,0.1,1
		c0,0.1,0,0.3-0.1,0.3c0,0-0.1,0-0.2,0c-0.1,0-0.1,0-0.1,0c0,0,0,0,0.1,0c0.2,0,0.5-0.1,0.6-0.1c0.1,0,0.5,0,0.8-0.1
		c0.1,0,0.1,0,0.1-0.1c0,0,0,0-0.1,0c-0.1,0-0.2,0-0.2,0c-0.1,0-0.2-0.1-0.2-0.2c0-0.2-0.1-0.6-0.1-1l0-0.4l0,0l1.9-0.2l0,0l0,0.4
		c0,0.5,0.1,0.8,0.1,1c0,0.1,0,0.2-0.1,0.3c0,0-0.1,0-0.2,0c-0.1,0-0.1,0-0.1,0c0,0,0,0,0.1,0c0.2,0,0.5-0.1,0.6-0.1
		C295.7,69.1,296,69.1,296.3,69C296.3,69.1,296.4,69.1,296.3,69C296.4,69,296.4,69,296.3,69 M291,65.9c-0.1,0-0.3-0.1-0.5-0.1
		c-0.2,0-0.4-0.1-0.7-0.1c-0.7-0.1-1.2,0.1-1.6,0.4c-0.5,0.4-0.7,1-0.7,1.3c0,0.5,0,1,0.5,1.5c0.4,0.4,1,0.6,1.6,0.7
		c0.3,0,0.7,0,0.9,0c0.1,0,0.1,0,0.1-0.1c0.1-0.2,0.2-0.6,0.2-0.6l0-0.1c0,0,0,0-0.1,0.1c0,0.1-0.1,0.2-0.2,0.3
		c-0.2,0.2-0.5,0.2-0.9,0.2c-0.6-0.1-1.5-0.7-1.4-1.9c0-0.5,0.2-0.9,0.6-1.2c0.2-0.2,0.5-0.3,1-0.2c0.5,0,0.8,0.2,1,0.4
		c0.1,0.1,0.2,0.3,0.1,0.5c0,0.1,0,0.1,0,0.1c0,0,0.1,0,0.1-0.1c0-0.1,0-0.4,0.1-0.5C291.1,66,291.1,66,291,65.9
		C291.1,65.9,291.1,65.9,291,65.9 M285.5,64.9c0,0-0.1,0-0.2,0c-0.1,0-1-0.3-1.2-0.4c-0.1,0-0.4-0.1-0.7-0.2c-0.1,0-0.1,0-0.1,0
		c0,0,0,0,0.1,0.1c0.1,0,0.1,0.1,0.2,0.1c0.1,0.1,0.1,0.2,0.1,0.3c0,0.1-0.1,0.3-0.3,1l-0.3,0.8c-0.1,0.4-0.3,0.8-0.4,1
		c-0.1,0.1-0.1,0.2-0.2,0.2c0,0-0.1,0-0.2,0c-0.1,0-0.1,0-0.1,0c0,0,0,0.1,0.1,0.1c0.2,0.1,0.5,0.1,0.6,0.2c0.3,0.1,0.6,0.2,1.3,0.5
		c0.2,0.1,0.2,0.1,0.3,0c0-0.1,0.2-0.4,0.2-0.5v-0.1l-0.1,0c-0.1,0.2-0.2,0.3-0.3,0.3c-0.1,0-0.3-0.1-0.5-0.1
		c-0.5-0.2-0.5-0.3-0.4-0.6c0-0.1,0.2-0.6,0.2-0.7l0.1-0.4l0,0c0.1,0,0.6,0.2,0.6,0.2c0.2,0.1,0.2,0.2,0.2,0.3c0,0.1,0,0.1,0,0.2
		l0,0l0.1-0.1c0,0,0.1-0.2,0.1-0.3c0.1-0.2,0.1-0.3,0.2-0.3l0,0l-0.1,0c-0.1,0-0.1,0-0.2,0c-0.1,0-0.6-0.2-0.7-0.2l0,0l0.4-1.2l0,0
		c0.1,0,0.6,0.2,0.6,0.2c0.2,0.1,0.3,0.2,0.3,0.3c0,0.1,0,0.1,0,0.2l0,0.1l0.1,0c0-0.1,0.1-0.2,0.1-0.3
		C285.5,65.1,285.5,65,285.5,64.9L285.5,64.9L285.5,64.9z M281.3,65.5c-0.2,0.4-0.5,0.8-1,0.9c-0.4,0.1-0.7,0-1.2-0.2
		c-0.3-0.2-0.5-0.4-0.5-0.5c0-0.1,0.1-0.2,0.1-0.4c0-0.1,0.2-0.4,0.5-0.9l0.3-0.5c0.2-0.3,0.4-0.7,0.5-0.9c0,0,0-0.1,0.1,0
		c0,0,0.2,0.1,0.3,0.1c0.3,0.2,0.8,0.5,1,1.1C281.6,64.5,281.6,65,281.3,65.5 M303,62.5c-0.3,0.2-0.8,0.5-0.9,0.5
		c-0.1,0.1-0.4,0.2-0.6,0.3c-0.1,0-0.1,0.1-0.1,0.1h0.1c0.1,0,0.1-0.1,0.2-0.1c0.2,0,0.2,0,0.3,0.1c0.1,0.1,0.2,0.2,0.5,0.9l0.4,0.8
		c0.2,0.4,0.4,0.8,0.5,0.9c0,0.1,0.1,0.2,0,0.3c0,0-0.1,0.1-0.1,0.1c0,0-0.1,0,0,0.1c0,0,0,0,0.1,0c0.2-0.1,0.4-0.3,0.5-0.3
		c0.2-0.1,0.5-0.3,1.2-0.6c0.2-0.1,0.2-0.1,0.2-0.2c0-0.1-0.1-0.4-0.2-0.5l-0.1-0.1c0,0,0,0,0,0.1c0.1,0.2,0.1,0.3,0,0.4
		c-0.1,0.1-0.3,0.2-0.4,0.3c-0.4,0.2-0.5,0.2-0.7-0.1c-0.1-0.1-0.3-0.5-0.4-0.7l-0.2-0.3v-0.1c0.1-0.1,0.5-0.3,0.6-0.3
		c0.2-0.1,0.3,0,0.3,0c0,0.1,0.1,0.1,0.1,0.1l0.1,0l0-0.1c0,0-0.1-0.2-0.1-0.3c-0.1-0.2-0.1-0.3-0.1-0.3l0,0c0,0,0,0,0,0.1
		s-0.1,0.1-0.2,0.2c-0.1,0.1-0.6,0.3-0.7,0.4l-0.1,0l-0.6-1.1l0-0.1c0.1,0,0.5-0.3,0.6-0.3c0.2-0.1,0.3-0.1,0.4,0
		c0,0,0.1,0.1,0.1,0.1l0.1,0l0-0.1c0-0.1-0.1-0.3-0.1-0.3c0,0,0,0,0,0L303,62.5L303,62.5z M283.1,62.5c2.6,1.2,5.5,1.9,8.5,1.9
		s5.9-0.7,8.5-1.9h-1c-2,0.8-4.1,1.3-6.3,1.4c-0.5,0-0.9-0.4-0.9-0.9v-0.5h-0.4v0.5c0,0.5-0.4,0.9-0.9,0.9c-2.2-0.1-4.4-0.6-6.3-1.4
		H283.1z M279.6,62.5c0,0.1,0,0.1,0,0.2c-0.1,0.1-0.1,0.3-0.5,0.9l-0.4,0.8c-0.2,0.4-0.4,0.7-0.5,0.9c-0.1,0.1-0.2,0.2-0.3,0.2
		c0,0-0.1,0-0.2-0.1c0,0-0.1,0-0.1,0c0,0,0,0.1,0.1,0.1c0.2,0.1,0.5,0.2,0.5,0.3c0.2,0.1,0.6,0.4,0.9,0.6c0.8,0.4,1.4,0.4,1.7,0.3
		c0.4-0.1,0.8-0.4,1.1-0.9c0.3-0.5,0.3-1,0.2-1.3c-0.2-0.8-0.9-1.1-1.5-1.5c-0.3-0.1-0.5-0.3-0.7-0.4c0,0-0.1,0-0.1-0.1L279.6,62.5
		L279.6,62.5z M274,62.5C274.1,62.6,274.1,62.6,274,62.5c0.1,0.1,0.1,0.1,0.2,0.1l0-0.1l0,0H274z M271.7,62.5
		c4.9,5.4,12,8.8,19.9,8.8s15-3.4,19.9-8.8h-0.6c-0.2,0.2-0.4,0.4-0.5,0.5c-4.8,4.8-11.5,7.8-18.8,7.8c-7.3,0-14-3-18.8-7.8
		c-0.2-0.2-0.4-0.4-0.5-0.5L271.7,62.5z"/>
	<path class="st0" d="M285.8,57l0-0.9c0,0,0,0,0,0c0.1,0.1,0.1,0.2,0.2,0.4v0c0,0.1,0,0.1-0.1,0.2C285.9,56.9,285.8,56.9,285.8,57
		 M285,55.7c0.1,0,0.1,0.1,0.2,0.1c0.1,0.1,0.2,0.1,0.4,0.2l0,1.1c-0.1,0.1-0.2,0.1-0.4,0.1c0,0-0.1,0-0.1-0.1l0-1.2v-0.1
		C285,55.9,285,55.8,285,55.7 M284.8,56.2l0,0.8c0,0-0.1-0.1-0.1-0.1c-0.1-0.1-0.1-0.1-0.1-0.2v0c0,0,0-0.1,0-0.2
		C284.7,56.4,284.7,56.3,284.8,56.2 M285.7,59l0-0.3c0,0,0,0.1,0,0.1l0,0C285.8,58.9,285.8,58.9,285.7,59 M286.3,58.3
		c0.1,0.1,0.1,0.2,0.1,0.4v0.1c0,0.2,0,0.3-0.1,0.4c-0.1,0.2-0.2,0.3-0.4,0.5c-0.1,0-0.1-0.1-0.2-0.1l0,0l0,0h0c0,0,0,0,0,0l-0.1,0
		l-0.1,0c0,0,0,0,0,0l0,0l0.1-0.1l0.1-0.1l0.1-0.1l0,0l0,0c0.1-0.1,0.2-0.2,0.2-0.4v-0.1l0,0c0-0.1-0.1-0.2-0.2-0.3
		c0,0-0.1,0-0.1-0.1c0,0-0.1,0-0.1-0.1h0c-0.4-0.2-0.8-0.3-1.2-0.5l0,0c0,0-0.1,0-0.1-0.1s-0.1-0.1-0.2-0.2
		c-0.1-0.1-0.2-0.2-0.3-0.4l-0.1-0.4l0-0.4c0.1-0.2,0.1-0.2,0.2-0.4c0.1-0.2,0.2-0.2,0.4-0.4h0l0.4,0.1h0l0,0c0,0.1,0,0.2,0,0.3h0
		c-0.1,0-0.1,0.1-0.1,0.1c-0.1,0.1-0.2,0.2-0.3,0.4c0,0.1,0,0.1,0,0.2l0,0.1c0,0.1,0.1,0.2,0.2,0.3c0.1,0.1,0.2,0.2,0.3,0.2
		c0,0,0,0,0.1,0c0,0,0,0,0,0c0,0,0,0,0,0c0,0,0.1,0,0.1,0.1c0,0,0.1,0,0.1,0.1c0,0,0,0,0,0v0c0.2,0.1,0.4,0.2,0.6,0.3l0.2,0.1
		C286.2,58.1,286.3,58.1,286.3,58.3 M285.1,58.4c0,0,0.1,0,0.1-0.1l0.2,0.1l0,0.7l-0.2,0.2c0,0-0.1,0-0.1-0.1L285.1,58.4z
		 M284.9,59.1C284.9,59.1,284.9,59.1,284.9,59.1c-0.1,0-0.1-0.1-0.1-0.1c0,0,0-0.1,0-0.1s0-0.1,0-0.1c0-0.1,0-0.1,0.1-0.2
		L284.9,59.1z M286,60.2L286,60.2c0,0.1-0.1,0.2-0.2,0.3c-0.1,0.1-0.1,0.1-0.2,0.1v-0.2v0c0-0.1,0-0.1,0-0.3v0c0,0,0,0,0,0
		c0,0,0-0.1,0-0.1c0,0,0,0,0,0c0,0-0.1,0-0.1,0h0l-0.1,0c-0.1,0-0.1-0.1-0.2-0.1c0,0-0.1,0-0.1,0c0,0-0.1,0-0.1,0l0,0l-0.4-0.1
		l-0.1-0.1l0,0l-0.1-0.1c-0.1-0.1-0.1-0.2-0.2-0.4c0-0.1,0-0.2,0-0.3c0,0,0-0.1,0-0.1c0-0.2,0.1-0.2,0.2-0.4l0.3-0.3l0.2,0.1
		l0.2,0.1l0,0l0,0l0,0c0,0-0.1,0-0.1,0.1c0,0-0.1,0.1-0.1,0.1c-0.1,0.1-0.2,0.2-0.2,0.3c0,0.1,0,0.1,0,0.2s0,0.1,0,0.2
		c0,0.1,0.1,0.2,0.2,0.2c0.1,0,0.1,0.1,0.2,0.1c0,0,0,0,0,0c0,0,0,0,0.1,0c0,0,0.1,0,0.1,0.1c0,0,0.1,0,0.1,0c0,0,0,0,0,0l0,0l0,0
		c0,0,0.1,0.1,0.2,0.1c0,0,0.1,0,0.1,0l0,0c0,0,0,0,0.1,0c0,0,0,0,0,0c0,0,0.1,0,0.1,0.1l0.1,0l0,0c0,0,0,0,0,0
		C286,60,286,60,286,60.2L286,60.2L286,60.2z M285.4,61.2L285.4,61.2L285.4,61.2L285.4,61.2c0,0.1-0.1,0.1-0.1,0.1l-0.1,0l0,0l0,0v0
		l0-0.3v0l0-0.8c0,0,0.1,0,0.1,0c0.1,0,0.1,0,0.2,0L285.4,61.2z M284.7,60.5L284.7,60.5L284.7,60.5c-0.1,0-0.1,0-0.2-0.1
		c0-0.1-0.1-0.1-0.1-0.2v0c0-0.1,0-0.1,0.1-0.2c0,0,0.1-0.1,0.2-0.1l0.2,0.1v0.1l0,0.6L284.7,60.5z M279.6,54.1
		c0.1,0.7,0.1,1,0.1,1.2c0,0.1,0,0.2,0,0.2l0,0l0,0v0l0,0c0,0,0,0.3,0.1,1.4v0c0,0.1-0.1,0.2-0.2,0.3c-0.1,0.1-0.2,0.1-0.5,0.1
		c-0.2,0-0.4-0.1-0.5-0.1c-0.1-0.1-0.2-0.2-0.2-0.3v0c0.1-1.4,0.2-2.2,0.3-2.5c0-0.1,0-0.2,0-0.3L279.6,54.1L279.6,54.1z M280,55.4
		L280,55.4L280,55.4z M304.7,54.7c0,0.1,0,0.2,0.1,0.3c0,0.1,0.1,0.2,0.2,0.3l-2.8,4l0,0c0-0.1-0.1-0.1-0.1-0.2c0,0,0-0.1,0-0.1
		l0-0.1l0,0l0,0c0-0.1,0-0.2,0-0.3c0-0.1,0-0.1,0-0.2l0.2-0.3L304.7,54.7C304.7,54.7,304.7,54.7,304.7,54.7 M300.7,59.1l0-0.6
		c0.2,0,0.4,0.1,0.5,0.1c0.1,0,0.3,0,0.5,0c0,0,0,0,0,0c0,0.1-0.1,0.3-0.1,0.4V59c0,0,0,0,0,0c0,0,0,0.1,0,0.1c0,0,0,0,0,0
		c0,0.1,0.1,0.2,0.1,0.2L300.7,59.1z M298.7,58.7l-0.1,0c-0.1,0.2-0.3,0.3-0.5,0.3h0c-0.3,0-0.5-0.2-0.6-0.5l-0.1-0.1l-3-0.5
		c0-0.1,0.1-0.2,0.1-0.4l0-0.1c0-0.1,0-0.2-0.1-0.3l0.2,0.1c0,0,0.2,0.1,0.5,0.2c0.1,0,0.1,0,0.1,0c0.1,0,0.2,0,0.3,0
		c0.2,0,0.3,0,0.3,0h0l0.9,0c0.3,0,0.5,0.1,0.7,0.2c0.2,0.1,0.3,0.2,0.4,0.5l0.2,0c0.2-0.2,0.4-0.3,0.8-0.4c0.1,0,0.1,0,0.2,0
		c0.3,0,0.5,0.1,0.8,0.3l0,0c0,0,0,0,0.1,0l0.1,0.9L298.7,58.7z M299.6,55.4l0.2,2.4c-0.3-0.2-0.5-0.3-0.8-0.3c-0.1,0-0.1,0-0.2,0
		c-0.2,0-0.3,0.1-0.5,0.1L299.6,55.4z M309.2,60.9l-1.2-0.5v0l0.6-0.6l0,0L309.2,60.9L309.2,60.9L309.2,60.9z M308.4,58.4
		c-0.1-0.2-0.2-0.4,0-0.6l0.1-0.1l0-0.1l-0.1,0c-0.2,0.2-0.4,0.4-0.4,0.4c-0.1,0.1-0.3,0.2-0.4,0.4l0,0.1l0.1,0l0,0
		c0.1-0.1,0.2-0.1,0.2,0c0,0,0.1,0.1,0.2,0.3l0.3,0.7v0.1l-0.8,0.8l-0.1,0l-1-0.4c-0.1,0-0.1-0.1,0-0.1l0-0.1c0,0-0.1,0-0.1,0.1
		c-0.3,0.3-0.5,0.5-0.6,0.7c-0.1,0.1-0.1,0.2-0.1,0.2l0.1,0c0,0,0.1-0.1,0.1-0.1c0.1,0,0.2-0.1,0.7,0.1c0.8,0.3,2.7,1.1,3,1.2
		c0.1,0,0.2,0,0.2,0c0,0,0-0.1,0-0.2L308.4,58.4z M312,55.7c-0.4-0.3-0.9-0.5-1.5-0.3c-0.6,0.2-1,0.5-1.4,1.1
		c-0.2,0.3-0.4,0.6-0.4,0.8c0,0.1,0,0.1,0,0.2c0.1,0.1,0.4,0.4,0.5,0.4l0.1,0c0,0,0,0,0-0.1c-0.1-0.1-0.1-0.2-0.2-0.3
		c-0.1-0.3,0-0.5,0.3-0.9c0.4-0.5,1.3-1,2.3-0.3c0.4,0.3,0.7,0.6,0.8,1.1c0,0.3,0,0.6-0.2,0.9c-0.2,0.4-0.6,0.6-0.8,0.7
		c-0.2,0-0.4,0-0.5-0.1c-0.1,0-0.1,0-0.1,0s0,0.1,0.1,0.1c0.1,0.1,0.3,0.2,0.4,0.3c0.1,0.1,0.2,0.1,0.2,0.2l0.1,0
		c0.1-0.1,0.2-0.2,0.3-0.4c0.1-0.2,0.3-0.3,0.4-0.6c0.4-0.6,0.5-1.1,0.4-1.6C312.7,56.2,312.3,55.8,312,55.7 M272.5,58.3
		c-1,0.7-1.6,0.3-2-0.2c-0.4-0.7-0.2-1.6,0.7-2.2c1.2-0.8,1.8-0.2,2,0.1C273.8,56.9,273.4,57.8,272.5,58.3 M273.6,56.1
		c-0.7-1-1.9-1.2-2.8-0.6c-1,0.6-1.1,1.6-0.5,2.7c0.8,1.2,2,1.1,2.7,0.7C273.8,58.3,274.3,57.3,273.6,56.1 M303.5,62.5
		c-0.1-0.2-0.1-0.2-0.1-0.3l0,0l-0.1,0c0,0-0.1,0.1-0.2,0.1c0,0-0.1,0-0.2,0.1L303.5,62.5L303.5,62.5z M279.9,62.5
		c-0.1-0.1-0.3-0.2-0.5-0.3c-0.1,0-0.1,0-0.1,0l0,0.1c0.1,0,0.1,0.1,0.2,0.1c0,0,0.1,0.1,0.1,0.1L279.9,62.5L279.9,62.5z
		 M274.2,62.5c0,0-0.1-0.1-0.1-0.1c-0.1-0.1-0.1-0.2,0.1-0.4c0.1-0.1,0.2-0.2,0.7-0.7l0.6-0.6c0.3-0.3,0.6-0.6,0.8-0.7
		c0.1-0.1,0.2-0.1,0.3-0.1c0,0,0.1,0.1,0.1,0.1l0.1,0l0-0.1c-0.1-0.1-0.4-0.4-0.4-0.4c-0.1-0.1-0.3-0.3-0.5-0.6l-0.1,0l0,0.1
		c0,0,0.1,0.1,0.2,0.2c0.1,0.1,0,0.2,0,0.3c-0.1,0.2-0.4,0.4-0.7,0.8l-1.4,1.4l-0.1,0c0,0-0.1-0.1-0.1-0.1c-0.1-0.1-0.2-0.2-0.2-0.5
		c0-0.4,0.2-0.6,0.3-0.7c0.4-0.3,0.9-0.3,1-0.1c0.1,0.1,0.1,0.1,0.1,0.1l0-0.1l-0.1-0.1c-0.5-0.5-1.2-0.5-1.7,0
		c-0.2,0.2-0.2,0.4-0.2,0.6c0,0.1,0,0.4,0.4,0.9c0.2,0.2,0.4,0.4,0.5,0.5c0.1,0.1,0.3,0.3,0.4,0.5L274.2,62.5L274.2,62.5z
		 M316.4,53.8c-1.2,3.3-3.1,6.3-5.5,8.8h0.6c2.3-2.5,4.2-5.5,5.4-8.8H316.4z M310.8,53.8c0,0.1-0.1,0.2-0.1,0.3c0,0,0,0.1,0,0.1
		c0,0,0,0,0.1,0c0-0.1,0.1-0.2,0.1-0.2c0.1-0.1,0.2-0.1,0.3-0.1c0.2,0.1,0.5,0.2,1,0.4l0.8,0.4c0.7,0.3,0.8,0.4,1,0.4
		c0.1,0.1,0.2,0.1,0.2,0.3c0,0,0,0.1,0,0.1l0,0.1c0,0,0,0,0.1-0.1c0.1-0.2,0.2-0.4,0.2-0.6c0.1-0.1,0.2-0.4,0.3-0.6
		c0-0.1,0-0.1,0-0.1l-0.1,0c0,0-0.1,0.1-0.1,0.1c-0.1,0.1-0.2,0.1-0.3,0c-0.1-0.1-0.3-0.1-1-0.4l-0.6-0.3L310.8,53.8L310.8,53.8z
		 M308.9,53.8c-1,1.8-2.2,3.4-3.7,4.8c-1.8,1.7-3.8,3-6.1,4h1c4-1.9,7.2-4.9,9.2-8.8L308.9,53.8z M305.1,53.8
		C305.1,53.8,305.2,53.8,305.1,53.8c0.4,0.3,0.8,0.4,1.2,0.4c0.4,0,0.9-0.1,1.2-0.4c0,0,0,0,0,0h-0.4c-0.2,0.1-0.5,0.2-0.8,0.2
		c-0.3,0-0.6-0.1-0.8-0.2L305.1,53.8z M296,53.8l-2,3l0,0.1l0,0c0.2,0.2,0.2,0.3,0.2,0.5v0.1c0,0.2,0,0.2-0.1,0.4l0.1,0.2l3.1,0.5
		c0.1,0.3,0.4,0.5,0.7,0.5h0.1c0.3,0,0.5-0.1,0.7-0.3l1.2,0.3l0.1,1.2c0,0.2,0.1,0.3,0.3,0.3s0.3-0.1,0.3-0.3l0.1-1l1.4,0.4l0.1-0.2
		l0,0l2.9-4.2l0-0.1c-0.1-0.1-0.1-0.1-0.2-0.3c0-0.1-0.1-0.2-0.1-0.3c0-0.1,0-0.1,0-0.2l0-0.1l-0.1-0.2c-0.2,0-0.3,0-0.5,0
		c-0.2,0-0.4,0-0.7-0.1c-0.4-0.1-0.6-0.2-0.9-0.3c0,0,0,0,0,0h-0.5c0.1,0.1,0.2,0.1,0.4,0.2c0.4,0.1,0.6,0.2,1,0.3
		c0.3,0,0.5,0.1,0.7,0.1c0.1,0,0.2,0,0.2,0l-1.5,2l-1.3,1.9c0,0-0.1,0-0.1,0h0c0,0,0,0,0,0c-0.2,0-0.3,0-0.4,0l0,0
		c-0.2,0-0.3,0-0.5-0.1l0.3-4.5h-0.2l-0.3,4.4c0,0.4,0,0.7-0.1,1.1l-0.1,1.1c0,0.1,0,0.1-0.1,0.1s-0.1,0-0.1-0.1l0,0
		c-0.1-1.9-0.2-3.8-0.4-5.7l-0.1-0.9h-0.2l0.1,1.3l-1.7,2.8c-0.1-0.2-0.2-0.3-0.4-0.4c-0.3-0.2-0.5-0.2-0.8-0.2l0,0l-0.9,0
		c0,0-0.1,0-0.2,0c0,0,0,0-0.1,0c-0.1,0-0.3,0-0.4,0c0,0-0.1,0-0.1,0c-0.1,0-0.1,0-0.2-0.1c-0.1,0-0.1,0-0.2-0.1c0,0,0,0,0,0
		l-0.4-0.2l2-3L296,53.8L296,53.8z M293.1,53.8C293.1,53.8,293.1,53.8,293.1,53.8c0.4,0.3,0.8,0.4,1.2,0.4s0.8-0.1,1.1-0.4
		c0,0,0,0,0,0H295c-0.2,0.1-0.5,0.2-0.8,0.2c-0.3,0-0.6-0.1-0.8-0.2L293.1,53.8z M291.3,53.8v8.8h0.4v-8.8H291.3z M282.8,53.8
		C282.8,53.8,282.8,53.8,282.8,53.8L282.8,53.8l0.2,0.4l0.2,0.4c0.1,0.2,0.2,0.4,0.5,0.6c0.1,0.1,0.2,0.2,0.4,0.2
		c-0.1,0.1-0.2,0.2-0.3,0.3c-0.1,0.2-0.2,0.3-0.2,0.5l0,0l0,0.5v0l0.1,0.5v0l0,0c0.1,0.2,0.2,0.3,0.3,0.5c0.1,0.1,0.3,0.2,0.4,0.3
		l-0.2,0.2l0,0c-0.1,0.1-0.2,0.3-0.2,0.5c0,0.1,0,0.1,0,0.2c0,0.1,0,0.2,0.1,0.3c0,0.2,0.1,0.3,0.2,0.4c0.1,0.1,0.1,0.2,0.1,0.2l0,0
		l0.1,0.1h0l0.1,0c0,0-0.1,0-0.1,0.1c-0.1,0.1-0.1,0.2-0.1,0.3v0c0,0.1,0,0.2,0.1,0.3c0.1,0.1,0.2,0.2,0.3,0.2l0.2,0.1l0,0.1l0,0h0
		l0,0.3h0.1l0.1,0l0,0l-0.1-0.1l-0.1,0c0,0,0,0.1,0.1,0.1c0,0.1,0.1,0.2,0.3,0.2c0.1,0,0.2-0.1,0.3-0.2s0-0.1,0-0.2l0-0.4
		c0.1,0,0.2-0.1,0.4-0.2s0.2-0.2,0.2-0.5v0c0-0.1,0-0.3-0.1-0.4c0.2-0.1,0.3-0.3,0.4-0.5c0.1-0.2,0.1-0.3,0.1-0.5l0-0.1
		c0-0.2,0-0.3-0.1-0.5c-0.1-0.2-0.2-0.3-0.4-0.4h0l0,0c0.1,0,0.1-0.1,0.2-0.1l0,0c0.2-0.1,0.3-0.2,0.4-0.4c0.1-0.2,0.1-0.4,0.2-0.6
		v-0.1c0-0.1,0-0.2,0-0.3c-0.1-0.3-0.2-0.5-0.5-0.7l0.1,0h0l0.4-0.3h0l0.3-0.4v0c0.1-0.1,0.1-0.2,0.2-0.4c0-0.1,0-0.1,0.1-0.1
		c0,0,0-0.1,0.1-0.2v0l0,0c0-0.1,0-0.1,0.1-0.1c0,0,0,0,0,0h-0.3c0,0,0,0,0,0l0,0c-0.1,0.1-0.1,0.2-0.1,0.2c0,0,0,0.1-0.1,0.1
		c-0.1,0.1-0.1,0.2-0.2,0.4l-0.3,0.4l-0.3,0.3l-0.2,0.1l-0.3-0.2l-0.1,0v-0.1v-0.1l0.1,0l0,0l0.4-0.3l0.3-0.5h0
		c0-0.1,0.1-0.2,0.1-0.3h-0.2c0,0.1-0.1,0.1-0.1,0.2l0,0l-0.3,0.4l-0.3,0.3l0-0.9h-0.2l0,1v0.1V55l0,0l-0.2-0.1l-0.5-0.2l0-0.9h-0.2
		l0,0.8l0,0c0,0,0,0-0.1-0.1c-0.1,0-0.2-0.1-0.2-0.1c-0.1,0-0.1-0.1-0.2-0.1c-0.3-0.4-0.3-0.4-0.4-0.5h-0.3c0.2,0.3,0.1,0.2,0.5,0.6
		c0,0,0.1,0.1,0.1,0.1c0.1,0,0.2,0.1,0.2,0.1l0.1,0.1l0,0l0,0l0,0l0.2,0.1l0.1,0l0.1,0l0.4,0.1l0.3,0.1l0.1,0.1l0.1,0.1l0,0l0.4,0.2
		l0,0c0.2,0.2,0.3,0.3,0.4,0.6c0,0.1,0,0.1,0,0.2l0,0.1c0,0.2,0,0.3-0.1,0.5c-0.1,0.2-0.2,0.2-0.4,0.4c-0.1,0.1-0.2,0.1-0.4,0.2
		l-0.1,0l0,0l-0.1-0.1l-0.1-0.1l-0.1-0.1c0,0,0.1,0,0.1,0c0,0,0.1,0,0.1,0c0,0,0,0,0,0c0,0,0.1,0,0.1,0c0.1-0.1,0.2-0.2,0.3-0.3
		c0.1-0.1,0.2-0.2,0.2-0.4l0-0.1c0-0.2-0.1-0.4-0.2-0.5l0,0c-0.1-0.1-0.1-0.1-0.2-0.2c0,0-0.1,0-0.1,0l0,0c0,0,0,0,0,0
		c0,0-0.1,0-0.1-0.1c-0.1,0-0.2-0.1-0.3-0.1c-0.1,0-0.2-0.1-0.3-0.1l0,0l0,0l-0.1,0l0,0l-0.1,0l-0.4-0.1h0l0,0h0
		c-0.2-0.1-0.3-0.1-0.5-0.2c-0.2-0.2-0.3-0.3-0.4-0.5l-0.2-0.4l-0.2-0.3L282.8,53.8L282.8,53.8z M278.8,53.8c0,0,0,0.1,0,0.1h0
		c-0.1,0-0.1,0-0.1,0l0,0c0,0,0,0,0,0.1c0,0.2-0.1,0.8-0.3,2.8v0c0,0.2,0.2,0.4,0.3,0.5c0.2,0.1,0.4,0.2,0.6,0.2h0h0
		c0.2,0,0.4,0,0.6-0.2c0.1-0.1,0.3-0.3,0.3-0.5v0c-0.1-0.7-0.1-1.1-0.1-1.3c0-0.1,0-0.2,0-0.2v0l0,0c0-0.1,0-0.3-0.1-1.4l0-0.1h-0.1
		v-0.1h-0.2v0.1H279c0,0,0-0.1,0-0.1L278.8,53.8z M273.8,53.8c2,3.8,5.3,6.9,9.2,8.8h1c-2.3-1-4.4-2.3-6.1-4c-1.5-1.4-2.7-3-3.7-4.8
		L273.8,53.8z M272,53.8c0,0,0.1,0.1,0.1,0.2l0.1,0.1c0,0,0-0.1,0-0.1c0,0,0-0.1,0-0.1L272,53.8L272,53.8z M268.9,53.8
		c-0.2,0.5-0.4,0.8-0.4,0.9c0,0.1-0.1,0.2-0.1,0.2c0,0,0.1,0,0.2,0l2.7-1c0,0,0.1,0,0.1-0.1h-1l-1.1,0.5v0c0,0,0.1-0.2,0.2-0.5
		L268.9,53.8L268.9,53.8z M266.3,53.8c1.2,3.3,3.1,6.2,5.4,8.8h0.6c-2.4-2.5-4.3-5.5-5.5-8.8H266.3z"/>
	<path class="st0" d="M281.7,52.6l-0.1,0.1l0,0l0,0l0.1,0.1l0,0l0.1-0.1l0,0L281.7,52.6L281.7,52.6z M288.7,52.6l-0.1,0.1l0,0l0,0
		l0.1,0.1l0,0l0.1-0.1l0,0L288.7,52.6L288.7,52.6z M284.7,51.7L284.7,51.7h-2.4v-0.4h6v0.4h-2.3H284.7z M280.1,51.8
		c-0.2,0.1-0.3,0.1-0.4,0.1c-0.1,0-0.2,0-0.3-0.1c0.1-0.2,0.2-0.4,0.5-0.5c0.2-0.1,0.3-0.1,0.4-0.1c0.1,0,0.2,0,0.3,0
		C280.5,51.5,280.3,51.6,280.1,51.8 M279.4,51.4C279.4,51.4,279.4,51.4,279.4,51.4C279.4,51.4,279.4,51.4,279.4,51.4L279.4,51.4z
		 M279.1,50.5L279.1,50.5l0.1,0.1C279.1,50.6,279.1,50.6,279.1,50.5 M279.1,51.4C279.1,51.4,279.1,51.4,279.1,51.4L279.1,51.4
		C279.1,51.4,279.1,51.4,279.1,51.4 M277.8,50.3L277.8,50.3c0,0.3,0.2,0.5,0.4,0.7c-0.1,0-0.3,0-0.4,0.1l-1-0.6
		c-0.1-0.2-0.1-0.3-0.1-0.5v-0.1c0-0.1,0-0.2,0-0.4L277.8,50.3z M279.1,51.8c-0.1,0-0.2,0.1-0.3,0.1c-0.1,0-0.3,0-0.4-0.1
		c-0.2-0.1-0.4-0.3-0.5-0.5c0.1,0,0.2,0,0.3,0c0.1,0,0.3,0,0.4,0.1C278.9,51.4,279,51.6,279.1,51.8 M278.5,51
		c-0.3-0.2-0.4-0.4-0.5-0.7c0,0,0.1,0,0.1,0c0.3,0,0.5,0.1,0.6,0.3c0.2,0.2,0.2,0.3,0.2,0.6c0,0,0,0-0.1,0
		C278.8,51.1,278.7,51.1,278.5,51 M278.6,52.1l-0.6-0.2l0,0c-0.1-0.1-0.2-0.1-0.4-0.2c-0.2-0.1-0.3-0.2-0.5-0.4
		c-0.1-0.1-0.1-0.2-0.2-0.2c0,0,0-0.1-0.1-0.1l0.8,0.4l0,0c0.1,0.3,0.3,0.6,0.6,0.7c0.2,0.1,0.3,0.1,0.5,0.1c0.1,0,0.2,0,0.3-0.1
		v0.3c0,0,0,0,0,0L278.6,52.1z M279.4,50.5c0,0-0.1,0.1-0.1,0.1L279.4,50.5C279.4,50.5,279.4,50.5,279.4,50.5 M280.3,50.3
		c0,0,0.1,0,0.1,0c0,0.3-0.2,0.5-0.4,0.7c-0.2,0.2-0.4,0.2-0.5,0.2c0,0,0,0-0.1,0c0-0.2,0.1-0.4,0.2-0.6
		C279.8,50.4,280.1,50.3,280.3,50.3 M306.2,49.6v3H305L306.2,49.6z M294.4,49.6l1.3,3h-1.3V49.6z M294.1,49.6v3h-1.3L294.1,49.6z
		 M306.5,49.6l1.3,3h-1.3V49.6z M315.8,51.1C315.7,51,315.7,51.1,315.8,51.1c-0.1,0.1-0.1,0.2-0.1,0.2c-0.1,0.1-0.2,0.1-0.3,0.1
		s-0.3-0.1-1-0.3l-0.8-0.3c-0.4-0.1-0.8-0.3-1-0.4c-0.1-0.1-0.2-0.1-0.2-0.2c0,0,0-0.1,0-0.2c0,0,0-0.1,0-0.1c0,0,0,0-0.1,0.1
		c-0.1,0.2-0.1,0.5-0.2,0.6c-0.1,0.4-0.3,0.7-0.5,1.4c-0.1,0.2-0.1,0.3,0,0.3c0.1,0.1,0.5,0.2,0.5,0.2c0,0,0.1,0,0.1,0l-0.1-0.1
		c-0.1,0-0.2-0.1-0.2-0.2c-0.1-0.2,0-0.4,0-0.6c0.1-0.4,0.2-0.5,0.3-0.5c0.1-0.1,0.4,0,1,0.2l0.8,0.3c0.7,0.2,0.8,0.3,1,0.3
		c0.2,0.1,0.2,0.1,0.2,0.3c0,0.1,0,0.1,0,0.2c0,0.1,0,0.1,0,0.1c0,0,0,0,0.1-0.1c0.1-0.2,0.2-0.5,0.2-0.6c0-0.1,0.2-0.4,0.2-0.6
		C315.8,51.1,315.8,51.1,315.8,51.1 M312.5,53.8l-0.2-0.1c-0.4-0.2-0.8-0.4-1-0.5c-0.1-0.1-0.2-0.1-0.2-0.2c0,0,0-0.1,0-0.2
		c0,0,0-0.1,0-0.1c0,0-0.1,0-0.1,0.1c-0.1,0.2-0.2,0.5-0.2,0.6c0,0.1-0.1,0.2-0.2,0.4L312.5,53.8L312.5,53.8z M286.8,53.8
		C286.8,53.8,286.8,53.8,286.8,53.8c0.1-0.2,0.2-0.3,0.3-0.5c0.1-0.1,0.2-0.2,0.4-0.3c0.2-0.1,0.3-0.1,0.5-0.2
		c0.2-0.1,0.2-0.1,0.4-0.1l0,0l0,0c0.1,0,0.2,0,0.3,0h0.1c0.2,0,0.3,0,0.4,0.1l0,0l0.3,0.2l0,0.1l-0.3,0.2l-0.3,0.1
		c-0.1,0-0.2,0-0.2,0c0,0-0.1,0-0.2,0c0,0-0.1,0-0.1,0c0,0-0.1,0-0.2,0h0c-0.2,0-0.4,0.1-0.5,0.3c-0.1,0.1-0.1,0.1-0.1,0.2
		c0,0-0.1,0.1-0.1,0.1l0.3,0c0,0,0.1-0.1,0.1-0.1c0.1-0.1,0.2-0.2,0.3-0.2h0l0.1,0c0,0,0.1,0,0.2,0.1c0.1,0,0.1,0,0.2,0
		c0.1,0,0.2,0,0.3,0h0c1-0.6,0.8-0.2,1.2-0.5l0.1-0.1H290l-0.3-0.2l0,0l0,0v0l-0.4-0.2l0,0c-0.2-0.1-0.3-0.1-0.5-0.2l-0.1,0
		c-0.1,0-0.2,0-0.3,0.1l0,0c-0.2,0-0.3,0.1-0.5,0.1c-0.2,0.1-0.3,0.1-0.5,0.2h0c-0.2,0.1-0.3,0.2-0.4,0.4c-0.1,0.2-0.2,0.3-0.3,0.5
		c0,0,0,0.1-0.1,0.1L286.8,53.8L286.8,53.8z M283.1,53.8L283.1,53.8c-0.1-0.3-0.3-0.5-0.6-0.5c-0.1,0-0.1,0-0.2,0
		c-0.1,0-0.2,0-0.4,0.1c-0.1,0-0.1,0-0.2,0l-0.1,0c-0.1,0-0.2,0-0.3-0.1l0,0l-0.3-0.2l0-0.1c0.1-0.2,0.3-0.3,0.5-0.4
		c0.1,0,0.2,0,0.3,0s0.2,0,0.3,0.1l0,0l0.5,0.2c0.1,0.1,0.3,0.2,0.5,0.3c0,0,0.1,0.1,0.2,0.2l0.1,0.1l0,0h0l0,0
		c0.1,0.2,0.2,0.3,0.3,0.4l0.3,0c-0.1-0.1-0.1-0.2-0.4-0.5l0,0c0,0-0.1-0.1-0.1-0.1c0,0-0.1-0.1-0.1-0.1c-0.1-0.1-0.3-0.2-0.5-0.3v0
		l-0.5-0.2l0,0c-0.1,0-0.2-0.1-0.4-0.1c-0.1,0-0.2,0-0.4,0c-0.3,0.1-0.5,0.2-0.6,0.4l0,0l-0.3,0.1h-0.3l0.3,0.2l0,0h0.1l0.3,0.1h0
		l0.2,0.2l0,0h0c0.1,0.1,0.3,0.2,0.4,0.2l0.1,0c0.1,0,0.1,0,0.2,0h0l0,0c0.1-0.1,0.2-0.1,0.3-0.1c0,0,0.1,0,0.1,0
		c0.2,0,0.3,0.1,0.4,0.3L283.1,53.8L283.1,53.8z M271.5,53.8c0.3-0.1,0.4-0.1,0.5,0c0,0,0,0,0,0h0.1c-0.1-0.2-0.2-0.3-0.2-0.4
		c0-0.1-0.1-0.3-0.2-0.6c0-0.1,0-0.1-0.1-0.1c0,0,0,0,0,0.1c0,0.1,0.1,0.2,0.1,0.2c0,0.1-0.1,0.2-0.4,0.4l-0.8,0.3L271.5,53.8
		L271.5,53.8z M269.5,53.8c0.1-0.3,0.3-0.7,0.5-1.1c0.3-0.7,0.6-1.5,0.8-1.9c0-0.1,0.1-0.1,0-0.2c0,0-0.1,0-0.2,0l-2.9,1.1
		c-0.2,0.1-0.4,0.1-0.5,0c0,0,0-0.1-0.1-0.1c0-0.1,0-0.1-0.1-0.1c0,0,0,0.1,0,0.1c0.1,0.2,0.2,0.4,0.2,0.4c0,0.1,0.1,0.3,0.2,0.6
		c0,0.1,0.1,0.1,0.1,0.1c0,0,0,0,0-0.1s-0.1-0.2-0.1-0.2c0-0.1,0.1-0.2,0.4-0.3l2-0.9l0,0c0,0.1-0.5,1-0.6,1.4
		c-0.2,0.4-0.3,0.8-0.5,1.1L269.5,53.8L269.5,53.8z M317.6,49.4c-0.3,1.5-0.7,3-1.2,4.4l0.5,0c0.5-1.4,0.9-2.9,1.2-4.4H317.6z
		 M313.8,49.4c0.2,0.1,0.4,0.1,0.6,0.2c0.5,0.1,0.8,0,1.2-0.2H313.8z M310.6,49.4c-0.4,1.5-1,3-1.8,4.4l0.5,0
		c0.7-1.4,1.3-2.8,1.7-4.4L310.6,49.4z M306.1,49.4l-1.4,3.3h-0.1v0.1c0,0.4,0.2,0.8,0.5,1l0.4,0c-0.1,0-0.1-0.1-0.2-0.1
		c-0.2-0.2-0.4-0.4-0.4-0.8h2.9c0,0.3-0.2,0.6-0.4,0.8c-0.1,0-0.1,0.1-0.2,0.1l0.4,0c0.3-0.2,0.5-0.6,0.5-1v-0.1h-0.1l-1.4-3.3h-0.2
		l0,0h0l0,0L306.1,49.4L306.1,49.4z M301.2,49.4l-0.3,4.1l0,0.1l0,0.1v0h0.2l0-0.1c0,0,0,0,0.1,0c0.1,0,0.2,0,0.5,0
		c0.2,0,0.3,0.1,0.5,0.1c0,0,0.1,0,0.1,0.1l0.5,0c-0.2-0.1-0.3-0.2-0.5-0.2c-0.2-0.1-0.4-0.2-0.6-0.2s-0.4,0-0.5,0c0,0,0,0-0.1,0
		l0.3-4L301.2,49.4L301.2,49.4z M299.2,49.4l0.2,3.6c-0.2,0-0.3,0-0.5,0h-0.1c-0.4,0-0.6,0-1-0.1c-0.4-0.1-0.6-0.2-1-0.4l-0.1,0
		l-0.8,1.2h0.3l0.6-1c0.3,0.2,0.6,0.3,0.9,0.4c0.4,0.1,0.7,0.1,1.1,0.1h0.1c0.2,0,0.4,0,0.5,0l0,0.5h0.2l0-0.5l0-0.1V53l-0.2-3.6
		H299.2z M294,49.4l-1.4,3.3h0v0.1c0,0.4,0.2,0.8,0.5,1l0.4,0c-0.1,0-0.1-0.1-0.2-0.1c-0.2-0.2-0.4-0.4-0.4-0.8h2.9
		c0,0.3-0.2,0.6-0.4,0.8c-0.1,0-0.1,0.1-0.2,0.1l0.4,0c0.3-0.2,0.5-0.6,0.5-1v0l0,0v0v-0.1h0l-1.4-3.3h-0.2l0,0h0l0,0L294,49.4
		L294,49.4z M291.3,53.8h0.4v-4.4h-0.4V53.8z M286.5,49.6h0.2v-0.2h-0.2V49.6z M283.8,49.6h0.2v-0.2h-0.2V49.6z M276.5,49.4
		c0,0.2,0,0.3-0.1,0.5V50c0,0.1,0,0.2,0,0.4c0,0.1,0.1,0.2,0.1,0.3c0,0,0,0,0,0.1c0.1,0.2,0.1,0.3,0.2,0.4s0.1,0.2,0.2,0.3
		c0.2,0.2,0.3,0.3,0.5,0.5c0.1,0.1,0.2,0.1,0.4,0.2h0l0.6,0.2l0.5,0.2l0,0c0.1,0,0.2,0,0.2,0.1s0.1,0,0.2,0.1c0,0,0.1,0.2,0.1,0.3
		l0,0.7h0.2l0-0.7l0,0c0-0.2-0.1-0.4-0.2-0.5c-0.1-0.1-0.1-0.1-0.2-0.1V52c0.1,0,0.2,0,0.3,0c0.2,0,0.3,0,0.5-0.1
		c0.3-0.1,0.5-0.4,0.6-0.7l1.7-0.9c-0.1,0.2-0.1,0.5-0.1,0.7H282v0.8h2.6l0.1,1.9h0.2l-0.1-1.9v0h0.8v0l-0.1,1.9h0.2l0.1-1.9h2.5
		v-0.8h-0.3c0-0.4-0.1-0.8-0.2-1.1c0-0.1,0.1-0.1,0.1-0.2l0,0h0c0.2,0,0.4-0.1,0.5-0.3h-0.2c0,0.1-0.1,0.1-0.2,0.1h-1v0.2h0.7
		c0,0.1-0.1,0.2-0.2,0.2h-0.9v0.2h0.9c0.1,0,0.2,0,0.2-0.1c0.1,0.3,0.2,0.6,0.2,1h-5.3c0-0.3,0.1-0.6,0.2-1c0.1,0,0.1,0,0.2,0h0.9
		v-0.2H283c-0.1,0-0.1,0-0.2-0.1l0,0c0,0,0,0,0,0c0,0,0-0.1,0-0.1h0.7v-0.2h-1c-0.1,0-0.2,0-0.2-0.1H282c0.1,0.2,0.2,0.3,0.5,0.3h0
		c0,0,0,0,0,0v0c0,0,0,0,0,0c0,0,0,0.1,0.1,0.1c0,0,0,0,0,0.1l-1.9,1c-0.1,0-0.2-0.1-0.3-0.1c0.2-0.2,0.3-0.5,0.4-0.8v0l1.2-0.8
		h-0.4l-1,0.7l0,0c-0.1,0-0.1,0-0.2,0c0,0,0,0-0.1,0c0.2-0.2,0.3-0.4,0.3-0.7h-0.2c0,0.3-0.1,0.5-0.4,0.7c-0.2,0.1-0.3,0.2-0.5,0.2
		c0,0,0-0.1,0-0.1c0-0.2,0-0.3,0.2-0.5c0-0.1,0.1-0.1,0.2-0.2c0,0,0.1-0.1,0.1-0.1c0,0,0,0,0.1,0h-0.4c0,0-0.1,0-0.1,0c0,0,0,0,0,0
		h-0.3c0,0,0,0,0,0c0,0-0.1,0-0.1,0h-0.4c0,0,0,0,0,0c0.1,0,0.1,0.1,0.2,0.1c0,0,0.1,0.1,0.1,0.1c0.1,0.2,0.2,0.3,0.2,0.5
		c0,0,0,0.1,0,0.1c-0.2,0-0.3-0.1-0.5-0.2c-0.2-0.2-0.4-0.4-0.4-0.7H278c0,0.3,0.1,0.5,0.3,0.7c0,0,0,0-0.1,0c-0.1,0-0.2,0-0.3,0
		l0,0l-1-0.7L276.5,49.4L276.5,49.4z M274.3,49.4l0.7,0.4v0.1c0,0.2,0,0.3,0,0.5h0c0,0.2,0.1,0.4,0.2,0.5c0,0.1,0.1,0.1,0.1,0.2
		c0.1,0.1,0.1,0.2,0.2,0.4c0.1,0.1,0.2,0.2,0.3,0.3c0.1,0.1,0.2,0.1,0.3,0.2h0c0.1,0.1,0.2,0.2,0.4,0.2c0.2,0.1,0.3,0.2,0.4,0.3
		c0.1,0.1,0.2,0.1,0.4,0.2c0.1,0,0.2,0.1,0.4,0.1c0.1,0,0.2,0.1,0.4,0.1c0.1,0,0.2,0,0.3,0.1l0,0l0.3,0.1c0.1,0.1,0.2,0.2,0.2,0.2
		v0.3v0c0,0,0,0,0,0.1l0.2,0v0v0v0v-0.3c0-0.1-0.1-0.3-0.3-0.4h0l-0.3-0.1h0h0c-0.1,0-0.2,0-0.3-0.1c-0.1,0-0.2-0.1-0.4-0.1
		c-0.1,0-0.2-0.1-0.4-0.1c-0.1-0.1-0.2-0.1-0.4-0.2c-0.2-0.1-0.2-0.1-0.4-0.2c-0.1-0.1-0.2-0.1-0.3-0.2c-0.1-0.1-0.2-0.1-0.3-0.2
		c-0.1-0.1-0.2-0.2-0.3-0.3c-0.1-0.1-0.1-0.2-0.2-0.4c0-0.1-0.1-0.1-0.1-0.2c-0.1-0.2-0.1-0.3-0.2-0.5l0,0c0-0.2,0-0.3,0-0.4v0
		c0-0.1,0-0.1,0-0.2c0-0.1,0-0.2,0-0.3H275c0,0,0,0.1,0,0.1l-0.3-0.1L274.3,49.4L274.3,49.4z M272.1,49.4c0.4,1.5,1,3,1.7,4.4h0.5
		c-0.8-1.4-1.4-2.8-1.8-4.4L272.1,49.4z M266.8,49.4l0,0.1c0,0.2,0,0.4,0.1,0.5c0,0.1,0,0.2,0,0.2c0,0,0,0,0.1,0c0,0,0.5,0,0.6,0
		c0,0,0.1,0,0.1-0.1l-0.1,0c0,0-0.1,0-0.2,0c-0.1-0.1-0.2-0.2-0.2-0.5l-0.1-0.3H266.8z M265,49.4c0.3,1.5,0.7,3,1.2,4.4l0.5,0
		c-0.5-1.4-1-2.9-1.2-4.4L265,49.4z"/>
	<path class="st0" d="M279.1,48v0.6c-0.1-0.3-0.4-0.5-0.8-0.6l-0.1-0.3l0.2-0.1l0.5-0.1l0.5,0l0.5,0l0.3,0l-0.2,0.5
		c-0.3,0.1-0.5,0.3-0.7,0.5V48L279.1,48L279.1,48z M278.3,49.1c0,0-0.1,0-0.1,0h-0.1l-0.8-0.8l0.3-0.3l0.3-0.2l0.1,0l0.2,0.4
		c0,0.1-0.1,0.2-0.1,0.3C278.2,48.7,278.2,48.9,278.3,49.1 M316.3,47.7c-0.1,0.8-0.9,1.3-2,1.2c-1.4-0.2-1.5-1-1.4-1.4
		c0.1-0.9,1-1.4,2-1.2C316.1,46.4,316.4,47.1,316.3,47.7 M315.6,49.4c0.5-0.3,0.8-0.8,0.9-1.5c0.2-1.5-0.8-2.2-1.6-2.3
		c-0.9-0.1-2,0.3-2.2,1.7c-0.1,1,0.3,1.8,1.1,2.1H315.6z M294.2,49.4L294.2,49.4L294.2,49.4h0.2l-0.2-0.4h4.9l0,0.4h0.2l0-0.6h-5.5
		l0,0c-0.2,0-0.4-0.2-0.4-0.5v0c0-0.2,0.2-0.5,0.4-0.5h0.1c0.1,0,0.3,0.1,0.4,0.1c0.1,0.1,0.2,0.2,0.1,0.4v0v0.1h0.1
		c0.4,0,0.7,0,1,0c0.6,0,1.2-0.1,2-0.2c0.4-0.1,0.7-0.1,1.1-0.3c0.4-0.2,0.6-0.3,0.9-0.5l0.1-0.1l-0.1-0.1c-0.1-0.2-0.2-0.3-0.2-0.5
		c0-0.1,0-0.2,0.1-0.4c0.1-0.2,0.2-0.3,0.3-0.3c0.1-0.1,0.2-0.1,0.5-0.1c0.2,0,0.3,0.1,0.5,0.1c0.1,0.1,0.2,0.2,0.3,0.3
		c0.1,0.1,0.1,0.2,0.1,0.4c0,0.2-0.1,0.3-0.2,0.5l-0.1,0.1l0.1,0.1c0.3,0.2,0.5,0.4,0.9,0.5c0.4,0.2,0.7,0.2,1.2,0.3
		c0.8,0.2,1.4,0.2,2,0.2c0.3,0,0.7,0,1,0h0.1l0-0.1v0c0-0.1,0.1-0.3,0.1-0.4c0.1-0.1,0.2-0.1,0.4-0.1h0.1c0.2,0,0.4,0.3,0.4,0.5v0
		c0,0.2-0.2,0.4-0.4,0.5l0,0h-5.5l0,0.6h0.2l0-0.4h4.8l-0.2,0.4h0.2l0,0v0h0.2l-0.2-0.4h0.3c0.3,0,0.6-0.3,0.6-0.7v-0.1
		c0-0.4-0.2-0.7-0.6-0.7l0,0l-0.1,0c-0.4,0-0.7,0.3-0.7,0.7c-0.3,0-0.6,0-0.9,0c-0.6,0-1.2-0.1-2-0.2c-0.5-0.1-0.7-0.1-1.1-0.3
		c-0.3-0.1-0.5-0.2-0.8-0.5c0.1-0.2,0.2-0.4,0.2-0.5c0-0.1,0-0.3-0.1-0.5c-0.1-0.2-0.2-0.3-0.3-0.4c-0.1-0.1-0.3-0.1-0.5-0.2h0h0
		c-0.2,0-0.4,0.1-0.5,0.2c-0.1,0.1-0.3,0.2-0.4,0.4c-0.1,0.2-0.1,0.3-0.1,0.5c0,0.2,0.1,0.4,0.2,0.5c-0.3,0.2-0.4,0.3-0.8,0.5
		c-0.4,0.2-0.6,0.2-1.1,0.3c-0.8,0.2-1.3,0.2-2,0.2c-0.3,0-0.6,0-0.9,0c0-0.4-0.4-0.7-0.7-0.7l-0.1,0l0,0l0,0
		c-0.4,0.1-0.6,0.4-0.6,0.7v0.1c0,0.3,0.3,0.6,0.6,0.7h0.2l-0.2,0.4H294.2z M281.9,49.4l0.1-0.1c0,0,0,0,0,0.1h0.2c0,0,0-0.1,0-0.1
		h1.2V49H282c-0.1,0-0.2-0.1-0.2-0.2h0.6h0.4h0.9c0.1,0,0.1,0.1,0.1,0.2v0.4h0.2V49c0-0.1,0-0.2-0.1-0.3c0.4-0.2,0.9-0.4,1.4-0.4
		c0.5,0,1,0.1,1.4,0.4c-0.1,0.1-0.1,0.2-0.1,0.3v0.4h0.2V49c0-0.1,0-0.1,0.1-0.2l1.9,0c0,0.1-0.1,0.2-0.3,0.2h-1.4v0.2h1.2
		c0,0,0,0.1,0,0.1h0.2c0,0,0-0.1,0-0.1c0.3,0,0.5-0.2,0.5-0.5v0v-0.1l0-0.1l0,0v0h-2.1c0,0,0,0,0,0c-0.4-0.3-1-0.5-1.6-0.5
		c-0.6,0-1.2,0.2-1.6,0.5c0,0,0,0,0,0h-0.5l1.2-0.8l-0.1-0.2l-1.5,1h-1.2v0l0,0l0,0.2l0,0c0,0.2,0.1,0.3,0.2,0.4l-0.3,0.2
		L281.9,49.4L281.9,49.4z M275.3,49.4c0,0,0-0.1,0-0.1c0-0.2,0.1-0.3,0.2-0.5c0,0,0,0,0-0.1c0-0.1,0.1-0.1,0.1-0.2
		c0-0.1,0.1-0.1,0.1-0.2c0.1-0.1,0.1-0.2,0.3-0.3c0.1-0.1,0.2-0.2,0.4-0.3c0,0,0,0,0,0c0.1,0,0.1-0.1,0.2-0.1c0.1,0,0.1-0.1,0.2-0.1
		h0c0.2-0.1,0.3-0.2,0.5-0.2c0.1,0,0.2-0.1,0.3-0.1c0.1,0,0.1,0,0.2,0c0,0,0,0,0,0c0.2,0,0.3-0.1,0.5-0.1c0.1,0,0.2,0,0.3,0
		c0.1,0,0.1,0,0.2,0c0.3,0,0.4,0,0.6,0.1c0.2,0,0.3,0.1,0.5,0.2c0.1,0.1,0.2,0.1,0.3,0.1c0,0,0.1,0.1,0.2,0.1c0,0,0,0,0,0
		c-0.1,0-0.1,0-0.2,0h0c-1.5-0.3-3.6,0.3-3.9,2v0c0,0,0,0,0,0h0.5l-0.2-0.1l0.1-0.3l0.2-0.3l0.2-0.2l0.8,0.9l0,0v0v0h0.2v0v0h0
		c0.1,0,0.2,0,0.3,0.1h0.4c0,0,0,0-0.1,0c-0.1-0.1-0.1-0.1-0.2-0.1c0,0-0.1-0.1-0.1-0.1c-0.2-0.2-0.2-0.4-0.2-0.6c0-0.1,0-0.1,0-0.2
		c0.3,0.1,0.5,0.3,0.6,0.5c0.1,0.2,0.1,0.3,0.1,0.5c0,0,0,0.1,0,0.1h0.3c0,0,0-0.1,0-0.1c0-0.1,0-0.3,0.1-0.5
		c0.1-0.3,0.3-0.4,0.6-0.5c0,0.1,0,0.2,0,0.2c0,0.2-0.1,0.4-0.2,0.6c0,0.1-0.1,0.1-0.1,0.1c0,0-0.1,0-0.1,0.1c0,0-0.1,0-0.1,0h0.4
		c0.1,0,0.2-0.1,0.3-0.1h0v0v0h0.2v0l0-0.1l0,0l2.6-2.8l-0.1-0.1l-2.6,2.8l0,0h-0.1c0,0-0.1,0-0.1,0c0.1-0.2,0.2-0.4,0.2-0.6
		c0-0.1,0-0.3-0.1-0.4l0.2-0.5c0.1,0,0.1,0,0.2,0.1c0.2,0.1,0.3,0.1,0.4,0.3l0.2-0.1l-0.3-0.4l0,0h0c-0.1-0.1-0.2-0.2-0.3-0.2h0
		l0.7-1.6l-0.2-0.1l-0.7,1.5c-0.1,0-0.2-0.1-0.3-0.1c-0.2-0.1-0.4-0.1-0.6-0.2c-0.3-0.1-0.4-0.1-0.7-0.1c-0.1,0-0.2,0-0.2,0
		c-0.1,0-0.2,0-0.3,0c-0.2,0-0.3,0-0.5,0.1c0,0,0,0-0.1,0l-0.6-1.2l-0.2,0.1l0.6,1.2c-0.1,0-0.2,0-0.3,0.1c-0.2,0.1-0.3,0.1-0.5,0.3
		c-0.1,0.1-0.2,0.1-0.3,0.2l-1-1.1l-0.2,0.1l1,1.1c0,0,0,0,0,0c-0.1,0.1-0.2,0.2-0.4,0.3c-0.1,0.1-0.2,0.2-0.3,0.3
		c-0.1,0.1-0.1,0.1-0.2,0.2l-1.2-0.9l-0.1,0.2l1.3,0.9c0,0,0,0.1,0,0.1c-0.1,0.2-0.1,0.4-0.2,0.6c0,0.1,0,0.1,0,0.2L275.3,49.4z
		 M274.8,49.4l-1.2-0.7l-0.1,0.2l0.9,0.5H274.8z M267,49.4L267,49l2-0.4c0.4-0.1,0.8-0.1,1-0.2c0.1,0,0.3,0,0.3,0.1c0,0,0,0.1,0,0.2
		c0,0.1,0,0.1,0,0.1c0,0,0,0,0-0.1c0-0.2-0.1-0.5-0.1-0.6c0-0.1-0.1-0.4-0.1-0.8c0,0,0-0.1-0.1-0.1c0,0,0,0,0,0.1c0,0.1,0,0.2,0,0.3
		c0,0.1-0.1,0.2-0.2,0.2c-0.2,0.1-0.6,0.1-1,0.2l-2,0.4l-0.1-0.6c-0.1-0.4,0-0.6,0.2-0.6l0.1,0c0.1,0,0.1,0,0.1-0.1c0,0,0,0-0.1,0
		c-0.1,0-0.5,0.1-0.6,0.1c-0.1,0-0.1,0-0.1,0c0,0,0.1,0.1,0.1,0.5l0.3,1.8L267,49.4L267,49.4z M318.1,45c0,1.5-0.2,3-0.5,4.4h0.5
		c0.3-1.4,0.4-2.9,0.5-4.4H318.1z M316,45C316,45,316,45,316,45c0.2,0,0.5,0,0.6,0c0,0,0.1,0,0.1,0L316,45z M311.1,45
		c0.1,0.1,0.1,0.3,0.1,0.5c-0.1,1.3-0.3,2.6-0.6,3.9h0.4c0.4-1.4,0.6-2.9,0.6-4.4H311.1z M291.2,45c0.1,0.1,0.1,0.3,0.1,0.5v3.9h0.4
		v-3.9c0-0.2,0-0.3,0.1-0.5H291.2z M271.5,45c0,1.5,0.3,3,0.6,4.4h0.4c-0.3-1.2-0.5-2.6-0.6-3.9c0-0.2,0-0.3,0.1-0.5H271.5z
		 M266.3,45c0,0.1,0,0.2,0,0.3c0,0.1,0,0.5,0,0.6c0,0.1,0,0.1,0,0.1c0,0,0,0,0-0.1c0-0.1,0-0.1,0-0.2c0-0.1,0.1-0.2,0.3-0.2
		c0.2,0,0.3,0,1,0l0.9,0c0.5,0,0.9,0,1.1,0c0.1,0,0.2,0,0.2,0.1c0,0,0,0.1,0,0.2c0,0,0,0.1,0,0.1c0,0,0,0,0-0.1c0-0.2,0-0.5,0-0.6
		c0,0,0-0.1,0-0.2h-2.6c-0.5,0-0.6,0-0.8,0c-0.1,0-0.1,0-0.2,0H266.3z M264.6,45c0,1.5,0.2,3,0.5,4.4h0.5c-0.3-1.4-0.4-2.9-0.5-4.4
		H264.6z"/>
	<path class="st0" d="M281.5,42.3c0.1,0.1,0.2,0.3,0.3,0.5h-3c0-0.2,0.1-0.4,0.3-0.5l0,0l0.6-0.5h0c0.1-0.1,0.1-0.2,0.1-0.3
		c0-0.1,0-0.1,0.1-0.1c0.1-0.1,0.1-0.1,0.3-0.1v0l0.4-0.1l0,0c0,0,0,0,0.1,0v0.3c0,0.1,0.1,0.3,0.2,0.4L281.5,42.3z M305.5,42.8
		h-0.3v-2l0.3,0.5V42.8z M295.3,42.8H295v-1.6l0.3-0.5V42.8z M266.3,43.5C266.3,43.5,266.3,43.5,266.3,43.5c0-0.1,0.1-0.2,0.1-0.3
		c0-0.2,0.1-0.2,0.3-0.2c0.2,0,0.3,0,1,0.1l0.9,0.1c0.5,0,0.8,0.1,1,0.1c0.1,0,0.2,0.1,0.3,0.2c0,0,0,0.1,0,0.2c0,0,0,0.1,0,0.1
		c0,0,0,0,0.1-0.1c0-0.2,0-0.5,0-0.6s0-0.4,0.1-0.8c0-0.1,0-0.1,0-0.1s0,0,0,0.1c0,0.1,0,0.2,0,0.2c0,0.1-0.1,0.2-0.3,0.2
		c-0.2,0-0.6,0-1,0l-0.4,0l0,0c0-0.1,0-0.6,0.1-0.7c0-0.1,0.1-0.2,0.2-0.2c0.1,0,0.1,0,0.1,0l0.1,0c0,0,0,0-0.1-0.1c0,0-0.3,0-0.4,0
		c-0.1,0-0.3,0-0.3-0.1l0,0l0,0.1c0.1,0.1,0.1,0.1,0.1,0.2c0,0.1,0,0.1,0,0.2l0,0.6l0,0l-1.2-0.1c0,0-0.1,0-0.1,0l0.1-0.8
		c0-0.2,0.1-0.3,0.2-0.3c0.1,0,0.1,0,0.2,0c0,0,0.1,0,0.1,0l-0.1,0c-0.1,0-0.4,0-0.4-0.1c-0.1,0-0.2,0-0.2,0l0,0l0,0.1
		c0,0,0,0.1,0,0.2c0,0.1-0.1,1.1-0.1,1.3C266.3,42.9,266.3,43.2,266.3,43.5C266.2,43.5,266.3,43.5,266.3,43.5 M316.7,45
		C316.7,45,316.7,45,316.7,45c0-0.1,0-0.2,0-0.5l0-2c0-0.2,0-0.3,0-0.5c0-0.1,0-0.2,0-0.2c0,0,0,0-0.1,0c0,0-0.5-0.1-0.6-0.1
		c0,0-0.1,0-0.1,0l0.1,0.1c0,0,0.1,0,0.2,0.1c0.1,0.1,0.1,0.2,0.1,0.5l0,0.7l-2,0c-0.5,0-0.8,0-1,0c-0.1,0-0.2,0-0.3-0.1
		c0,0,0-0.1,0-0.2c0-0.1,0-0.1,0-0.1c0,0,0,0,0,0.1c0,0.2,0,0.5,0,0.6c0,0.1,0,0.4,0,0.8c0,0.1,0,0.1,0,0.1c0,0,0,0,0-0.1
		c0-0.1,0-0.2,0-0.2c0-0.1,0.1-0.2,0.3-0.2c0.2,0,0.6,0,1,0l2,0v0.6c0,0.4-0.1,0.6-0.3,0.6l0,0c-0.1,0-0.1,0-0.1,0.1c0,0,0,0,0,0
		L316.7,45z M270,45c0-0.1,0-0.3,0-0.5c0,0,0-0.1,0-0.1s0,0,0,0.1c0,0.1,0,0.2,0,0.2c0,0.1-0.1,0.2-0.2,0.2c-0.2,0-0.6,0-1.1,0.1
		l-0.9,0c-0.1,0-0.2,0-0.3,0H270z M266.5,45c-0.1,0-0.1-0.1-0.1-0.1c0-0.1,0-0.1,0-0.1s0-0.1-0.1-0.1c0,0,0,0,0,0.1
		c0,0.1,0,0.2,0,0.3H266.5z M317.9,40.6c0.2,1.2,0.2,2.4,0.2,3.7c0,0.2,0,0.5,0,0.7h0.4c0-0.2,0-0.5,0-0.7c0-1.2-0.1-2.5-0.2-3.7
		H317.9z M313.6,40.6l-0.7,0.4c-0.1,0-0.1,0-0.1,0l0-0.1c0,0,0,0.1,0,0.1c0.1,0.4,0.1,0.8,0.2,0.9c0,0.2,0,0.2,0.1,0.2l0-0.1
		c0-0.1,0-0.1,0-0.2c0-0.1,0-0.3,0.5-0.5c0.3-0.2,0.8-0.5,1.4-0.9L313.6,40.6z M294.6,40.6l-1,2.4l0.2,0.1l1-1.5V43h11v0v-1.3
		l0.8,1.4l0.2-0.1l-1-2.5h-0.2l0.1,0.1l0.1,0.3l0,0l0.3,0.7l-0.3-0.5l0,0l-0.2-0.4l0,0l-0.2-0.3H305v2.2h-0.8v-2.2H304v2.2h-0.2
		v-2.2h-0.2v2.2h-0.8v-2.2h-0.2v2.2h-0.3v-2.2h-0.2v2.2h-0.8v-2.2h-0.2v2.2h-0.2v-2.2h-0.2v2.2h-0.8v-2.2h-0.2v2.2h-0.2v-2.2h-0.2
		v2.2h-0.8v-2.2h-0.2v2.2h-0.3v-2.2h-0.2v2.2h-0.8v-2.2h-0.2v2.2h-0.2v-2.2h-0.2v2.2h-0.8v-2.2h-0.4l-0.1,0.2l-0.1,0.2l-0.1,0.2
		l-0.4,0.6l0.4-0.9l0.1-0.2L294.6,40.6L294.6,40.6z M285,40.6V43h0.3h1.6h0.1v-2.4h-0.2v2.2c-1.2,0-1.3,0-1.5,0h0v-2.2H285z
		 M279.1,40.6L279.1,40.6l0,0.1l0.1,0.2l0,0.1c0,0.1,0,0.2,0.1,0.3l0,0l0.2,0.3c0,0,0,0.1-0.1,0.1l0,0l-0.6,0.5
		c-0.2,0.2-0.4,0.4-0.4,0.8V43l3.4,0v-0.1c0-0.3-0.1-0.6-0.4-0.8l0,0l-0.6-0.5c0,0-0.1-0.1-0.1-0.2v-0.4c0,0,0.1,0,0.1-0.1
		c0.1-0.1,0.2-0.2,0.2-0.3H281c0,0.1,0,0.1-0.1,0.1c0,0,0,0,0,0c0,0,0,0-0.1,0c0,0,0,0,0,0c0,0,0,0-0.1,0c0,0-0.1,0-0.1,0l0,0
		l-0.4,0.1c-0.1,0-0.2,0.1-0.3,0.1c0,0,0,0,0,0c0,0,0,0-0.1,0.1c0,0,0,0,0,0l-0.1-0.1l0,0c0-0.1,0-0.1,0-0.2l0-0.1c0,0,0,0,0,0
		l0-0.1l0,0l0,0l0.1,0l0,0l0.1,0h-0.4c0,0,0,0,0,0l0,0v0L279.1,40.6L279.1,40.6z M271.8,40.6c-0.2,1.2-0.3,2.4-0.3,3.7
		c0,0.2,0,0.5,0,0.7h0.6c0.2-0.3,0.5-0.5,0.8-0.5h17.6c0.3,0,0.6,0.2,0.8,0.5h0.7c0.2-0.3,0.5-0.5,0.8-0.5h17.6
		c0.3,0,0.6,0.2,0.8,0.5h0.6c0-0.2,0-0.5,0-0.7c0-1.2-0.1-2.5-0.3-3.7h-0.4c0.2,0.8,0.3,1.7,0.3,2.5c0,0.5-0.4,1-0.9,1h-17.6
		c-0.5,0-1-0.4-1-0.9v-2.5h-0.4v2.5c0,0.5-0.5,0.9-0.9,0.9h-17.6c-0.5,0-0.9-0.5-0.9-1c0-0.9,0.1-1.7,0.3-2.5L271.8,40.6z
		 M270.2,40.6C270.2,40.6,270.2,40.6,270.2,40.6C270.2,40.6,270.2,40.6,270.2,40.6L270.2,40.6z M264.8,40.6
		c-0.2,1.2-0.2,2.4-0.2,3.7c0,0.2,0,0.5,0,0.7h0.4c0-0.2,0-0.5,0-0.7c0-1.2,0.1-2.5,0.2-3.7L264.8,40.6z"/>
	<path class="st0" d="M277.6,35.6l5.3,0c0,0.6,0,0.7-0.2,1.2c-0.1,0.2-0.2,0.4-0.4,0.5c-0.2,0.1-0.4,0.2-0.6,0.5
		c-0.3,0.2-0.5,0.3-0.7,0.6c-0.2,0.2-0.2,0.4-0.2,0.6v0v0l0,0.1c0,0.1-0.1,0.1-0.1,0.2l0,0c-0.1,0.1-0.1,0.1-0.2,0.1v0l-0.3,0.1
		l-0.2,0.1h0v-0.6v0c0,0,0-0.1,0-0.1c0-0.1,0-0.1,0-0.2c0,0,0-0.1-0.1-0.2c0,0,0,0-0.1-0.1c-0.2-0.3-0.4-0.4-0.7-0.6
		c-0.3-0.2-0.5-0.3-0.6-0.5s-0.3-0.3-0.4-0.5C277.6,36.4,277.6,36.2,277.6,35.6L277.6,35.6z M277.9,38.9c-0.8-0.3-1.7-0.9-2.1-1.9
		c-0.1-0.3-0.1-0.5-0.1-0.7c0-0.1,0-0.1,0-0.2c0-0.2,0-0.4,0.1-0.6c0.1-0.4,0.2-0.5,0.2-0.7c0.1-0.1,0.2-0.3,0.4-0.5
		c0.1-0.2,0.2-0.2,0.5-0.5c0.1-0.1,0.4-0.2,0.8-0.3c0.1,0,0.2,0,0.4,0c0.4,0,0.9,0.1,1.4,0.1c0.2,0,0.4-0.1,0.6-0.1
		c0.1,0,0.2,0,0.3,0c0.1,0,0.2,0.1,0.3,0.1c0.1,0,0.2,0.1,0.2,0.1c0.1,0.1,0.1,0.1,0.2,0.2c0,0,0.1,0.1,0.2,0.3c0,0,0,0,0,0l0,0.1
		l0,0c0,0,0,0,0,0c-0.2,0.2-0.4,0.2-0.6,0.3c-0.1,0-0.3,0-0.5,0l-0.1,0h0c-0.2,0-0.4-0.1-0.9-0.4l-0.1,0c0,0-0.1,0-0.2-0.1l0,0h0
		c-0.1,0-0.2,0-0.4,0c-0.1,0-0.2,0-0.2,0v0c-0.3,0.1-0.7,0.1-1,0.4c-0.2,0.1-0.2,0.2-0.3,0.3c0,0.1-0.1,0.1-0.1,0.3l0,0v0
		c0,0,0,0.2-0.1,0.4c0,0.2-0.1,0.4-0.1,0.6c0,0.3,0,0.5,0.2,0.9c0.1,0.3,0.3,0.5,0.5,0.7s0.5,0.3,0.8,0.5v0h0c0.8,0.3,1,0.4,1,0.4
		l0.4,0.1v0l0.1,0.2c0,0,0,0,0,0.1v0.5C278.8,39.3,278.7,39.2,277.9,38.9 M280.3,34.1c0.1,0,0.2,0,0.2-0.1c0-0.1-0.1-0.1-0.2-0.1
		c-0.1,0-0.2,0-0.2,0.1C280.1,34.1,280.2,34.1,280.3,34.1 M293.2,35.3c0,0,0.1-0.1,0.1-0.1l0,0c0.4-0.3,0.6-0.4,1.1-0.5h2.7
		l-0.9,2.1c0-0.3-0.1-0.5-0.3-0.7c-0.2-0.2-0.4-0.4-0.8-0.4c-0.1,0-0.1,0-0.2,0c-0.4,0-0.9,0.3-0.9,0.7v0.1c0,0.3,0.2,0.6,0.5,0.8
		l0.1-0.2c-0.2-0.1-0.4-0.3-0.4-0.5v-0.1c0-0.3,0.3-0.5,0.7-0.5c0,0,0.1,0,0.1,0c0.3,0,0.5,0.2,0.6,0.4c0.1,0.2,0.2,0.4,0.2,0.6
		l0,0.1c0,0.8-0.6,1.2-1.4,1.3h0h0l-0.1,0c-0.8,0-1.5-0.7-1.7-1.6c0-0.1,0-0.2,0-0.3C292.8,36,292.9,35.6,293.2,35.3 M294.2,33.8
		h3.4l-0.3,0.7h-2.6L294.2,33.8z M295,39.8v-1.3c0.3-0.1,0.5-0.2,0.7-0.3L295,39.8z M300.4,28.6c0.8,0,1.5,0.7,1.5,1.5
		c0,0.3-0.1,0.5-0.2,0.8c-0.1,0.1-0.1,0.2-0.2,0.3c-0.1,0.1-0.2,0.2-0.3,0.2c0,0,0,0-0.1,0c-0.1,0-0.1,0-0.1,0.1l0,0l0,0l0,0
		c-0.1,0-0.2,0-0.5,0c-0.1,0-0.2,0-0.2,0c-0.7-0.1-1.2-0.7-1.2-1.5C298.9,29.3,299.6,28.6,300.4,28.6 M305.9,33.8l-0.5,0.7h-2
		l-0.3-0.7H305.9z M305.5,38.5v1.4l-0.7-1.7C305,38.3,305.3,38.4,305.5,38.5 M306.1,34.7c0.5,0,0.8,0.1,1.1,0.5
		c0.4,0.4,0.6,0.8,0.6,1.2c0,0.1,0,0.2,0,0.3c-0.1,0.9-0.9,1.6-1.6,1.6c0,0,0,0,0,0l-0.1,0h-0.1c-0.7-0.1-1.3-0.6-1.4-1.3v-0.1
		c0-0.3,0.1-0.5,0.2-0.6c0.1-0.2,0.4-0.3,0.7-0.4c0,0,0.1,0,0.1,0c0.3,0,0.6,0.2,0.7,0.5v0.1c0,0.3-0.1,0.4-0.4,0.5l0.1,0.2
		c0.3-0.1,0.5-0.4,0.5-0.8v-0.1c0-0.5-0.5-0.7-0.9-0.7c-0.1,0-0.1,0-0.2,0c-0.3,0.1-0.6,0.2-0.8,0.4c-0.1,0.2-0.2,0.4-0.2,0.6
		l-0.8-2.1L306.1,34.7L306.1,34.7z M301.7,34.7l1.3,2.2h-5.3l1.4-2.2H301.7z M299.8,33.6l0.7-1.1l0.6,1.1H299.8z M301.2,33.8
		l0.4,0.7h-2.4l0.4-0.7H301.2z M300.4,29.1c0.6,0,1,0.5,1,1c0,0.6-0.5,1-1,1s-1-0.5-1-1C299.4,29.5,299.8,29.1,300.4,29.1
		 M300.4,31.4c0.7,0,1.3-0.6,1.3-1.3c0-0.7-0.6-1.3-1.3-1.3c-0.7,0-1.3,0.6-1.3,1.3S299.7,31.4,300.4,31.4 M314,39.4l1.3,0.2l0,0
		l0,0l-1.1,0.6l0,0L314,39.4L314,39.4z M311.5,35.4c-0.2,0.6-0.1,1.1,0.1,1.8c0.1,0.3,0.3,0.6,0.4,0.8c0.1,0.1,0.1,0.1,0.2,0.1
		c0.2,0,0.6-0.1,0.6-0.1l0-0.1c0,0,0,0-0.1,0c-0.1,0-0.2,0-0.4,0c-0.3-0.1-0.4-0.3-0.6-0.7c-0.2-0.6,0-1.6,1-2.1
		c0.4-0.2,0.9-0.3,1.4-0.1c0.3,0.1,0.5,0.3,0.6,0.7c0.2,0.4,0.2,0.8,0.1,1c-0.1,0.2-0.2,0.3-0.4,0.3c-0.1,0-0.1,0-0.1,0.1
		c0,0,0.1,0,0.1,0c0.1,0,0.4-0.1,0.5-0.2c0.2-0.1,0.2-0.1,0.3-0.1s0,0,0-0.1c0-0.1-0.1-0.3-0.1-0.5c-0.1-0.2-0.1-0.4-0.2-0.7
		c-0.3-0.7-0.6-1-1.1-1.2c-0.6-0.3-1.1-0.1-1.5,0C312.2,34.5,311.7,34.8,311.5,35.4 M308.4,30.7c0-0.1,0.2-0.2,0.3-0.3
		c0.1-0.1,0.4-0.3,0.8-0.6l0.5-0.4c0.3-0.2,0.6-0.5,0.8-0.6l0.1,0c0,0,0.2,0.1,0.2,0.2c0.2,0.3,0.5,0.8,0.5,1.4
		c0,0.3-0.2,0.8-0.6,1.1c-0.4,0.3-0.8,0.5-1.2,0.5c-0.4-0.1-0.7-0.3-1-0.7C308.4,31,308.4,30.8,308.4,30.7 M307.7,30.2
		c0,0-0.1-0.1-0.1-0.1l-0.1,0c0,0,0,0.1,0,0.1c0.1,0.1,0.3,0.4,0.4,0.5c0.1,0.2,0.4,0.6,0.6,0.9c0.6,0.7,1.2,0.9,1.5,0.9
		c0.4,0,0.9,0,1.4-0.5c0.5-0.4,0.6-0.8,0.7-1.1c0.1-0.8-0.4-1.4-0.8-1.9c-0.2-0.2-0.4-0.5-0.5-0.6c-0.1-0.1-0.3-0.4-0.4-0.6
		c0-0.1-0.1-0.1-0.1,0l0,0.1c0,0,0.1,0.1,0.1,0.2c0.1,0.1,0,0.2-0.1,0.3s-0.2,0.2-0.8,0.7l-0.7,0.5c-0.4,0.3-0.6,0.5-0.8,0.6
		C307.8,30.2,307.7,30.3,307.7,30.2 M271.8,30.3l1.2,0.4l0,0l-0.5,0.7h0L271.8,30.3L271.8,30.3L271.8,30.3z M272.9,32.6
		c0.1,0.2,0.2,0.4,0.1,0.6l-0.1,0.1l0,0.1c0,0,0.1,0,0.1,0c0.1-0.2,0.3-0.4,0.3-0.5c0.1-0.1,0.2-0.3,0.3-0.4l0-0.1l-0.1,0l0,0.1
		c-0.1,0.1-0.2,0.1-0.2,0.1c0,0-0.1-0.1-0.2-0.2l-0.4-0.6v-0.1l0.6-0.9l0,0l1.1,0.3c0.1,0,0.1,0.1,0.1,0.1l0,0.1c0,0,0.1,0,0.1-0.1
		c0.2-0.3,0.5-0.6,0.6-0.8s0.1-0.2,0.1-0.2l-0.1,0c0,0-0.1,0.1-0.1,0.1c-0.1,0.1-0.2,0.1-0.7,0c-0.8-0.2-2.9-0.7-3.2-0.8
		c-0.1,0-0.2,0-0.2,0s0,0.1,0.1,0.2L272.9,32.6z M269,33L269,33c0.1-0.1,0.1-0.1,0.2-0.2c0.1-0.1,0.2-0.1,0.3,0
		c0.1,0.1,0.3,0.1,0.9,0.5l0.8,0.4c0.4,0.2,0.8,0.4,0.9,0.6c0.1,0.1,0.2,0.1,0.1,0.2c0,0,0,0.1-0.1,0.2c0,0,0,0.1,0,0.1
		c0,0,0.1,0,0.1-0.1c0.1-0.2,0.2-0.5,0.3-0.5c0.1-0.1,0.2-0.4,0.4-0.7v-0.1l-0.1,0c0,0.1-0.1,0.1-0.1,0.2c-0.1,0.1-0.2,0.1-0.3,0
		c-0.2-0.1-0.5-0.3-0.9-0.5l-0.8-0.4c-0.6-0.4-0.8-0.4-0.9-0.5c-0.1-0.1-0.2-0.2-0.1-0.3c0,0,0-0.1,0.1-0.1v-0.1c0,0-0.1,0-0.1,0.1
		c-0.1,0.2-0.2,0.4-0.3,0.5c-0.1,0.1-0.2,0.4-0.3,0.5C269,32.9,269,33,269,33 M268.9,37.9c0.4,0.2,1,0.3,1.6,0
		c0.5-0.3,0.9-0.7,1.1-1.4c0.1-0.3,0.2-0.6,0.2-0.9c0-0.1,0-0.1-0.1-0.2c-0.1-0.1-0.5-0.3-0.6-0.4l-0.1,0c0,0,0,0,0.1,0.1
		c0.1,0,0.2,0.2,0.2,0.3c0.1,0.3,0.1,0.5-0.1,0.9c-0.2,0.6-1.1,1.2-2.2,0.8c-0.4-0.2-0.8-0.4-1-0.9c-0.1-0.3-0.1-0.6,0.1-1
		c0.2-0.4,0.4-0.7,0.7-0.8c0.2-0.1,0.4,0,0.5,0c0.1,0,0.1,0,0.1,0c0,0,0-0.1-0.1-0.1c-0.1,0-0.4-0.1-0.5-0.2
		c-0.1-0.1-0.2-0.1-0.2-0.1l-0.1,0c-0.1,0.1-0.2,0.3-0.3,0.4c-0.1,0.2-0.2,0.4-0.3,0.6c-0.3,0.7-0.3,1.2-0.1,1.6
		C268.1,37.4,268.6,37.7,268.9,37.9 M314.8,40.6c0.6-0.4,1.3-0.8,1.4-0.9c0.1-0.1,0.1-0.1,0.1-0.1s-0.1-0.1-0.2-0.1l-3.2-0.7
		c-0.3-0.1-0.4-0.1-0.5-0.3l0-0.1l0,0c0,0,0,0,0,0.1c0,0.2,0.1,0.5,0.1,0.6c0,0.1,0,0.4,0.1,0.5c0,0.1,0,0.1,0.1,0.1c0,0,0,0,0-0.1
		l0-0.1c0-0.1,0-0.2,0.1-0.2c0.1,0,0.2,0,0.3,0l0.7,0.1l0,0l0.2,1.1l0,0.1l-0.2,0.1L314.8,40.6L314.8,40.6z M302.8,40.6V39
		c0-0.2,0.1-0.3,0.3-0.3h0c0.2,0,0.4,0.1,0.4,0.4v1.6h0.2V39l0,0c0-0.3-0.3-0.5-0.6-0.5h-0.1c-0.3,0-0.5,0.2-0.5,0.5v0v1.6
		L302.8,40.6L302.8,40.6z M301.3,40.6V39c0-0.2,0.1-0.3,0.3-0.3h0c0.2,0,0.4,0.1,0.4,0.3v1.6h0.2V39c0-0.3-0.3-0.5-0.6-0.5h-0.1
		c-0.3,0-0.5,0.2-0.5,0.5v1.6L301.3,40.6L301.3,40.6z M299.8,40.6V39c0.1-0.1,0.1-0.2,0.2-0.3c0,0,0.1-0.1,0.2-0.1
		c0.1,0,0.2,0.1,0.2,0.1c0,0,0.1,0.1,0.2,0.3v1.6h0.2V39l0,0c-0.1-0.2-0.1-0.3-0.2-0.4c-0.1-0.1-0.2-0.1-0.4-0.2l0,0.1l0-0.1
		c-0.1,0-0.3,0.1-0.4,0.2c-0.1,0.1-0.2,0.2-0.2,0.4l0,0v1.6H299.8z M298.4,40.6v-1.6c0-0.2,0.2-0.4,0.4-0.4h0c0.2,0,0.3,0.1,0.3,0.3
		v1.6h0.2V39v0c0-0.3-0.2-0.4-0.5-0.5h-0.1c-0.3,0-0.6,0.2-0.6,0.5v1.6L298.4,40.6L298.4,40.6z M296.9,40.6V39
		c0-0.2,0.2-0.3,0.4-0.3h0c0.2,0,0.3,0.1,0.3,0.3v1.6h0.2V39v0c-0.1-0.3-0.3-0.4-0.5-0.5h-0.1c-0.3,0-0.6,0.2-0.6,0.5v1.6
		L296.9,40.6L296.9,40.6z M294.8,40.6L294.8,40.6l0.1-0.3l2.4-5.6l0,0v0c0.5-1.2,1-2.4,1.5-3.5l0-0.1c0.1,0.2,0.3,0.4,0.6,0.5
		c0.2,0.1,0.4,0.2,0.6,0.2c0.1,0,0.1,0,0.2,0c0.1,0,0.2,0,0.3,0l0,0l-0.1,0.2l-0.2,0.3v0l-0.8,1.3l-0.1,0.1l-0.1,0.1l-0.4,0.7l0,0
		l-0.1,0.1l0,0l-0.1,0.1v0l-3.7,5.9h0.4v-0.2l0.8-1.2v1.4h0.2V39h-0.1l1.2-1.9h2.7h2.9l1,1.7H304v1.8h0.2v-1.5l0.8,1.3v0.2h0.4
		l-3.4-5.9v0l-0.1-0.1h0l0-0.1h0l0,0l-0.4-0.7l-0.1-0.1l-0.1-0.1l-0.7-1.3v0l0.2-0.3l0.2-0.2l0,0c0,0,0.1,0,0.2-0.1
		c0.1-0.1,0.3-0.2,0.4-0.3c0,0,0,0,0,0c0.1-0.1,0.2-0.2,0.3-0.3v0l1,2.6l0,0.1l0,0.1l0.3,0.7l0,0l0,0l0,0.1l0,0l0,0.1l0,0l0,0
		l2.2,5.8l0,0l0,0.1h0.2l-0.1-0.2v-1.9c0.1,0,0.2,0,0.2,0h0.1c0.9,0,1.8-0.8,1.9-1.8c0-0.1,0-0.2,0-0.4c0-0.5-0.2-1-0.6-1.4
		c-0.4-0.4-0.8-0.5-1.3-0.5h-0.4l0.7-0.9h-3.3l-1.1-2.8c0.1-0.2,0.1-0.4,0.1-0.6c0-0.9-0.8-1.7-1.7-1.7s-1.7,0.8-1.7,1.7
		c0,0.2,0.1,0.5,0.1,0.7l-0.1,0.3l-1.1,2.5h-3.9l0.7,0.9c-0.5,0-0.8,0.2-1.2,0.5c-0.4,0.4-0.6,0.9-0.6,1.4c0,0.1,0,0.2,0,0.4
		c0.1,1,1,1.8,1.9,1.8h0.1h0c0,0,0.1,0,0.1,0v1.7l-0.1,0.3L294.8,40.6L294.8,40.6z M279.4,40.6l-0.1-0.2l0-0.1l0-0.1
		c0-0.1,0.1-0.2,0.2-0.2c0,0,0.1-0.1,0.1-0.1c0,0,0.1,0,0.1,0c0,0,0,0,0,0h0l0.1,0l0.3-0.1l0.3-0.1c0.1,0,0.2-0.1,0.3-0.1
		c0,0,0,0,0,0c0,0,0.1-0.1,0.1-0.1s0-0.1,0.1-0.1v0l0-0.1l0,0l0,0l0.1,0.1l0,0.2v0.2c0,0.1-0.1,0.1-0.2,0.2c0,0,0,0,0,0c0,0,0,0,0,0
		l0,0l-0.1,0.1l-0.1,0.1l0,0c0,0,0,0-0.1,0c-0.2,0.1-0.3,0.1-0.5,0.1h0l-0.3,0.1l-0.1,0l0,0c0,0,0,0,0,0c0,0-0.1,0-0.1,0
		C279.5,40.5,279.5,40.5,279.4,40.6L279.4,40.6L279.4,40.6C279.4,40.6,279.4,40.6,279.4,40.6l0.4,0l0,0l0.2-0.1l0.2-0.1l0.3,0l0,0
		l0.1-0.1l0.1,0h0l0,0l0,0c0,0,0,0,0,0l0.1,0.1l0,0v0c0.1,0.1,0.1,0.1,0.1,0.2v0c0,0,0,0,0,0h0.2v0v0c0-0.1,0-0.3-0.1-0.4h0l0-0.1
		c0,0,0,0,0.1,0c0.1-0.1,0.2-0.2,0.2-0.3v0v-0.3l-0.1-0.2l0,0l-0.1-0.2v0l-0.2-0.2c0-0.1,0.1-0.2,0.1-0.3c0.2-0.3,0.4-0.4,0.7-0.6
		c0.3-0.2,0.5-0.3,0.6-0.5c0.2-0.1,0.3-0.3,0.5-0.6c0.3-0.5,0.3-0.7,0.3-1.4v-0.1l-5.7,0v0.2c0,0.5,0,0.8,0.3,1.3
		c0.1,0.3,0.3,0.4,0.5,0.6c0.2,0.1,0.4,0.3,0.6,0.5c0.2,0.2,0.4,0.2,0.5,0.4l-0.1,0l0,0c-0.1,0-0.4-0.1-1-0.4
		c-0.3-0.2-0.6-0.3-0.8-0.5c-0.2-0.1-0.3-0.3-0.5-0.6c-0.1-0.3-0.2-0.5-0.2-0.8c0-0.2,0-0.4,0.1-0.5c0-0.1,0.1-0.3,0.1-0.4
		C277,35.1,277,35,277,35c0-0.1,0.1-0.1,0.2-0.2c0.3-0.2,0.6-0.3,0.9-0.4c0.1,0,0.1,0,0.2,0c0.1,0,0.3,0,0.4,0c0.1,0,0.2,0,0.2,0.1
		h0l0,0c0.5,0.4,0.8,0.4,1,0.5c0,0,0.1,0,0.1,0c0.1,0,0.3,0,0.5,0c0.2,0,0.5-0.1,0.8-0.3c0,0,0,0,0,0h0.1l0,0c0.1,0,0.2,0,0.3,0
		c0.1,0,0.2-0.2,0.2-0.2l0.1-0.1l-0.1,0c0,0-0.1,0-0.2,0h0c-0.1,0-0.2,0-0.4-0.1c0,0,0,0,0,0c0,0,0,0,0,0l0,0l0,0
		c-0.1-0.2-0.2-0.2-0.3-0.3c0-0.1-0.1-0.1-0.2-0.2v0c-0.1,0-0.1-0.1-0.2-0.1c-0.1,0-0.2-0.1-0.3-0.1c-0.1,0-0.2,0-0.3,0
		c-0.3,0-0.5,0.1-0.6,0.1c-0.5,0-0.9-0.1-1.4-0.1c-0.1,0-0.3,0-0.4,0.1c-0.4,0.1-0.7,0.3-0.8,0.3h0l0,0c-0.3,0.2-0.4,0.3-0.5,0.5
		c-0.2,0.2-0.3,0.4-0.4,0.6l0,0v0c0,0.2-0.1,0.3-0.2,0.7c0,0.2-0.1,0.5-0.1,0.7c0,0.1,0,0.2,0,0.2c0,0.3,0.1,0.5,0.2,0.8
		c0.4,1.1,1.3,1.7,2.2,2c0.7,0.3,0.9,0.4,1.6,0.5c-0.1,0-0.1,0.1-0.2,0.1c-0.1,0.1-0.2,0.2-0.2,0.4c0,0.1,0,0.1,0,0.1
		c0,0,0,0.1,0,0.1l0,0l0.1,0.2L279.4,40.6L279.4,40.6z M270.2,40.6C270.3,40.6,270.3,40.6,270.2,40.6c0.1-0.3,0.1-0.6,0.2-0.7
		c0-0.1,0.1-0.4,0.2-0.7c0-0.1,0-0.1,0-0.1c0,0,0,0-0.1,0.1c0,0.1,0,0.2-0.1,0.2c-0.1,0.1-0.1,0.1-0.3,0.1c-0.2,0-0.6-0.1-1-0.2
		l-0.8-0.2c-0.7-0.2-0.9-0.2-1-0.2c-0.2,0-0.2-0.1-0.2-0.2c0-0.1,0-0.1,0-0.1l0-0.1c0,0,0,0-0.1,0.1c0,0.2-0.1,0.5-0.1,0.6
		c0,0.1-0.1,0.4-0.2,0.6c0,0.1,0,0.1,0,0.1l0.1-0.1c0-0.1,0-0.1,0-0.2c0-0.1,0.1-0.1,0.3-0.1c0.2,0,0.3,0.1,1,0.2l0.8,0.2
		c0.5,0.1,0.8,0.2,1,0.3c0.1,0,0.2,0.1,0.2,0.2C270.2,40.4,270.2,40.5,270.2,40.6C270.2,40.6,270.2,40.6,270.2,40.6L270.2,40.6
		L270.2,40.6z M312.1,27.5c0,0.1,0.1,0.1,0.2,0.2c0.1,0.1,0.1,0.2,0.2,0.2s0.1,0.2,0.2,0.2c2.7,3.5,4.6,7.8,5.2,12.5h0.5
		c-0.6-4.3-2.2-8.2-4.5-11.6c0.2,0.1,0.3,0.2,0.5,0.2c0.4,0.1,0.8,0.2,0.9,0.2h0c0.1,0,0.2,0,0.2,0c0.1,0,0.2,0,0.3-0.1
		c0.1,0,0.2-0.1,0.2-0.2c0.1-0.1,0.1-0.2,0.2-0.3c0-0.1,0-0.1,0-0.2c0-0.1,0-0.2,0-0.3c0-0.1-0.1-0.2-0.2-0.2
		c-0.1-0.1-0.2-0.1-0.4-0.1c-0.1,0-0.2,0-0.3,0h0c-0.1,0-0.3,0-0.3,0.1s-0.1,0-0.2,0l0,0c-0.1,0-0.1,0-0.2,0l-0.1,0
		c-0.1-0.1-0.2-0.2-0.2-0.2s0-0.1-0.1-0.2h-0.5c0,0.1,0.1,0.1,0.1,0.2c0.1,0.2,0.1,0.2,0.2,0.3s0.1,0.1,0.3,0.2
		c0.1,0.1,0.2,0.1,0.3,0.1c0.1,0,0.1,0,0.2,0l0.1,0c0.1,0,0.2,0,0.3-0.1s0.1,0,0.2,0h0c0.1,0,0.2,0,0.2,0c0.1,0,0.1,0,0.2,0.1l0,0
		l0,0.1l0,0.1c0,0.1,0,0.1,0,0.1c0,0-0.1,0.1-0.1,0.1c0,0-0.1,0-0.1,0c0,0-0.1,0-0.2,0c0,0-0.3,0-0.7-0.1c-0.2-0.1-0.5-0.2-0.7-0.4
		c-0.1-0.1-0.1-0.1-0.2-0.2c0,0,0,0,0,0c-0.1-0.1-0.2-0.2-0.2-0.3c0,0,0,0,0,0c0-0.1-0.1-0.2-0.2-0.3l0,0c0,0,0,0,0-0.1h-0.2
		c0.1,0.1,0.1,0.2,0.1,0.2h0c0,0,0,0,0,0c0-0.1-0.1-0.1-0.2-0.2L312.1,27.5L312.1,27.5z M306.5,27.5l0.5,0.4l0,0.1l-0.4,1
		c0,0.1-0.1,0.1-0.1,0.1l-0.1,0c0,0,0,0.1,0.1,0.1c0.3,0.3,0.6,0.5,0.7,0.6c0.1,0.1,0.2,0.1,0.2,0.1l0-0.1c0,0-0.1-0.1-0.1-0.1
		c-0.1-0.1-0.1-0.2,0-0.7c0.1-0.3,0.3-0.9,0.5-1.5h-0.6l-0.1,0.1l0,0l-0.2-0.1H306.5z M304.5,27.5c0.1,0.1,0.3,0.2,0.3,0.2
		c0.1,0.1,0.3,0.2,0.4,0.4l0.1,0l0-0.1l-0.1,0c-0.1-0.1-0.1-0.2,0-0.2c0,0,0.1-0.1,0.2-0.2l0.1-0.1L304.5,27.5L304.5,27.5z
		 M301.8,27.5c0.2,0.1,0.4,0.2,0.6,0.4c4.4,2.9,7.5,7.5,8.5,12.8h0.4c-1-5.5-4.3-10.2-8.8-13.1L301.8,27.5z M291.3,27.5v13.1h0.4
		l0-13.1H291.3z M286.7,27.5V31h3.4v1.6h-3.4v8h0.2v-7.8h3.4v-2h-3.4v-3.3L286.7,27.5L286.7,27.5z M285,27.5l0,3.3h-3.4l0,2h0.1h3.2
		v7.8h0.2v-8h-0.1h-3.2V31h3.2h0.1l0-0.2l0,0l0-3.4L285,27.5L285,27.5z M280.5,27.5c-4.5,3-7.7,7.7-8.8,13.1h0.4
		c1-5.3,4.2-9.9,8.5-12.8c0.2-0.1,0.4-0.2,0.6-0.4L280.5,27.5L280.5,27.5z M275.5,27.5l0.1,0.2c0.4,0.6,0.8,0.7,1.1,0.8
		c0.5,0,0.9-0.2,1.1-0.4c0.2-0.1,0.3-0.3,0.5-0.5l-0.3,0c-0.1,0.1-0.2,0.2-0.2,0.3c-0.1,0.1-0.3,0.2-0.6,0.2c-0.3,0-0.5-0.1-0.9-0.5
		L275.5,27.5L275.5,27.5z M269.1,27.5c-0.1,0.2-0.1,0.3-0.3,0.4c0,0-0.1,0-0.1,0c0,0-0.1,0-0.2,0l0,0c0,0-0.1,0-0.2,0
		c-0.1,0-0.2-0.1-0.3-0.1h0c-0.1,0-0.2,0-0.3,0c-0.1,0-0.2,0.1-0.4,0.1c-0.1,0.1-0.2,0.1-0.2,0.2s0,0.2,0,0.3c0,0.1,0,0.1,0,0.2
		c0,0.1,0.1,0.2,0.2,0.3c0.1,0.1,0.2,0.1,0.2,0.2c0.1,0,0.2,0.1,0.3,0.1c0.1,0,0.2,0,0.2,0h0c0.1,0,0.4,0,0.7-0.1
		c0.2-0.1,0.5-0.2,0.7-0.3c-2.4,3.4-4,7.4-4.6,11.7h0.5c0.6-4.6,2.5-8.8,5.1-12.4c0.1-0.1,0.2-0.3,0.3-0.4c0.1-0.1,0.2-0.3,0.3-0.4
		h-0.6c-0.1,0.1-0.2,0.2-0.3,0.4c0,0,0.1-0.1,0.1-0.2c0,0,0-0.1,0.1-0.2h-0.2c0,0,0,0.1,0,0.1c-0.1,0.2-0.2,0.3-0.3,0.4
		c0,0.1-0.1,0.1-0.2,0.3c-0.1,0.1-0.2,0.2-0.2,0.2c-0.3,0.2-0.6,0.3-0.9,0.4c-0.2,0.1-0.5,0.1-0.5,0.1h0c-0.1,0-0.1,0-0.2,0
		c0,0-0.1,0-0.1,0c-0.1,0-0.1-0.1-0.1-0.1c0,0,0,0-0.1-0.1l0-0.1l0-0.1l0,0l0,0c0.1-0.1,0.1-0.1,0.2-0.1c0,0,0.1,0,0.2,0h0
		c0.1,0,0.1,0,0.2,0c0.1,0,0.2,0.1,0.3,0.1l0.1,0c0.1,0,0.1,0,0.2,0s0.2-0.1,0.2-0.1c0.2-0.2,0.4-0.4,0.5-0.6c0-0.1,0.1-0.1,0.1-0.2
		L269.1,27.5L269.1,27.5z"/>
	<path class="st0" d="M305.5,27.5l0.5-0.3h0.1l0.4,0.3h0.4l-0.5-0.4l0,0l1.1-0.6l0,0l0,0l-0.4,1.1h0.6c0.2-0.7,0.5-1.5,0.5-1.6
		c0-0.1,0-0.2,0-0.2c0,0-0.1,0-0.2,0.1l-2.9,1.6c-0.2,0.1-0.4,0.2-0.6,0.1l-0.1-0.1l-0.1,0c0,0,0,0,0,0.1c0,0,0.1,0.1,0.1,0.1
		L305.5,27.5z M285.2,27.5L285.2,27.5l1.5-0.1v0.1h0.2v-0.3h-2v0.1v0.2L285.2,27.5L285.2,27.5z M281.3,27.5c2.7-1.6,5.8-2.6,9.1-2.8
		c0.5,0,0.9,0.4,0.9,0.9v1.9h0.4v-1.9c0-0.5,0.5-0.9,1-0.9c3.3,0.2,6.4,1.2,9.1,2.8h0.8c-3.2-2.1-7-3.3-11-3.3
		c-4.1,0-7.9,1.2-11,3.3L281.3,27.5z M278.3,27.5c0.1-0.1,0.1-0.2,0.1-0.4c0.1-0.5-0.2-1-0.5-1.5l-0.3-0.4c-0.5-0.6-0.5-0.7-0.6-0.8
		c-0.1-0.1-0.1-0.2,0-0.3L277,24l0-0.1c0,0,0,0-0.1,0c-0.1,0.1-0.4,0.3-0.4,0.4c0,0-0.3,0.2-0.5,0.3c0,0-0.1,0.1,0,0.1l0.1,0
		l0.1-0.1c0.1-0.1,0.2,0,0.3,0.1c0.1,0.1,0.2,0.2,0.6,0.8l0.4,0.5c0.3,0.4,0.6,0.8,0.5,1.1c0,0.1-0.1,0.3-0.1,0.4H278.3z
		 M276.3,27.5c-0.1-0.1-0.1-0.1-0.2-0.2l-0.4-0.5c-0.5-0.6-0.5-0.7-0.6-0.8c-0.1-0.1-0.1-0.2,0-0.3l0.1-0.1l0-0.1c0,0,0,0-0.1,0
		c-0.1,0.1-0.4,0.3-0.5,0.4c-0.1,0.1-0.4,0.3-0.6,0.4c-0.1,0-0.1,0.1-0.1,0.1l0.1,0c0.1,0,0.1-0.1,0.2-0.1c0.1-0.1,0.2,0,0.3,0.1
		s0.2,0.2,0.6,0.8l0.3,0.4L276.3,27.5L276.3,27.5z M309.7,23.1c0,0.1,0,0.2,0,0.3c0,0.2,0,0.3,0.1,0.5l0,0c0.1,0.2,0.2,0.4,0.3,0.5
		c0.2,0.2,0.4,0.3,0.6,0.3l0,0l0.4,0.1h0l0.4-0.1c-0.1,0.1-0.1,0.2-0.1,0.3l0,0c0,0,0,0.1,0,0.1c0,0.2,0.1,0.4,0.2,0.5
		c0.1,0.1,0.2,0.1,0.3,0.1c0,0,0.1,0,0.1,0c0,0.1,0,0.3,0.1,0.5c0.1,0.5,0.4,1,0.6,1.3h0.3c0-0.1-0.1-0.2-0.2-0.4
		c-0.1-0.3-0.3-0.6-0.4-0.9c0-0.2-0.1-0.3-0.1-0.5l0-0.2l-0.1,0.1c-0.1,0-0.1,0-0.1,0c-0.1,0-0.1,0-0.2-0.1
		c-0.1-0.1-0.1-0.2-0.1-0.3l0-0.1c0-0.1,0.1-0.1,0.1-0.2c0.1-0.1,0.2-0.1,0.2-0.1c0.1,0,0.1,0,0.1,0c0.1,0,0.1,0,0.2,0
		c0.1,0,0.2,0,0.3,0c0,0,0.1,0,0.1,0c0,0,0.1,0.1,0.1,0.2c0,0,0,0.1,0,0.1c0.1,0.3,0.1,0.7,0.2,1.2c0.1,0.5,0.2,0.9,0.4,1.2h0.5
		c0,0,0,0,0,0c-0.2-0.4-0.3-0.8-0.5-1.3c-0.1-0.3-0.1-0.5-0.1-0.8c0.1,0,0.2,0,0.3,0h0c0.3,0,0.5-0.1,0.7-0.3l0,0l0.2-0.2l0,0
		c0.1-0.1,0.1-0.3,0.1-0.5c0-0.1,0-0.3-0.1-0.4c-0.1-0.2-0.3-0.4-0.6-0.5l0,0l0,0c0-0.1,0.1-0.2,0.1-0.3H314c0,0.1-0.1,0.2-0.1,0.3
		c0,0.1,0,0.1-0.1,0.2c0,0,0,0,0,0c0,0,0,0,0,0c0,0,0,0,0,0.1c0,0,0,0,0-0.1v0c0,0,0,0,0,0c0,0,0-0.1,0.1-0.2c0-0.1,0.1-0.2,0.1-0.3
		h-0.4c0,0.1-0.1,0.3-0.1,0.4c0,0,0,0,0,0c-0.1,0-0.2,0-0.3,0h-0.1c-0.2,0-0.3,0-0.5,0l-0.5,0.1h0l0,0c-0.2,0-0.4,0.1-0.6,0.1
		c-0.1,0-0.2,0-0.3,0h0c-0.1,0-0.2,0-0.3-0.2c0-0.1-0.1-0.1-0.1-0.2l0-0.1c0-0.1,0-0.1,0-0.1h-0.2c0,0,0,0.1,0,0.1l0,0.1
		c0,0.1,0,0.2,0.1,0.3c0.1,0.2,0.3,0.3,0.5,0.3h0l0,0c0.1,0,0.2,0,0.3,0c0.2,0,0.4,0,0.6-0.1l0,0l0.5-0.1l0,0c0.2,0,0.3,0,0.5,0
		l0.1,0c0.1,0,0.2,0,0.4,0c0,0,0,0,0,0l0.2,0.1l0,0c0.2,0.1,0.2,0.1,0.3,0.3c0,0.1,0.1,0.2,0.1,0.2c0,0.1,0,0.2-0.1,0.2h0l-0.1,0.2
		c-0.2,0.1-0.2,0.2-0.5,0.2h0c-0.2,0-0.3-0.1-0.5-0.2c0,0,0,0,0,0c0,0-0.1-0.1-0.1-0.1c0,0-0.1-0.1-0.1-0.1c0,0,0,0,0,0
		c-0.1-0.1-0.2-0.1-0.3-0.1c-0.1,0-0.1,0-0.2,0c-0.1,0-0.1,0-0.2,0c0,0,0,0-0.1,0c-0.1,0-0.3,0-0.4,0.1h0l-0.5,0.1l-0.4-0.1
		c-0.2,0-0.3-0.1-0.5-0.3c-0.2-0.1-0.2-0.2-0.3-0.4c-0.1-0.2-0.1-0.3-0.1-0.5c0-0.1,0-0.2,0-0.3L309.7,23.1z M307.5,23.1
		c1,0.8,1.9,1.6,2.8,2.4c0.6,0.6,1.2,1.3,1.8,2h0.6c-1.3-1.6-2.8-3.1-4.4-4.4c0.1,0,0.2,0,0.3,0L307.5,23.1L307.5,23.1z M302.8,23.1
		c-0.1,0.1-0.2,0.2-0.3,0.4l-0.5,0.7c-0.2,0.4-0.5,0.7-0.6,0.9c-0.1,0.1-0.2,0.2-0.2,0.1c0,0-0.1,0-0.2-0.1s-0.1,0-0.1,0
		c0,0,0,0.1,0.1,0.1c0.2,0.1,0.4,0.2,0.5,0.3c0.2,0.1,0.5,0.4,0.9,0.6c0.8,0.5,1.4,0.5,1.7,0.4c0.4-0.1,0.9-0.4,1.2-0.9
		c0.3-0.5,0.3-1,0.3-1.3c-0.1-0.6-0.6-1-1.1-1.3h-0.4c0.3,0.2,0.7,0.5,0.8,1.1c0.1,0.3,0.1,0.8-0.2,1.3c-0.3,0.4-0.6,0.8-1,0.8
		c-0.4,0-0.7,0-1.1-0.3c-0.3-0.2-0.4-0.4-0.4-0.5c0-0.1,0.1-0.2,0.1-0.4c0-0.1,0.2-0.4,0.5-0.8l0.3-0.5c0.2-0.2,0.3-0.5,0.4-0.7
		L302.8,23.1z M299.9,23.1l-0.1,0.2c-0.2,0.4-0.3,0.8-0.4,1c-0.1,0.1-0.1,0.2-0.2,0.2c0,0-0.1,0-0.2,0c0,0-0.1,0-0.1,0
		s0,0.1,0.1,0.1c0.2,0.1,0.5,0.2,0.6,0.2c0.1,0,0.4,0.2,0.7,0.3c0,0,0.1,0,0.1,0c0,0,0,0-0.1-0.1c-0.1,0-0.2-0.1-0.2-0.1
		c-0.1-0.1-0.1-0.2-0.1-0.3c0.1-0.2,0.2-0.6,0.4-1l0.2-0.5L299.9,23.1L299.9,23.1z M294.9,23.1c0.1,0.1,0.2,0.3,0.3,0.3
		c0.1,0.1,0.2,0.1,0.5,0.2l0.5,0.1l0.1,0l0,0c0.2,0.1,0.4,0.2,0.7,0.3c0.2,0.1,0.5,0.1,0.8,0c0.4-0.1,0.6-0.4,0.7-0.7
		c0-0.1,0-0.1,0-0.2h-0.6c0,0.1,0,0.2,0,0.3c-0.1,0.2-0.4,0.5-0.8,0.4c-0.3-0.1-0.5-0.3-0.5-0.7v0h-0.2c0,0.1-0.1,0.2-0.1,0.4l0,0.1
		l0,0c0,0-0.1,0-0.1,0c-0.1,0-0.3-0.1-0.5-0.4c0,0,0,0,0,0L294.9,23.1L294.9,23.1z M292.8,23.1C292.8,23.1,292.8,23.1,292.8,23.1
		c-0.1,0-0.2,0-0.2,0c-0.1,0-0.1,0-0.1,0c0,0,0,0,0.1,0.1c0.2,0,0.5,0,0.6,0.1c0.1,0,0.4,0.1,0.7,0.1c0.1,0,0.1,0,0.1,0l0,0
		c-0.1,0-0.2,0-0.2,0c-0.1,0-0.1-0.1-0.1-0.1L292.8,23.1L292.8,23.1z M289.7,23.1c0,0,0,0.1-0.1,0.1c0,0-0.1,0-0.2,0
		c-0.1,0-0.1,0-0.1,0c0,0,0,0,0.1,0c0.2,0,0.5,0,0.6,0c0.3,0,0.6,0,1.4,0c0.2,0,0.2,0,0.3-0.1c0,0,0,0,0,0L289.7,23.1L289.7,23.1z
		 M286.9,23.1l0.2,0.3c0.1,0.2,0.2,0.3,0.2,0.3c0.1,0,0.1-0.1,0.2-0.4c0,0,0-0.1,0-0.2L286.9,23.1z M283.8,23.1
		c0.1,0.5,0.3,0.8,0.3,1c0,0.1,0,0.2-0.1,0.3c0,0-0.1,0-0.2,0.1c-0.1,0-0.1,0-0.1,0.1c0,0,0,0,0.1,0c0.2-0.1,0.5-0.2,0.6-0.2
		c0.1,0,0.4-0.1,0.7-0.2c0,0,0.1,0,0.1-0.1c0,0,0,0-0.1,0c-0.1,0-0.2,0-0.2,0.1c-0.1,0-0.2,0-0.3-0.2c-0.1-0.2-0.2-0.5-0.3-0.8
		H283.8z M278.2,23.1C278.3,23.1,278.3,23.1,278.2,23.1l1.3,2.7c0.2,0.4,0.2,0.5,0.1,0.6c0,0-0.1,0.1-0.2,0.1l0,0.1c0,0,0.1,0,0.1,0
		c0.2-0.1,0.4-0.2,0.5-0.2c0.1,0,0.3-0.1,0.5-0.3c0.1,0,0.1-0.1,0.1-0.1c0,0,0,0-0.1,0c-0.1,0-0.2,0.1-0.2,0.1
		c-0.1,0-0.2-0.1-0.4-0.4l-1-1.8l0,0c0.1,0,0.9,0.3,1.6,0.6c0.7,0.2,1.5,0.5,2,0.6c0.1,0,0.1,0,0.2,0c0,0,0-0.1,0-0.2l-0.9-1.8h-0.4
		l0.6,1.1l0,0c-0.1,0-1-0.4-1.5-0.5c-0.7-0.2-1.5-0.5-1.9-0.6L278.2,23.1L278.2,23.1z M274.5,23.1c0.1,0,0.2,0,0.4,0
		c-1.6,1.3-3.1,2.7-4.4,4.3h0.6c0,0,0,0,0,0c0.5-0.7,1.1-1.3,1.7-1.9c0.9-0.9,1.8-1.7,2.8-2.4L274.5,23.1z M269.4,23.1
		c0,0.1,0.1,0.2,0.1,0.3C269.5,23.3,269.4,23.2,269.4,23.1L269.4,23.1z M269,23.1c0,0.1,0,0.2,0.1,0.4c-0.2,0.1-0.4,0.2-0.5,0.4
		c-0.1,0.2-0.1,0.4-0.1,0.5c0,0.1,0,0.3,0.1,0.4l0,0.1l0.2,0.2l0,0c0.2,0.2,0.4,0.2,0.6,0.3c0.1,0,0.2,0,0.2,0h0.1
		c0,0.2-0.1,0.4-0.1,0.7c-0.1,0.3-0.1,0.5-0.1,0.7c0,0.2-0.1,0.4-0.2,0.6c0,0,0,0,0,0h0.5c0.1-0.2,0.2-0.4,0.2-0.6
		c0-0.2,0.1-0.4,0.1-0.7c0-0.1,0-0.2,0.1-0.4c0.1-0.3,0.2-0.6,0.2-0.9c0-0.1,0.1-0.2,0.1-0.2c0,0,0,0,0.1,0c0.1,0,0.2,0,0.3,0
		c0,0,0.1,0,0.2,0c0,0,0.1,0,0.1,0l0,0c0.1,0,0.2,0.1,0.2,0.1c0.1,0.1,0.1,0.2,0.1,0.2l0,0.1c0,0.1,0,0.2-0.1,0.3
		c-0.1,0-0.1,0.1-0.2,0.1c0,0-0.1,0-0.1,0l-0.1-0.1l0,0.2c0,0.2,0,0.3-0.1,0.5c-0.1,0.3-0.2,0.6-0.4,0.9c-0.1,0.2-0.2,0.4-0.2,0.4
		h0.2c0.2-0.3,0.5-0.9,0.6-1.3c0-0.2,0.1-0.3,0.1-0.5c0,0,0.1,0,0.1,0c0.1,0,0.2,0,0.3-0.1c0.2-0.1,0.2-0.3,0.2-0.5l0-0.1
		c0-0.1-0.1-0.2-0.1-0.3l0.4,0h0l0.4-0.1c0.3,0,0.4-0.1,0.6-0.3c0.2-0.2,0.3-0.3,0.3-0.5c0.1-0.2,0.1-0.4,0.1-0.5c0-0.1,0-0.2,0-0.3
		h-0.2c0,0.1,0,0.2,0,0.3c0,0.1,0,0.3-0.1,0.5c-0.1,0.2-0.1,0.3-0.3,0.4c-0.2,0.1-0.3,0.2-0.5,0.3l-0.4,0.1l-0.5-0.1h0l0,0
		c-0.1,0-0.2-0.1-0.4-0.1c0,0,0,0-0.1,0c-0.1,0-0.1,0-0.2,0c-0.1,0-0.1,0-0.2,0c0,0-0.1,0-0.3,0.1c0,0,0,0,0,0
		c-0.1,0-0.1,0.1-0.1,0.1c-0.1,0.1-0.1,0.1-0.2,0.1c-0.2,0.1-0.2,0.2-0.4,0.2c0,0-0.1,0-0.2,0c-0.2,0-0.3-0.1-0.4-0.2l-0.1-0.1
		c0-0.1,0-0.1,0-0.2c0-0.1,0-0.2,0.1-0.3c0.1-0.1,0.3-0.3,0.4-0.3c0,0,0,0,0.1,0c0.1,0,0.3,0,0.4,0l0.1,0c0.2,0,0.3,0,0.5,0l0.5,0.1
		c0.2,0,0.4,0.1,0.6,0.1c0.1,0,0.2,0,0.3,0h0c0.2,0,0.4-0.1,0.5-0.3c0.1-0.1,0.1-0.2,0.1-0.3l0-0.1c0,0,0-0.1,0-0.1h-0.2
		c0,0,0,0.1,0,0.1l0,0.1c0,0.1,0,0.1-0.1,0.2c-0.1,0.1-0.2,0.2-0.3,0.2h0c-0.1,0-0.2,0-0.3,0c-0.2,0-0.4,0-0.6-0.1l0,0l-0.5-0.1
		c-0.2,0-0.3,0-0.5,0h-0.1c-0.1,0-0.2,0-0.3,0c0,0,0,0,0,0.1l0,0l-0.1,0.1l0.1-0.1l0,0c0,0,0,0,0-0.1s0-0.1,0-0.1
		c0-0.1-0.1-0.2-0.1-0.3L269,23.1L269,23.1z"/>
	<path class="st0" d="M293.7,21.4l0.2-1.5l0-0.1c0,0,0.1,0,0.3,0c0.3,0,0.7,0.3,0.6,1c0,0.4-0.2,0.6-0.4,0.7c-0.1,0.1-0.2,0.1-0.4,0
		c-0.1,0-0.3,0-0.4-0.1C293.7,21.5,293.7,21.5,293.7,21.4 M275.3,20.9c-0.1,0.1-0.2,0.1-0.3,0.1c-0.2,0-0.5-0.1-0.7-0.3
		c-0.2-0.2-0.3-0.4-0.3-0.6c0-0.1,0-0.2,0.1-0.3c0.1-0.1,0.2-0.1,0.3-0.1c0.2,0,0.5,0.1,0.7,0.4c0.2,0.2,0.3,0.4,0.3,0.6
		C275.5,20.7,275.4,20.8,275.3,20.9 M274.5,19.4c-0.1,0-0.3,0-0.4,0.1c-0.1,0.1-0.2,0.3-0.2,0.5c0,0.2,0.1,0.5,0.3,0.8
		c0.2,0.3,0.6,0.4,0.9,0.4c0.1,0,0.3,0,0.4-0.1c0.1-0.1,0.2-0.3,0.2-0.5c0-0.3-0.1-0.5-0.3-0.8C275.1,19.6,274.8,19.4,274.5,19.4
		 M311.6,20.3c-0.1,0-0.3,0-0.5,0h0H311c0,0-0.1,0-0.1,0c0,0,0,0,0,0h0h0c0,0,0.1,0,0.1,0h0.1l0,0C311.3,20.3,311.4,20.3,311.6,20.3
		 M307.5,22.2L307.5,22.2L307.5,22.2L307.5,22.2l-0.2-0.2c-0.1-0.1-0.2-0.1-0.3-0.1c-0.1,0-0.1,0-0.2,0c0,0-0.1,0-0.1,0h0v0l0-0.1h0
		l0.1,0l0.1,0.1l0,0h0c0.1,0,0.1,0,0.2,0c0.1,0,0.1,0,0.2,0.1l0,0l0.5-0.3c0,0,0,0,0,0l-0.5,0.3l0,0
		C307.5,22.1,307.5,22.1,307.5,22.2c0.1,0.1,0.1,0.1,0.2,0.2l0,0l0,0.1l0,0l0.1,0l0,0l0,0l-0.1,0h0l-0.1,0c0,0,0-0.1-0.1-0.1
		C307.5,22.3,307.5,22.2,307.5,22.2 M306.6,21.9L306.6,21.9l0.2,0c0.1,0,0.1,0,0.2,0c0.1,0,0.1,0.1,0.2,0.1l0.1,0.1l0.1,0.1
		c0,0.1,0,0.1,0.1,0.2c0,0,0,0.1,0.1,0.1C307.2,22.3,306.9,22.1,306.6,21.9L306.6,21.9z M306.9,18.9L306.9,18.9L306.9,18.9
		L306.9,18.9z M306.2,19.6L306.2,19.6l-0.2,0c0.3-0.1,0.5-0.2,0.7-0.5l0,0.1c0,0.1,0,0.1,0,0.1v0l0,0.1l-0.1,0.1l-0.1,0l-0.1,0
		c-0.1,0-0.1,0-0.1-0.1l0,0l-0.1,0.1C306.3,19.6,306.3,19.6,306.2,19.6 M306.4,19.6L306.4,19.6L306.4,19.6c0.1,0,0.1,0,0.1,0l0.1,0
		c0,0,0.1,0,0.2,0h0l0.1-0.1l0,0v0c0,0,0-0.1,0-0.1v0c0-0.1,0-0.1,0-0.1l0-0.1L307,19l0,0v0h0l0,0l0,0c0,0,0,0-0.1,0.1l0,0.1
		c0,0.1,0,0.1,0,0.2v0v0.1v0l0,0.1l0,0l0.2,0.2l0.1,0.2c0,0,0,0,0,0l-0.2-0.2l-0.2-0.2l0,0l-0.1,0h0h0c-0.1,0-0.1,0-0.2,0
		L306.4,19.6L306.4,19.6L306.4,19.6c0,0.1,0,0.1-0.1,0.1l0,0c0,0,0,0-0.1,0C306.3,19.7,306.4,19.7,306.4,19.6 M310.9,23.1
		c0-0.1,0.1-0.1,0.1-0.2c0.1-0.1,0.2-0.1,0.3-0.1h0c0,0,0,0,0,0l0-0.1l0-0.1c-0.2,0-0.3-0.1-0.4-0.2l0,0c0-0.1,0-0.1-0.1-0.3v0
		c0-0.1,0-0.1,0-0.2c0.1-0.2,0.1-0.2,0.3-0.3c0.1,0,0.2-0.1,0.2-0.1c0.1,0,0.1,0,0.2,0c0.2,0,0.3,0.1,0.4,0.2c0,0.1,0.1,0.1,0.1,0.2
		c0,0.1,0,0.2,0.1,0.3l0.2-0.1c0-0.1-0.1-0.2-0.1-0.2c0-0.1-0.1-0.2-0.1-0.3c-0.1-0.2-0.3-0.2-0.5-0.3c-0.1,0-0.2,0-0.2,0
		c-0.1,0-0.2,0-0.4,0.1c-0.2,0.1-0.3,0.2-0.4,0.4c0,0.1-0.1,0.2-0.1,0.3v0.1c0,0.1,0,0.2,0.1,0.4c0,0.1,0.1,0.1,0.1,0.2
		c0,0-0.1,0-0.1,0.1c-0.1,0.1-0.2,0.2-0.2,0.4L310.9,23.1L310.9,23.1z M303.6,23.1c0,0,0.1-0.1,0.1-0.1l0.1,0c0,0,0.2,0.1,0.3,0.1
		c0,0,0,0,0.1,0h0.4c-0.1-0.1-0.2-0.1-0.3-0.2c-0.2-0.2-0.5-0.3-0.6-0.4c-0.1-0.1-0.4-0.2-0.6-0.4c-0.1,0-0.1-0.1-0.1,0l0,0.1
		c0.1,0,0.1,0.1,0.2,0.1c0.1,0.1,0.1,0.2,0,0.4c0,0.1-0.1,0.2-0.3,0.5L303.6,23.1L303.6,23.1z M300.5,23.1l0.1-0.4
		c0.3-0.7,0.3-0.8,0.4-1c0.1-0.2,0.1-0.2,0.3-0.2c0.1,0,0.1,0,0.1,0l0.1,0c0,0,0,0-0.1-0.1c-0.2-0.1-0.5-0.1-0.6-0.2
		c-0.1,0-0.4-0.2-0.6-0.2c-0.1,0-0.1,0-0.1,0l0,0.1c0.1,0,0.1,0,0.2,0.1c0.1,0.1,0.1,0.2,0,0.3c0,0.2-0.1,0.3-0.4,1l-0.2,0.6H300.5z
		 M298.4,23.1c0-0.4-0.1-0.7-0.5-1.2l-0.1-0.1c-0.3-0.4-0.4-0.6-0.3-0.8c0.1-0.3,0.3-0.4,0.7-0.3c0.3,0.1,0.4,0.3,0.5,0.4
		c0.1,0.1,0,0.3,0,0.3c0,0.1,0,0.1,0,0.1c0,0,0.1,0,0.1-0.1c0.1-0.4,0.2-0.5,0.2-0.6l0-0.1c-0.1-0.1-0.3-0.2-0.6-0.2
		c-0.7-0.2-1.2,0.1-1.3,0.6c-0.1,0.4,0,0.8,0.4,1.3l0.2,0.2c0.2,0.2,0.3,0.4,0.3,0.6L298.4,23.1L298.4,23.1z M296.5,23.1
		c0-0.1,0-0.2,0-0.2l0-0.1c0,0-0.1,0-0.1,0.1c0,0,0,0.1-0.1,0.2L296.5,23.1L296.5,23.1z M293.5,23.1c0,0,0-0.1,0-0.1
		c0-0.2,0-0.6,0.1-1l0-0.1l0,0l0.4,0.1l0.1,0c0,0.1,0.2,0.4,0.4,0.7c0.1,0.2,0.2,0.3,0.3,0.5h0.7c-0.2-0.3-0.5-0.8-0.9-1.4
		c0.5-0.3,0.7-0.6,0.8-1c0-0.3-0.1-0.6-0.2-0.7c-0.2-0.2-0.6-0.3-0.9-0.3c-0.1,0-0.5,0-0.7-0.1c-0.1,0-0.4-0.1-0.7-0.1
		c-0.1,0-0.1,0-0.1,0c0,0,0,0,0.1,0c0.1,0,0.1,0,0.2,0c0.1,0,0.2,0.1,0.2,0.3c0,0.2,0,0.3-0.1,1l-0.1,0.9c-0.1,0.5-0.1,0.8-0.2,1
		c0,0.1-0.1,0.2-0.1,0.2L293.5,23.1z M291.7,23.1c0-0.1,0-0.4,0-0.5c0,0,0-0.1,0-0.1s0,0-0.1,0.1c0,0.2-0.1,0.3-0.2,0.4
		c-0.1,0.1-0.3,0.1-0.5,0.1c-0.5,0-0.6-0.1-0.6-0.4c0-0.1,0-0.6,0-0.8l0-0.4l0,0c0.1,0,0.6,0,0.7,0c0.2,0,0.2,0.1,0.3,0.2
		c0,0.1,0,0.1,0,0.2l0,0l0-0.1c0,0,0-0.2,0-0.3c0-0.2,0-0.3,0-0.4l0,0l-0.1,0.1c0,0-0.1,0.1-0.2,0.1c-0.1,0-0.7,0-0.8,0l0,0l0-1.2
		l0,0c0.1,0,0.6,0,0.7,0c0.2,0,0.3,0.1,0.3,0.2c0,0.1,0,0.1,0,0.2l0,0.1l0-0.1c0-0.1,0-0.3,0-0.3c0-0.2,0-0.3,0-0.3l0,0l-0.1,0
		c0,0-0.1,0-0.2,0c-0.1,0-1.1,0-1.2,0c-0.1,0-0.5,0-0.7,0c-0.1,0-0.1,0-0.1,0c0,0,0,0,0.1,0c0.1,0,0.1,0,0.2,0
		c0.2,0,0.2,0.1,0.2,0.3c0,0.2,0,0.3,0,1l0,0.9c0,0.5,0,0.8,0,1c0,0.1,0,0.1,0,0.2L291.7,23.1z M287.6,23.1c0.1-0.3,0.2-0.8,0.3-1.4
		c0.1-0.6,0.2-0.9,0.4-1.4c0.1-0.3,0.1-0.4,0.2-0.5c0.1-0.1,0.2-0.1,0.2-0.1c0,0,0.1,0,0.1-0.1c0,0,0,0-0.1,0
		c-0.1,0-0.4,0.1-0.5,0.1c-0.1,0-0.3,0-0.5,0.1c-0.1,0-0.1,0-0.1,0.1l0.1,0c0.1,0,0.1,0,0.2,0l0.1,0.1c0,0,0,0.1,0,0.2
		c-0.1,0.3-0.4,2-0.5,2.6h0l-1.2-2c-0.1-0.2-0.2-0.3-0.2-0.4l0-0.1c0,0,0.1,0,0.2-0.1l0.1-0.1c0,0-0.1,0-0.1,0
		c-0.2,0-0.5,0.1-0.6,0.1c-0.2,0-0.5,0.1-0.7,0.1c-0.1,0-0.1,0-0.1,0.1l0.1,0c0,0,0.1,0,0.2,0c0.2,0,0.3,0.1,0.4,0.3l1.5,2.4
		L287.6,23.1L287.6,23.1z M284.5,23.1c0-0.1,0-0.1-0.1-0.2l-0.3-0.8c-0.2-0.7-0.3-0.8-0.3-1c0-0.2,0-0.3,0.1-0.3c0,0,0.1,0,0.1-0.1
		l0.1-0.1c0,0,0,0-0.1,0c-0.2,0.1-0.5,0.2-0.6,0.2c-0.1,0-0.4,0.1-0.6,0.2c-0.1,0-0.1,0-0.1,0.1l0.1,0c0,0,0.1,0,0.2,0
		c0.1,0,0.2,0,0.2,0.2c0.1,0.1,0.1,0.3,0.3,1l0.3,0.8c0,0,0,0,0,0L284.5,23.1L284.5,23.1z M281.8,23.1l-0.5-1
		c-0.1-0.2-0.1-0.4,0-0.5l0.1-0.1c0,0,0.1-0.1,0.1-0.1s-0.1,0-0.1,0c-0.2,0.1-0.4,0.2-0.4,0.2c-0.1,0-0.3,0.1-0.5,0.3
		c-0.1,0-0.1,0.1-0.1,0.1s0,0,0.1,0c0.1,0,0.2-0.1,0.2-0.1c0.1,0,0.2,0,0.4,0.3l0.4,0.8L281.8,23.1L281.8,23.1z M278.7,23.1
		c-0.1,0-0.2-0.1-0.2-0.1c-0.1,0-0.2-0.1-0.2,0c0,0,0,0.1,0,0.1L278.7,23.1z M272.4,23.1c0-0.1-0.1-0.3-0.2-0.4c0,0-0.1,0-0.1-0.1
		c0,0,0.1-0.1,0.1-0.2c0.1-0.1,0.1-0.2,0.1-0.4V22c0-0.1,0-0.2-0.1-0.3c-0.1-0.2-0.2-0.3-0.4-0.4c-0.1-0.1-0.2-0.1-0.4-0.1
		c-0.1,0-0.2,0-0.2,0c-0.2,0-0.4,0.1-0.5,0.3c-0.1,0.1-0.1,0.2-0.1,0.3c0,0.1,0,0.2-0.1,0.2l0.2,0.1c0-0.1,0.1-0.2,0.1-0.3
		s0-0.1,0.1-0.2c0.1-0.1,0.2-0.2,0.4-0.2c0.1,0,0.1,0,0.2,0c0.1,0,0.2,0,0.2,0.1c0.1,0.1,0.2,0.2,0.3,0.3c0,0.1,0,0.1,0,0.2v0
		c0,0.1,0,0.2-0.1,0.3c-0.1,0.1-0.2,0.2-0.3,0.2h0l0,0.2c0,0,0,0,0,0h0c0.1,0,0.2,0,0.3,0.1c0.1,0.1,0.1,0.1,0.1,0.2H272.4z
		 M298.7,18.7c3.2,0.9,6.2,2.4,8.9,4.4h1.1c0.1,0,0.2,0,0.3-0.1c0.3-0.1,0.5-0.2,0.8-0.3c0,0.1,0,0.2,0,0.3c0,0,0,0,0,0.1h0.2
		c0,0,0,0,0,0c0-0.2,0-0.3,0.1-0.5l0.1-0.3l-0.3,0.2c-0.4,0.2-0.6,0.3-1,0.4c-0.3,0.1-0.5,0.1-0.8,0.1l0,0c-0.1-0.1-0.3-0.2-0.5-0.4
		l0.1,0l0.1,0l0,0l0.1-0.1l0,0l-0.1-0.1l0,0l-0.1,0l0-0.1c0-0.1,0-0.1-0.1-0.2c0,0-0.1-0.1-0.1-0.1l0.5-0.3c0,0,0,0,0,0l0.1,0
		c0,0,0,0,0.1,0c0,0.1,0,0.1,0,0.2l0,0.1v0c0,0,0,0.1,0,0.2l0,0.1c0,0,0.1,0.1,0.1,0.1l0.1,0c0.1,0,0.1,0,0.2-0.1
		c0.2-0.1,0.5-0.3,0.5-0.3l0.6-0.4l0.4-0.3v0h0c0,0,0.3-0.3,0.6-0.7c0,0,0.1-0.1,0.1-0.1c0,0,0.1,0,0.1,0c0.1,0,0.2,0,0.3,0
		c1.2,0,2,0.6,2.3,1.2c0.1,0.2,0.1,0.3,0.2,0.4c0,0.1,0,0.2,0,0.3c0,0.1,0,0.2,0,0.3c0,0.1,0,0.2-0.1,0.4h0.4c0-0.1,0.1-0.3,0.1-0.4
		c0-0.1,0-0.2,0-0.3c0-0.3-0.1-0.5-0.3-0.9c-0.3-0.6-1.1-1.2-2.1-1.4c1,0.2,1.8,0.8,2.1,1.4c0.2,0.4,0.3,0.6,0.3,0.9
		c0,0.1,0,0.2,0,0.3c0,0.1,0,0.2-0.1,0.4h0.1c0-0.1,0.1-0.3,0.1-0.4c0-0.1,0-0.2,0-0.3c0-0.2,0-0.3-0.1-0.5s-0.1-0.3-0.2-0.5
		c-0.4-0.7-1.3-1.4-2.6-1.5c0.1-0.2,0.1-0.4,0.2-0.5c0.1-0.3,0.1-0.4,0.2-0.7l0-0.1c0,0,0,0,0,0h-0.3c0,0,0,0,0,0.1l0,0
		c0,0.3-0.1,0.4-0.2,0.6c-0.1,0.1-0.3,0.5-0.5,0.7c-0.1,0.1-0.1,0.2-0.2,0.2c-0.3,0.4-0.5,0.7-0.5,0.7l-0.3,0.3l-0.6,0.4
		c0,0-0.1,0.1-0.3,0.2c-0.1,0-0.1,0.1-0.2,0.1c0,0-0.1,0-0.1,0l0,0l0-0.1c0,0,0-0.1,0-0.1h0l0,0c0-0.1,0.1-0.3,0.1-0.5c0,0,0,0,0,0
		c0.1-0.2,0.1-0.3,0.1-0.3l-0.2-0.1v0h0c0,0,0,0,0,0c0,0-0.1,0.2-0.1,0.3c0,0,0,0,0,0.1l-0.1,0.1l-0.1,0h0c-0.1,0-0.1-0.1-0.2-0.2
		c0-0.1,0-0.1-0.1-0.3c0-0.1,0-0.2,0-0.2l0-0.2l-0.1,0.1l0,0c-0.1,0-0.2,0.1-0.3,0.1l-0.1,0c-0.1,0-0.2-0.1-0.2-0.1l-0.1-0.1
		c0,0,0.1-0.1,0.2-0.2c0.1-0.1,0.3-0.2,0.4-0.4c0.1-0.2,0.2-0.5,0.2-0.6v0c0-0.1,0-0.1-0.1-0.2c0,0,0-0.1-0.1-0.1c0-0.1,0-0.1,0-0.2
		c0-0.1,0-0.1,0-0.1h-0.2c0,0,0,0.1,0,0.1c0,0.1,0,0.2,0,0.3c0,0.1,0.1,0.1,0.1,0.2l0,0.1l0,0c0,0-0.1,0.3-0.2,0.5l-0.1-0.1
		l-0.1-0.2l0-0.1l0-0.1l0-0.1v0c0-0.1,0-0.1,0-0.2l0-0.1l0,0c0,0,0.1,0,0.1-0.1c0-0.1-0.1-0.1-0.2-0.1l-0.1,0c0,0,0-0.1,0.1-0.1
		c0,0,0,0,0,0h-0.2c-0.3,0.5-0.8,0.7-1.3,0.7c-0.2,0-0.4,0-0.6-0.1l0,0c-0.8-0.3-1.3-0.4-1.6-0.4c-0.1,0-0.2,0-0.3,0l-0.5,0.1
		l-0.2-0.3h-0.2l0,0l0,0l0.2,0.5l0,0.1l0.6-0.1c0.1,0,0.1,0,0.2,0c0.3,0,0.7,0.1,1.5,0.4h0c0.2,0.1,0.5,0.1,0.7,0.1
		c0.2,0,0.4,0,0.6-0.1l0,0.1c0,0.1,0.1,0.2,0.2,0.2h0c0.1,0,0.1,0,0.2-0.1l0.1,0h0h0c0.1,0,0.1,0,0.2,0l0.1,0L307,20l0.2,0.2
		c-0.1,0.1-0.1,0.1-0.2,0.2c-0.1,0-0.1,0.1-0.2,0.1c0,0-0.1,0.1-0.1,0.1l0,0l0,0.1c0,0.1,0,0.1,0.1,0.1c0.1,0.1,0.3,0.2,0.4,0.3
		l0.1,0c0.1,0,0.2,0,0.3-0.1c0,0,0,0.1,0,0.1c0,0.1,0,0.2,0.1,0.4h0c0,0,0,0,0,0.1l-0.4,0.3c-0.1,0-0.1-0.1-0.2-0.1
		c-0.1,0-0.1,0-0.2,0l-0.1-0.1l0,0h0c0,0-0.1,0-0.1,0l-0.1,0c-0.1,0-0.1,0.1-0.1,0.2l0,0.1c-2-1.3-4.1-2.4-6.4-3.1L298.7,18.7z
		 M283,18.7c-2.9,1-5.6,2.4-8,4.3l0,0c-0.3-0.1-0.5-0.1-0.8-0.1c-0.4-0.1-0.6-0.2-1-0.4l-0.3-0.2l0.1,0.3c0.1,0.2,0.1,0.3,0.1,0.5
		c0,0,0,0,0,0h0.2c0,0,0,0,0-0.1c0-0.1,0-0.2,0-0.3c0.2,0.1,0.5,0.2,0.8,0.3c0.1,0,0.2,0,0.3,0.1h1.1c2.6-2,5.6-3.5,8.9-4.4
		L283,18.7L283,18.7z M275.3,18.7c0,0,0.1,0.1,0.1,0.1l0.1,0.1l0.1-0.1H275.3z M272.9,18.7c-0.2,0.3-0.3,0.6-0.3,0.9
		c0,0.7,0.3,1.4,0.8,1.9s1.1,0.9,1.8,0.9c0.3,0,0.6-0.1,0.9-0.3c0.5-0.4,0.7-0.8,0.7-1.3c0-0.4-0.1-0.7-0.4-1.1l0.8-0.9l0.2,0.2
		l0.1,0.1l0.1,0.1c0,0,0.1,0.1,0.1,0.1l0,0c0.1,0.1,0.1,0.2,0.2,0.2c0.1,0,0.1,0.1,0.2,0.1c0,0,0.1,0,0.1,0l0.1-0.1l0,0
		c0,0,0,0,0.1-0.1c0.2-0.1,0.5-0.4,1-0.7h-0.4c-0.5,0.3-0.9,0.6-0.9,0.6l0,0l0,0l-0.1,0.1l0,0l0,0c0,0-0.1-0.1-0.2-0.3l0,0
		c0,0,0,0-0.1-0.1c0.1-0.1,0.3-0.2,0.4-0.4H278c-0.1,0.1-0.2,0.1-0.2,0.2c0,0,0,0,0,0l-0.2-0.2H277l-0.8,0.9l0,0.1
		c0.2,0.4,0.4,0.8,0.4,1.1c0,0.5-0.2,0.8-0.6,1.1c-0.2,0.2-0.5,0.3-0.8,0.3c-0.5,0-1.2-0.3-1.6-0.8c-0.4-0.5-0.8-1.1-0.8-1.7
		c0-0.4,0.1-0.7,0.4-0.9L272.9,18.7z M271.3,18.7c0,0.1-0.1,0.3-0.1,0.4c0,0.1,0,0.1,0,0.2c0,0.3,0.1,0.6,0.2,1l0,0.1l-0.1,0
		c-0.8,0.1-1.5,0.5-1.8,1.2c-0.2,0.3-0.2,0.5-0.2,0.8c0,0.1,0,0.2,0,0.3c0,0.1,0,0.2,0.1,0.3h0.1c0-0.1,0-0.3,0-0.4
		c0-0.1,0-0.2,0-0.3c0-0.3,0.1-0.4,0.2-0.7c0.4-0.6,0.9-1.1,1.7-1.1c0.1,0,0.1,0,0.2-0.1c0,0,0-0.1,0-0.2c-0.1-0.4-0.2-0.6-0.2-0.9
		c0-0.1,0-0.1,0-0.2c0-0.1,0.1-0.3,0.1-0.5H271.3z M271,18.7c0,0.1-0.1,0.3-0.1,0.4c0,0.1,0,0.2,0,0.2c0,0.3,0.1,0.5,0.1,0.8
		c-0.8,0.1-1.5,0.6-1.8,1.3c-0.2,0.3-0.3,0.6-0.3,1c0,0.1,0,0.2,0,0.4c0,0.1,0,0.2,0,0.3h0.4c0-0.1-0.1-0.3-0.1-0.3
		c0-0.1,0-0.2,0-0.3c0-0.3,0.1-0.5,0.2-0.8c0.4-0.7,1-1.1,1.8-1.2l0.1,0l0-0.1c-0.1-0.4-0.2-0.6-0.2-1c0-0.1,0-0.1,0-0.2
		c0-0.1,0-0.3,0.1-0.5L271,18.7z"/>
	<path class="st0" d="M310.3,16l-0.2,0.2h0.3L310.3,16z M284.7,15.1c0.1-0.1,0.2-0.2,0.3-0.2h0.1c0.1,0,0.2,0.1,0.3,0.2
		c0.1,0.1,0.2,0.3,0.2,0.5c0,0.1,0,0.1,0,0.2c0,0.2,0,0.4-0.1,0.5c-0.1,0.1-0.2,0.2-0.3,0.2l-0.1,0c-0.1,0-0.2-0.1-0.3-0.2
		c-0.1-0.1-0.2-0.3-0.2-0.5c0-0.1,0-0.1,0-0.2C284.6,15.4,284.6,15.2,284.7,15.1 M284.6,16.4c0.1,0.2,0.3,0.3,0.5,0.3l0.1,0
		c0.2,0,0.3-0.2,0.4-0.3c0.1-0.2,0.2-0.4,0.2-0.6c0-0.1,0-0.1,0-0.2c0-0.2-0.1-0.5-0.3-0.6c-0.1-0.2-0.3-0.3-0.5-0.3l-0.1,0
		c-0.2,0-0.3,0.2-0.4,0.3c-0.1,0.2-0.2,0.4-0.2,0.6c0,0.1,0,0.1,0,0.2C284.4,16,284.5,16.2,284.6,16.4 M295.1,17.5
		c-1.1-0.1-2.3-0.2-3.5-0.2c-1.2,0-2.4,0.1-3.6,0.2c0.6-0.2,1-0.3,1.6-0.6c0.5-0.2,0.8-0.3,1.2-0.5l0.7,0.4h0.1l0.7-0.4
		c0.5,0.2,0.7,0.3,1.2,0.5C294.1,17.2,294.5,17.4,295.1,17.5 M270.8,18l-0.1-2l4.2-0.2c0,0,0.1,0,0.1,0c0.2,0.3,0.5,0.6,0.7,0.9
		l-2,0.1l0,0.1c0,0,0,0.4,0,1l-0.5,0l0-0.4v-0.1l-1.5,0.1l0,0.5l-0.4,0c0,0,0,0,0,0L270.8,18z M280.7,15.2c0,0-0.1,0-0.1,0
		c-0.1,0-0.2,0.1-0.4,0.1c-0.2,0-0.4,0.1-0.6,0.2c-0.3,0.1-0.5,0.2-0.8,0.3c-0.3,0.1-0.6,0.3-0.9,0.5c-0.2,0.1-0.3,0.2-0.5,0.3
		c-0.1,0.1-0.2,0.2-0.3,0.2c-0.1,0.1-0.2,0.2-0.3,0.3c-0.1,0.1-0.2,0.2-0.3,0.3l-0.3-0.3v0c0.1-0.1,0.1-0.1,0.2-0.2
		c0.1-0.1,0.2-0.2,0.3-0.2c0.1-0.1,0.1-0.1,0.2-0.2c0.2-0.2,0.5-0.4,0.8-0.5s0.4-0.2,0.4-0.2l0,0l0,0v0l0-0.1l0-0.1v0
		c0-0.1,0-0.1,0-0.2c0-0.1,0.1-0.3,0.3-0.3c0.1,0,0.2,0,0.2,0c0,0,0.1,0,0.1,0c0.1,0,0.1,0.1,0.2,0.1c0,0,0.1,0.1,0.1,0.1l0,0.1
		l0.1,0c0,0,0.2-0.1,0.4-0.1c0.2-0.1,0.6-0.2,0.9-0.2c0.1,0,0.1,0,0.2,0c0.1,0,0.2,0,0.4-0.1s0.2,0,0.4,0c0,0,0,0,0,0l0,0.2l0,0.2
		C281.4,15.1,281.1,15.1,280.7,15.2 M281.5,16.4c0,0-0.1,0-0.1,0c-0.3,0.1-0.6,0.2-0.9,0.2c-0.2,0-0.3,0.1-0.4,0.1
		c0,0-0.1-0.1-0.1-0.1c-0.1-0.1-0.3-0.1-0.4-0.1c-0.1,0-0.2,0-0.2,0c0,0-0.1,0-0.1,0c-0.1,0-0.1,0.1-0.2,0.1
		c-0.1,0.1-0.2,0.3-0.2,0.4c0,0.1,0,0.1,0,0.2c0,0,0,0,0,0.1c-0.1,0-0.3,0.2-0.5,0.3c-0.2,0.1-0.4,0.3-0.6,0.4
		c-0.1,0.1-0.2,0.2-0.3,0.3l0,0c-0.2-0.2-0.4-0.5-0.6-0.8c0,0,0,0,0,0c0.1-0.1,0.2-0.2,0.3-0.3c0.2-0.1,0.3-0.3,0.5-0.4
		c0.1-0.1,0.2-0.2,0.3-0.2c0.3-0.2,0.7-0.4,1.1-0.6c0.3-0.1,0.7-0.3,1-0.4c0.1,0,0.3-0.1,0.4-0.1c0.1,0,0.2,0,0.4-0.1c0,0,0,0,0,0
		c0.3,0,0.5-0.1,0.6-0.1c0.1,0,0.1,0,0.2,0c0,0,0,0.1,0,0.1c0.1,0.4,0.1,0.7,0.2,1C281.7,16.4,281.6,16.4,281.5,16.4 M302.3,16.4
		l0.7-0.9l1,0.1L302.3,16.4z M304,15.7l-0.4,0.8l-1.2,0L304,15.7z M304.2,15.9l0.3,1.7l-0.7-0.9L304.2,15.9z M305.9,15.7L305.9,15.7
		l-0.3,0l-0.3,0h0l-0.6-0.1l0.2-0.1l0.1-0.1l0.1-0.1l0,0l0.3-0.2l0,0l1.1,0.6L305.9,15.7z M305,16.4l-0.3,1.2l-0.3-1.8L305,16.4z
		 M304.6,15.7l1.2,0.2l0.4,0l0.3,0l-0.1,0l0,0l-0.2,0l-0.9,0.2L304.6,15.7z M302.4,14.3l0.4,1l-1.1,1.4l0,0.1h0l1.8,0l1.1,1.5h0.1
		l0.5-1.7l1.2-0.3l0.8,0.4c-0.2,0.4-0.1,0.6-0.2,1v0c0,0.4-0.1,0.9-0.2,1.1c0,0,0,0,0,0h0.2c0,0,0-0.1,0.1-0.2c0,0,0,0,0.1,0.1
		c0.1,0,0.1,0,0.2,0h0c0,0,0,0,0,0.1h0.2c0,0,0,0,0-0.1c0-0.1,0-0.1,0-0.1l0-0.1l-0.1,0h0h-0.1l-0.1,0h0c0,0,0,0-0.1-0.1l0-0.1v0
		l0-0.5l0.1-0.6l0,0c0,0,0.1-0.3,0.2-0.5c0-0.1,0.2-0.3,0.3-0.5s0.2-0.3,0.2-0.3c0,0,0.1-0.1,0.2-0.2c0.1-0.1,0.1-0.1,0.2-0.2
		c0.2-0.1,0.3-0.2,0.5-0.3c0,0,0.1,0,0.1,0c0,0,0.1,0.1,0.1,0.1c0,0,0,0.1,0,0.2c0,0.1,0,0.1,0,0.2c0,0.1,0,0.2,0,0.3
		c0,0.2-0.1,0.3-0.2,0.5c0,0,0,0.1,0,0.1c0,0.1-0.1,0.2-0.1,0.2l-0.1,0.2L309,17l0.1,0l0,0l0.1,0l0.1,0v-0.1l0,0v0l0,0l0,0l0,0
		l0.1,0l0.1,0l0,0h0l0,0l0.1,0l0.1,0l0.1,0l0.1,0h0l0.1,0l0-0.1c0-0.1,0-0.1-0.1-0.2c0-0.1-0.1-0.1-0.2-0.2c-0.1,0-0.1-0.1-0.2-0.1
		l-0.1,0l0,0h0l0.1-0.1l0,0l0.1,0h0l0,0l0.1-0.1l0,0h0l0,0l0.1-0.1h0l0.1,0l0,0h0l0.1,0l0.1,0l0.1,0.1l0,0l0,0l0,0.1l0.3-0.1
		l0.2,0.5l-0.1,0l-0.1,0v0.1l0,0l0,0.1c0,0.1,0,0.1-0.1,0.1l-0.1,0.1l-0.1,0l0,0l-0.1,0.2l-0.1,0.1l0.1,0.1l0,0l0.1,0.2
		c0,0,0,0.1-0.1,0.1l-0.1,0.1l-0.1,0l-0.1,0l0.2,0.4l0,0.1l0.1-0.1c0,0,0.1,0,0.2-0.1c0.1,0,0.1-0.1,0.2-0.1c0,0,0,0,0.1,0
		c0.1,0,0.1,0,0.2,0l0,0c0.1,0,0.1,0,0.2,0.1c0.1,0.1,0.1,0.1,0.1,0.2c0,0.1,0,0.1,0,0.2l0,0c0,0,0,0.1,0,0.1h0.3c0,0,0-0.1,0-0.1
		v-0.1c0-0.1,0-0.2-0.1-0.3c0-0.1-0.1-0.2-0.2-0.3l0,0c-0.2-0.1-0.4-0.2-0.5-0.2l0,0c0-0.1,0-0.1,0-0.2l0-0.1l0.1-0.1l0,0l0.1-0.2
		l0.4-0.1c0.1,0,0.2-0.2,0.1-0.3l-0.4-1.1c0-0.1-0.1-0.1-0.1-0.1c0,0-0.1,0-0.2,0l-0.3,0.1l-0.2-0.1l-0.1,0h-0.5l-0.1,0l-0.4,0.2v0
		c0-0.1,0-0.1,0-0.2c0,0,0-0.1,0-0.1c0,0,0-0.1,0-0.2l-0.2-0.7h-0.3l0,0l0.1,0.5l0,0.1c0,0,0,0-0.1,0c0,0,0,0,0,0c0,0,0,0-0.1,0
		c-0.2,0.1-0.4,0.1-0.5,0.2c-0.4,0.3-0.8,0.6-1,1.1l-0.5-0.3L307,16l0-0.1v0l-1.5-1l0-0.6h-0.2v0.6l-0.5,0.2l0,0l-0.1,0l0,0
		l-0.1,0.1l-0.1,0l0,0l0,0l0-0.1l0-0.1l0.4-0.8h-0.2l-0.3,0.7l0,0l0,0.1l0,0.1l0,0l0,0.1l0-0.1l0,0l0-0.1l0-0.1l0,0l-0.1-0.5l0.1,0
		h-0.5l0.2,0.1l0.1,0.4l0,0l0,0.1l0,0.1l0,0l0,0.2l-0.4-0.4c-0.2-0.2-0.4-0.4-0.6-0.6h-0.3l0,0l0,0l0.3,0.2l0,0l0.9,0.8l-0.9-0.1
		l-0.4-0.9l0-0.1L302.4,14.3L302.4,14.3z M296.1,14.3c-0.1,0.1-0.1,0.2-0.1,0.3v0c0,0.1,0,0.1,0,0.2L296,15l0.2-0.1
		c0,0.1,0.1,0.1,0.1,0.2c0.1,0.1,0.1,0.2,0.1,0.4c0,0,0,0.1,0,0.1c0,0,0,0.1,0,0.1l0,0c0,0.1,0,0.2-0.1,0.3l-0.1,0.1l0.1,0.1
		c0.2,0.2,0.4,0.4,0.5,0.7c0.1,0.1,0.2,0.2,0.2,0.4l0,0.2l0,0.5l0,0.1c-0.4-0.1-0.9-0.2-1.3-0.2c0,0,0,0,0,0c0-0.1,0-0.1-0.1-0.1
		c-0.9-0.2-1.3-0.4-2.2-0.7c-0.5-0.2-0.8-0.3-1.2-0.5l-0.1,0l-0.7,0.4l-0.7-0.4l-0.1,0c-0.5,0.2-0.7,0.3-1.2,0.5
		c-0.8,0.3-1.3,0.5-2.2,0.7c-0.1,0-0.1,0.1-0.1,0.1c0,0,0,0,0,0c-1.5,0.2-2.9,0.6-4.3,1.1h1.5c2.3-0.6,4.6-1,7.1-1
		c2.5,0,4.9,0.3,7.1,1h1.5c-0.7-0.2-1.5-0.5-2.2-0.6l0-0.4v0l-0.2-0.3c-0.1-0.2-0.1-0.4-0.2-0.6c-0.1-0.2-0.2-0.4-0.3-0.6
		c0.1-0.1,0.2-0.1,0.2-0.2c0-0.1,0.1-0.1,0.1-0.2c0-0.1,0.1-0.2,0.1-0.3c0,0,0,0,0,0.1c0.1,0.2,0.1,0.3,0.1,0.5v0.1l0,0
		c0.1,0.1,0.2,0.2,0.3,0.3c0.1,0.1,0.2,0.2,0.4,0.3l0,0l0.3,0.2l0,0l0.3-0.1l0.9,0.2c0.2,0.3,0.4,0.5,0.7,0.7l0,0h0
		c1,0.5,1.2,0.9,1.4,1.1h0.2l0-0.1l0,0c-0.2-0.3-0.5-0.7-1.5-1.2c-0.5-0.3-0.8-0.8-0.8-1.4c0-0.2,0-0.4,0.1-0.6
		c0.1-0.2,0.5-0.6,0.8-0.8l0,0c0.1-0.1,0.2-0.2,0.3-0.3h-0.6l0,0.2c-0.2,0.2-0.5,0.5-0.6,0.8c0,0.1-0.1,0.2-0.1,0.3l-0.2,0.2l0,0
		c-0.1,0.1-0.3,0.3-0.4,0.3l-0.1,0c-0.1,0-0.1,0-0.2,0c0,0,0,0-0.1,0l-0.5-0.4c0,0,0-0.1,0.1-0.2c0-0.1,0.1-0.2,0.1-0.3
		c0-0.1,0-0.2,0-0.3c0-0.1,0-0.1,0-0.2l0-0.1l0,0l0,0l0,0c0,0,0.1-0.1,0.1-0.1c0.1-0.1,0.2-0.2,0.4-0.3h-0.3c0,0-0.1,0.1-0.2,0.1
		c0,0-0.2,0.1-0.2,0.1l-0.1,0l0,0.1c0,0.1,0.1,0.1,0.1,0.1l0,0l0,0l0,0.1h0c0,0,0,0.1,0,0.2c0,0.1,0,0.2,0,0.2c0,0,0,0.1,0,0.2
		s-0.1,0.2-0.1,0.2l0,0.1l0.6,0.5l0,0c0,0,0.2,0,0.3,0l0.1,0c0.1,0,0.3-0.1,0.4-0.2v0.1v0l0.1,0.2l-0.6-0.1h0l-0.3,0.1l-0.2-0.2v0
		c-0.1-0.1-0.2-0.2-0.4-0.3c-0.1-0.1-0.2-0.2-0.3-0.2c0-0.2,0-0.4-0.2-0.6c-0.1-0.1-0.1-0.2-0.3-0.3l-0.2-0.1l0,0.2
		c0,0.2,0,0.3-0.1,0.5c0,0.1-0.1,0.1-0.1,0.2c0,0-0.1,0.1-0.2,0.2l-0.1,0.1l0,0.1c0.1,0.2,0.2,0.4,0.3,0.6c0.1,0.2,0.2,0.4,0.3,0.6
		l0,0l0.2,0.3v0.1l-0.4-0.1l0-0.4v0l0-0.3v0l0,0c-0.1-0.2-0.2-0.3-0.3-0.4c-0.2-0.2-0.3-0.4-0.5-0.6c0.1-0.1,0.1-0.2,0.1-0.3
		c0-0.1,0-0.1,0-0.2c0,0,0-0.1,0-0.1v0c0-0.2-0.1-0.3-0.1-0.4c-0.1-0.1-0.1-0.2-0.2-0.4l-0.1-0.1l-0.2,0.1c0-0.1,0.1-0.1,0.2-0.2
		l0.1,0l0-0.1c0,0,0,0,0,0L296.1,14.3z M293.2,14.3c-0.1,0.1-0.2,0.3-0.4,0.4v0c-0.2,0.3-0.4,0.4-0.6,0.6l0,0.1l0,0.1
		c0.2,0.2,0.4,0.3,0.7,0.4c0.3,0.2,0.5,0.3,0.8,0.4c0.7,0.3,0.9,0.3,1.9,0.4l0.1,0l0-0.1c-0.1-0.2-0.1-0.5-0.1-0.7v-0.1
		c0-0.3,0.1-0.5,0.2-0.8c0,0,0-0.1-0.1-0.1l-0.5-0.2l-0.1,0l0,0.1c0,0.1-0.1,0.2-0.2,0.3c-0.1,0.1-0.2,0.1-0.4,0.1
		c-0.1,0-0.2,0-0.3-0.1c-0.1-0.1-0.1-0.2-0.2-0.3l0.1-0.4v0h-0.4l0.2,0.1l-0.1,0.3v0c0,0.2,0.1,0.4,0.2,0.5c0.1,0.1,0.3,0.2,0.5,0.2
		s0.4-0.1,0.5-0.2c0.1-0.1,0.2-0.2,0.2-0.3l0.3,0.1c-0.1,0.2-0.1,0.4-0.1,0.7v0.1c0,0.2,0,0.4,0.1,0.6c-0.9,0-1-0.1-1.7-0.3
		c-0.3-0.1-0.5-0.2-0.8-0.4c-0.2-0.1-0.4-0.2-0.5-0.3c0.2-0.2,0.3-0.3,0.5-0.5c0.2-0.2,0.3-0.4,0.5-0.6L293.2,14.3z M290.4,14.3
		c0.3,0.4,0.7,0.7,1,0.9h0.1c0.4-0.3,0.6-0.5,0.9-0.9h-0.3c-0.2,0.3-0.4,0.5-0.7,0.7c-0.3-0.2-0.5-0.4-0.8-0.7L290.4,14.3z
		 M289,14.3L289,14.3l0.1,0.4c0,0.1,0,0.2-0.2,0.3c-0.1,0.1-0.2,0.1-0.3,0.1c-0.1,0-0.3,0-0.4-0.1c-0.1-0.1-0.1-0.2-0.2-0.3
		l-0.1-0.1l-0.1,0l-0.5,0.2c-0.1,0-0.1,0.1-0.1,0.1c0.1,0.3,0.1,0.5,0.2,0.8v0.1c0,0.2,0,0.5-0.1,0.7l0,0.1l0.1,0
		c1,0,1.2-0.1,1.9-0.4c0.3-0.1,0.5-0.2,0.8-0.4c0.3-0.2,0.4-0.3,0.7-0.4l0-0.1l0-0.1c-0.3-0.2-0.4-0.4-0.6-0.6
		c-0.1-0.2-0.2-0.3-0.4-0.4h-0.3c0.2,0.2,0.3,0.4,0.5,0.6c0.2,0.2,0.3,0.4,0.5,0.5c-0.2,0.1-0.3,0.2-0.5,0.3
		c-0.3,0.2-0.5,0.3-0.8,0.4c-0.7,0.2-0.8,0.3-1.7,0.3c0.1-0.2,0.1-0.4,0.1-0.6l0-0.1c0-0.3-0.1-0.5-0.1-0.8l0.3-0.1
		c0,0.1,0.1,0.2,0.2,0.3c0.1,0.1,0.3,0.2,0.5,0.2c0.2,0,0.3-0.1,0.5-0.2c0.1-0.1,0.2-0.3,0.2-0.5v0l-0.1-0.3l0.2-0.1L289,14.3
		L289,14.3z M274.2,14.3c0,0.1-0.1,0.2-0.1,0.3c0,0.1,0,0.3,0.1,0.4l0,0c0,0,0.1,0.1,0.2,0.4l-4,0.2c-0.1,0-0.1,0-0.2,0.1
		c0,0-0.1,0.1,0,0.2l0.1,2.4c0,0.1,0.1,0.2,0.2,0.2h0.4c0,0.1,0,0.1-0.1,0.2h0.3c0-0.1,0-0.2,0.1-0.2c0,0,0,0,0,0
		c0-0.1,0.1-0.2,0.1-0.2c0,0,0,0,0,0l-0.2-0.1l0.2,0.1c0,0,0,0,0,0c0,0,0,0.1-0.1,0.2c0,0,0,0,0,0c0,0.1,0,0.1-0.1,0.2h0.1
		c0.1-0.2,0.1-0.3,0.1-0.4c0,0,0-0.1,0-0.1l0.5,0l0-0.5l1,0l0,0.4l0,0.1l0.9-0.1V18c0-0.5,0-0.8,0-1l1.9-0.1c0,0,0.1,0.1,0.1,0.1
		l0,0l0.4,0.5l-0.9,1c-0.4-0.2-0.8-0.4-1.3-0.4c-0.3,0-0.7,0.1-1,0.3c-0.1,0.1-0.2,0.1-0.2,0.2h0.3c0,0,0,0,0.1-0.1
		c0.2-0.2,0.5-0.3,0.8-0.3c0.4,0,0.8,0.1,1.1,0.3h0.4l0.9-1c0.2,0.3,0.5,0.6,0.6,0.8l0,0l0,0l-0.1,0.1h0.5l-0.1-0.1l0,0
		c0.1-0.1,0.2-0.2,0.3-0.3c0.2-0.2,0.5-0.4,0.8-0.5c0.2-0.1,0.4-0.2,0.4-0.2l0.1,0l0-0.1l0-0.1c0-0.2,0.1-0.4,0.3-0.5
		c0.1,0,0.1,0,0.2,0c0.2,0,0.3,0.1,0.5,0.2l0,0.1l0.1,0c0,0,0.2-0.1,0.4-0.1c0.3-0.1,0.6-0.2,0.8-0.2c0,0,0,0,0,0
		c0.1,0,0.2,0,0.4-0.1l0,0v0l0.1,0.4c-0.3,0.1-1.5,0.3-2.2,0.6c-0.7,0.4-1.2,0.7-1.7,1.1h0.3c0.4-0.3,0.8-0.6,1.4-0.9
		c0.4-0.2,1-0.4,1.5-0.5c0.3-0.1,0.6-0.1,0.7-0.1c0,0,0,0.1,0,0.1c0,0.2,0,0.3,0,0.4v0c0,0-0.1,0-0.1,0l0,0c0,0-0.8,0.1-1.9,0.6
		c-0.3,0.1-0.6,0.3-0.8,0.4h0.4c0.1-0.1,0.3-0.1,0.4-0.2c0.5-0.2,1-0.4,1.3-0.5c0.2,0,0.3-0.1,0.4-0.1c0.1,0,0.1,0,0.1,0
		c0.1,0,0.1,0,0.2,0l0.1-0.1l0-0.1c0-0.1,0-0.2,0-0.4l0,0c0,0,0-0.1,0-0.1l0,0c0-0.1,0-0.3-0.1-0.6l1.4-0.1c0.2,0.5,0.4,0.8,0.7,1
		c0.3,0.2,0.6,0.3,1,0.3c0.1,0,0.3,0,0.5,0c0.5-0.1,0.8-0.4,1-0.8s0.3-0.8,0.3-1.3c0-0.1,0-0.3,0-0.4c0-0.4-0.1-0.7-0.3-1.1h-0.2
		c0.2,0.3,0.3,0.7,0.4,1.1c0,0.1,0,0.2,0,0.4c0,0.4-0.1,0.9-0.3,1.2c-0.2,0.3-0.5,0.6-0.9,0.6c-0.1,0-0.3,0-0.4,0
		c-0.3,0-0.6-0.1-0.9-0.3c-0.2-0.2-0.5-0.5-0.6-1l0-0.1h-0.1l-1.5,0.1v0l0,0c0-0.3-0.1-0.6-0.2-1l1.8-0.1l0-0.1
		c0-0.3,0.1-0.6,0.2-0.9h-0.2c-0.1,0.2-0.2,0.5-0.2,0.7l-1.6,0.1c0-0.1-0.1-0.3-0.1-0.4l-0.1-0.3h0c0,0,0,0,0-0.1h-0.2
		c0,0,0,0,0,0.1c0,0,0,0,0,0c0,0,0,0-0.1,0c-0.1,0-0.2,0-0.4,0c-0.1,0-0.3,0-0.5,0.1c-0.5,0.1-1.1,0.3-1.2,0.4c0,0,0,0-0.1-0.1
		c-0.1,0-0.1-0.1-0.2-0.1c-0.1,0-0.2-0.1-0.3-0.1c-0.1,0-0.2,0-0.3,0.1c-0.2,0.1-0.4,0.3-0.4,0.5c0,0,0,0.1,0,0.2v0.1c0,0,0,0,0,0
		c-0.2,0.1-0.7,0.4-1.1,0.7c-0.1,0.1-0.3,0.2-0.4,0.4c-0.1,0.1-0.2,0.1-0.2,0.2c0-0.1-0.1-0.1-0.1-0.2c-0.1-0.2-0.3-0.4-0.5-0.6
		c0.1-0.1,0.2-0.2,0.4-0.4c0.1-0.1,0.2-0.2,0.3-0.2c0.4-0.4,1-0.8,1.6-1.1h-0.4c-0.6,0.4-1.1,0.8-1.5,1.1c-0.1,0.1-0.2,0.2-0.3,0.2
		c-0.1,0.1-0.1,0.1-0.2,0.2l-0.1-0.2l-0.1-0.2c0,0,0,0,0.1-0.1c0.2-0.2,0.6-0.6,0.9-0.8c0.2-0.1,0.4-0.3,0.5-0.4h-0.4
		c-0.1,0.1-0.2,0.1-0.3,0.2c-0.3,0.2-0.8,0.6-1,0.8c0,0,0,0,0,0c-0.2-0.3-0.4-0.5-0.4-0.5l0,0c-0.1-0.1-0.1-0.2-0.1-0.3
		c0-0.1,0-0.2,0.1-0.2L274.2,14.3z"/>
	<path class="st0" d="M298.9,10l-0.2,0.2h0.4L298.9,10z M287.1,14c0,0,0.1,0.1,0.1,0l0.6-0.2l0.1-0.1c0-0.1,0-0.2,0.1-0.3
		c0.1-0.1,0.2-0.1,0.4-0.1c0.1,0,0.2,0,0.2,0.1c0.1,0.1,0.1,0.2,0.2,0.2l0.1,0.1h0.1l0.4-0.2c0,0,0.1-0.1,0.1-0.1
		c-0.1-0.2-0.1-0.3-0.1-0.5c0-0.2,0-0.3,0-0.4v-0.1l-0.1-0.1c-0.2-0.1-0.2-0.1-0.4-0.2c-0.2-0.1-0.2-0.2-0.4-0.4l-0.1,0l0,0.1
		c0.1,0.2,0.2,0.3,0.4,0.4v0c0.1,0.1,0.2,0.2,0.4,0.2v0c0,0.2,0,0.3,0,0.5c0,0.1,0.1,0.3,0.1,0.4l-0.2,0.1c0-0.1-0.1-0.1-0.2-0.2
		c-0.1-0.1-0.2-0.2-0.4-0.2c-0.2,0-0.4,0.1-0.6,0.2c-0.1,0.1-0.2,0.2-0.2,0.4l-0.4,0.2c-0.1-0.1-0.2-0.3-0.3-0.5
		c-0.2-0.3-0.4-0.4-0.6-0.6l1.5-1.8l0-0.1c-0.1-0.1-0.1-0.2-0.2-0.4c-0.1-0.2-0.1-0.2-0.1-0.4v0V10c0-0.1,0-0.2,0.1-0.3
		c0.1-0.2,0.1-0.2,0.3-0.4c0.2-0.1,0.3-0.2,0.5-0.2h0c0.2,0,0.3,0,0.5,0.1c0.1,0,0.2,0.1,0.2,0.2c0,0.1,0,0.1,0,0.2
		c0,0.1,0,0.2-0.1,0.3l-0.3,0.4c-0.1,0.1-0.2,0.2-0.2,0.4v0c0,0.1,0.1,0.3,0.1,0.4c0.1,0.1,0.2,0.2,0.4,0.3c0.1,0.1,0.2,0.1,0.4,0.1
		h0.1c0.1,0,0.2,0,0.3-0.1c0.2,0,0.3-0.1,0.4-0.3c0.1-0.1,0.2-0.3,0.2-0.5h2.4c0,0.2,0,0.3,0.2,0.5c0.1,0.1,0.2,0.2,0.4,0.3
		c0.1,0,0.2,0.1,0.3,0.1h0.1c0.1,0,0.2,0,0.4-0.1c0.2-0.1,0.3-0.2,0.4-0.3c0.1-0.1,0.1-0.2,0.1-0.4v0c0-0.1-0.1-0.3-0.2-0.4l0,0
		l-0.3-0.4C294,9.8,294,9.8,294,9.7c0-0.1,0-0.1,0-0.2c0-0.1,0.1-0.2,0.2-0.2c0.1-0.1,0.3-0.1,0.4-0.1h0c0.2,0,0.3,0,0.5,0.2
		c0.1,0.1,0.2,0.2,0.3,0.4c0,0.1,0.1,0.2,0.1,0.3v0.1v0c0,0.2-0.1,0.2-0.1,0.4c-0.1,0.1-0.1,0.2-0.2,0.4V11l1.5,1.8
		c-0.3,0.2-0.4,0.4-0.6,0.6c-0.1,0.1-0.2,0.4-0.3,0.5l-0.4-0.2c0-0.1-0.1-0.3-0.2-0.4c-0.1-0.1-0.3-0.2-0.6-0.2
		c-0.2,0-0.3,0.1-0.4,0.2c-0.1,0.1-0.1,0.1-0.2,0.2l-0.2-0.1c0-0.1,0.1-0.2,0.1-0.4c0-0.2,0-0.3,0-0.5v0c0.1-0.1,0.2-0.1,0.4-0.2
		c0.2-0.1,0.3-0.2,0.4-0.4l0-0.1l-0.1,0c-0.1,0.2-0.2,0.2-0.4,0.4c-0.1,0.1-0.2,0.2-0.4,0.2l-0.1,0.1v0.1c0,0.2,0,0.3,0,0.4
		c0,0.2-0.1,0.3-0.1,0.5c0,0.1,0,0.1,0.1,0.1l0.4,0.2h0.1l0.1-0.1c0-0.1,0.1-0.2,0.2-0.2c0.1-0.1,0.2-0.1,0.2-0.1
		c0.2,0,0.4,0.1,0.4,0.1c0.1,0.1,0.1,0.2,0.1,0.3l0.1,0.1l0.6,0.2c0,0,0.1,0,0.1,0c0,0,0-0.1,0.1-0.2c0.1-0.1,0.1-0.2,0.2-0.3
		c0.2-0.3,0.4-0.5,0.7-0.6l0-0.1l0-0.1l-1.6-1.8c0.1-0.1,0.1-0.2,0.2-0.3c0.1-0.1,0.1-0.3,0.2-0.5V10c0-0.1,0-0.2-0.1-0.4
		c-0.1-0.2-0.2-0.3-0.3-0.5c-0.2-0.1-0.4-0.2-0.7-0.2h0c-0.2,0-0.4,0-0.5,0.1c-0.2,0.1-0.3,0.2-0.4,0.4c0,0.1,0,0.2,0,0.3
		c0,0.1,0,0.3,0.1,0.4v0l0.3,0.4l0,0c0.1,0.1,0.1,0.1,0.1,0.3v0c0,0.1,0,0.2-0.1,0.3l0,0c-0.1,0.1-0.1,0.2-0.3,0.2v0
		c-0.1,0-0.2,0.1-0.3,0.1h-0.1c-0.1,0-0.1,0-0.2,0c-0.1,0-0.2-0.1-0.3-0.2c-0.1-0.1-0.1-0.2-0.1-0.4v-0.1l0-0.1l-0.1,0h-2.6l-0.1,0
		l0,0.1l0,0.1c0,0.1,0,0.2-0.1,0.4c-0.1,0.1-0.1,0.1-0.3,0.2c-0.1,0-0.1,0-0.2,0h0c-0.1,0-0.2,0-0.3-0.1v0c-0.1-0.1-0.2-0.1-0.3-0.2
		c-0.1-0.1-0.1-0.2-0.1-0.3v0c0-0.1,0-0.2,0.1-0.3v0l0.3-0.4v0c0.1-0.1,0.1-0.3,0.1-0.4c0-0.1,0-0.2,0-0.3c-0.1-0.2-0.2-0.3-0.4-0.4
		c-0.2-0.1-0.4-0.1-0.5-0.1h0c-0.3,0-0.5,0-0.7,0.2c-0.2,0.1-0.3,0.3-0.4,0.5c0,0.1-0.1,0.2-0.1,0.4l0,0.1c0,0.2,0.1,0.3,0.1,0.5
		c0.1,0.1,0.1,0.2,0.2,0.3l-1.6,1.8l0,0.1l0,0.1c0.3,0.2,0.5,0.4,0.7,0.6l0,0c0.1,0.1,0.2,0.2,0.2,0.3C287,13.9,287.1,14,287.1,14
		 M281.3,12.8l3-3.2l1.5,1.4l-0.7,0.8l-0.3-0.3l-0.1-0.1l-1,1.1l0.4,0.4l-0.3,0.3c-0.5-0.4-0.7-0.7-0.7-0.7l-0.1-0.1l-1.5,1.6
		c-0.1-0.3-0.2-0.7-0.2-1L281.3,12.8C281.3,12.8,281.3,12.8,281.3,12.8 M290.3,9.5L290.3,9.5l-0.1-0.1L290.3,9.5z M288.4,6.1
		L288.4,6.1c0.1,0.5,0.2,0.7,0.5,1.2c0.1,0.2,0.2,0.3,0.3,0.4c0,0,0,0,0,0h0c0.2,0.1,0.3,0.3,0.4,0.4c0.2,0.2,0.3,0.4,0.5,0.6
		c0.1,0.1,0.1,0.2,0.2,0.3c0,0,0,0,0,0c0-0.1-0.1-0.2-0.1-0.3c-0.1-0.2-0.3-0.4-0.5-0.6c-0.1-0.1-0.2-0.2-0.4-0.4h0c0,0,0,0,0,0
		c-0.1-0.1-0.2-0.2-0.3-0.4C288.6,6.9,288.5,6.6,288.4,6.1 M288,5.3h7.1v0.6H288V5.3z M289.7,4.1c0.3-0.3,0.8-0.5,1.3-0.5h0.1V2
		h-0.9V1.4h0.9V0.5h0.9v0.9h0.9V2H292v1.5h0.1c0.6,0,1,0.2,1.3,0.5c0.3,0.3,0.4,0.6,0.5,1h-4.7C289.2,4.7,289.4,4.4,289.7,4.1
		 M294.9,6.2C294.9,6.2,294.9,6.2,294.9,6.2c0,0.1,0,0.1,0,0.2c-0.1,0.4-0.2,0.7-0.5,1.1l0,0c0.2-0.4,0.4-0.7,0.5-1
		C294.9,6.3,294.9,6.2,294.9,6.2C294.9,6.2,294.9,6.2,294.9,6.2S294.9,6.1,294.9,6.2L294.9,6.2C294.9,6.1,294.9,6.1,294.9,6.2
		 M289.2,6.1h4.6c-0.1,0.5-0.2,0.9-0.5,1.3c-0.7,0.8-1.4,1-1.8,1.1c-0.4-0.1-1.1-0.3-1.8-1.1C289.5,7,289.4,6.7,289.2,6.1
		 M290.4,9.3L290.4,9.3C290.4,9.3,290.4,9.3,290.4,9.3L290.4,9.3L290.4,9.3C290.4,9.3,290.4,9.3,290.4,9.3 M294.4,7.4
		c-0.1,0.2-0.2,0.3-0.3,0.5l0,0h0c-0.1,0.1-0.2,0.2-0.3,0.2c-0.1,0.1-0.3,0.2-0.4,0.3c-0.3,0.2-0.5,0.5-0.6,0.9c0,0,0,0,0,0l0,0
		h-2.3c0,0,0,0,0-0.1v0l0,0c0,0,0,0,0-0.1c-0.1-0.3-0.3-0.6-0.5-0.8c-0.2-0.3-0.4-0.5-0.7-0.7c-0.1-0.1-0.2-0.2-0.3-0.4
		c-0.3-0.5-0.4-0.6-0.5-1.1h0.6c0.1,0.6,0.2,1,0.6,1.4c0.7,0.9,1.5,1.1,1.9,1.2l0,0l0,0c0.4-0.1,1.2-0.3,1.9-1.2
		c0.4-0.4,0.5-0.8,0.6-1.4h0.5c-0.1,0.5-0.2,0.7-0.5,1.1c-0.1,0.2-0.2,0.3-0.3,0.4c-0.4,0.3-0.6,0.5-0.8,0.9
		c-0.2,0.2-0.3,0.4-0.4,0.7c0,0,0,0,0,0.1h-1.1h1.2l0,0c0,0,0,0,0,0c0.1-0.4,0.4-0.7,0.6-0.9c0.1-0.1,0.2-0.2,0.4-0.3
		c0.1-0.1,0.2-0.1,0.3-0.2h0l0,0l0,0C294.2,7.7,294.3,7.6,294.4,7.4L294.4,7.4z M301.7,12.4c0,0.4-0.1,0.8-0.3,1.2
		c-0.1,0.2-0.2,0.3-0.3,0.4c0,0,0,0,0,0l-0.2-1.2l0,0c0,0-0.1-0.1-0.1-0.1s-0.1-0.1-0.2-0.1c-0.1,0-0.2,0-0.3,0
		c0-0.1,0.1-0.2,0.1-0.3l0,0c0-0.1,0-0.2,0-0.3c0,0,0-0.1,0-0.1l0.2-0.1h0l0,0c0,0,0.2-0.1,0.2-0.1l0,0c0.1,0,0.1,0,0.2,0.1
		c0,0,0.1,0.1,0.1,0.2l0,0.1v0l-0.1,0.2l0,0l0.4,0.7L301.7,12.4z M290.3,9.6h-0.1C290.3,9.6,290.3,9.6,290.3,9.6 M293.4,14.3
		C293.5,14.3,293.5,14.3,293.4,14.3h0.2h0.4c0,0,0-0.1-0.1-0.1l-0.5-0.2l-0.1,0c-0.1,0.1-0.1,0.2-0.2,0.3L293.4,14.3L293.4,14.3z
		 M290.7,14.3c-0.1-0.1-0.1-0.1-0.2-0.2c-0.3-0.4-0.5-0.6-0.6-1c-0.1-0.3-0.1-0.5-0.1-0.8c0.2,0,0.4-0.1,0.6-0.2
		c0.2-0.1,0.3-0.3,0.4-0.5c0.2,0,0.4,0.1,0.6,0.1h0c0.2,0,0.4-0.1,0.6-0.1c0.1,0.2,0.2,0.3,0.5,0.5s0.4,0.2,0.6,0.2
		c0,0.3,0,0.5-0.1,0.8c-0.1,0.4-0.3,0.6-0.6,1c0,0.1-0.1,0.1-0.1,0.2h0.3c0,0,0,0,0-0.1c0.3-0.4,0.5-0.6,0.6-1.1
		c0.1-0.4,0.1-0.6,0.1-0.9v0c0-0.1,0-0.1-0.1-0.1c-0.3,0-0.4-0.1-0.6-0.2c-0.2-0.1-0.3-0.2-0.4-0.5l-0.1,0c-0.2,0-0.4,0.1-0.6,0.1
		c-0.2,0-0.5-0.1-0.7-0.1l-0.1,0c-0.1,0.2-0.2,0.3-0.4,0.5c-0.2,0.1-0.3,0.2-0.6,0.2c-0.1,0-0.1,0-0.1,0.1v0c0,0.4,0,0.6,0.2,0.9
		c0.1,0.5,0.3,0.7,0.6,1.1c0,0,0,0,0,0.1H290.7z M289.4,14.3l0.2-0.1c0,0,0,0,0,0.1h0.3c-0.1-0.1-0.1-0.2-0.2-0.3l-0.1,0l-0.5,0.2
		c0,0-0.1,0.1-0.1,0.1L289.4,14.3L289.4,14.3z M283.8,14.3c0-0.1,0.1-0.1,0.1-0.2c0.2-0.3,0.5-0.6,0.9-0.7c0.1,0,0.2,0,0.3,0
		c0.4,0,0.8,0.2,1.1,0.6c0.1,0.1,0.1,0.2,0.2,0.3h0.2c-0.1-0.1-0.2-0.3-0.2-0.4c-0.3-0.4-0.8-0.7-1.3-0.7c-0.1,0-0.2,0-0.3,0
		c-0.5,0.1-0.8,0.4-1,0.8c-0.1,0.1-0.1,0.2-0.2,0.3L283.8,14.3L283.8,14.3z M274.6,14.3c0.1-0.1,0.2-0.2,0.3-0.4l0,0
		c0.3-0.3,0.7-0.6,1.3-1c0.2-0.1,0.3-0.3,0.3-0.5c0-0.1,0-0.2,0-0.2c0-0.1-0.1-0.2-0.1-0.3c0-0.3,0.1-0.5,0.4-0.6
		c0.1,0,0.2-0.1,0.3-0.1c0.3,0,0.5,0.1,0.6,0.4c0.1,0.2,0.3,0.3,0.5,0.3c0.1,0,0.2,0,0.2,0c0.6-0.2,1.2-0.3,1.7-0.3l0,0
		c0.1,0,0.1,0,0.2,0c0.1,0,0.3,0,0.4,0.1c0.1,0,0.1,0.1,0.2,0.2c0,0,0,0,0,0.1l0,0c0,0,0,0.1,0.1,0.3c0,0.1,0,0.2,0.1,0.4h0
		c-0.3,0-0.9,0.1-1.3,0.2c-0.5,0.1-1,0.3-1.2,0.4c-0.1-0.1-0.4-0.2-0.6-0.2c-0.1,0-0.2,0-0.3,0.1c-0.3,0.1-0.5,0.4-0.5,0.7
		c0,0,0,0,0,0.1c-0.1,0.1-0.5,0.3-0.8,0.5h0.4c0.1,0,0.1-0.1,0.2-0.1c0.2-0.1,0.4-0.2,0.4-0.2l0.1,0l0-0.1l0-0.1
		c0-0.2,0.1-0.4,0.3-0.5c0.1,0,0.2,0,0.2,0c0.2,0,0.3,0.1,0.4,0.2l0,0.1l0.1,0c0,0,0.2-0.1,0.4-0.1c0.2-0.1,0.6-0.2,0.9-0.2
		c0.3-0.1,0.8-0.1,1.1-0.2c0.1,0,0.1,0,0.2,0l0,0l0,0.1l0,0.1l0,0.1c-0.1,0-0.2,0-0.4,0c-0.1,0-0.2,0-0.4,0
		c-0.7,0.1-1.5,0.3-2.4,0.7c-0.2,0.1-0.4,0.2-0.6,0.3h0.4c0.1,0,0.2-0.1,0.3-0.1c0.7-0.3,1.5-0.5,2.1-0.6c0.1,0,0.2,0,0.4,0
		c0.2,0,0.5-0.1,0.6-0.1c0.1,0.2,0.1,0.5,0.2,0.7c0,0.1,0,0.1,0,0.2h0.2c0,0,0-0.1,0-0.1l1.5-1.6c0.1,0.1,0.4,0.3,0.7,0.7l0.1,0.1
		l0.6-0.7l-0.4-0.4l0.7-0.8l0.3,0.3l0.1,0.1l0.9-1c0,0,0.1,0,0.1,0c0.1,0,0.1-0.1,0.1-0.2c0-0.2,0-0.4,0-0.6c0-0.8,0.2-1.2,0.6-1.5
		c0.4-0.3,0.8-0.4,1.3-0.4c0.5,0,1,0.1,1.3,0.3c0.1,0,0.1,0.1,0.2,0.2c0,0.1,0.1,0.1,0.2,0.2c0.1,0.1,0.1,0.2,0.2,0.2
		c0,0.1,0.1,0.1,0.1,0.2c0,0,0,0,0,0v0c0,0.1,0.1,0.1,0.1,0.1v0h1.3l1.2,0h0.1l0,0l0,0l0,0h-0.1c0.1,0,0.2,0,0.3-0.1
		c0.1-0.2,0.1-0.3,0.3-0.5c0,0,0-0.1,0.1-0.1c0.1-0.1,0.2-0.2,0.4-0.3c0.3-0.2,0.7-0.3,1.3-0.3c0.5,0,0.9,0.1,1.3,0.5
		c0.3,0.3,0.6,0.8,0.6,1.5c0,0.1,0,0.3,0,0.5c0,0.1,0,0.2,0.1,0.2c0.1,0,0.2,0,0.2,0l0.6-0.6l0,0l-0.1,0.1l-0.1,0.1l0.4,0.1h0l0,0
		c0,0.2,0.1,0.3,0.2,0.5v0c0.1,0.2,0.1,0.3,0.2,0.4l0,0.1c0,0.1-0.1,0.1-0.1,0.2s-0.1,0.1-0.1,0.2c-0.2,0.2-0.4,0.3-0.6,0.5
		c-0.2,0.2-0.3,0.3-0.5,0.5c-0.3,0.1-0.5,0.2-0.6,0.5c-0.2,0.2-0.3,0.4-0.4,0.7c0,0-0.1,0-0.1,0.1h0.3c0.1-0.2,0.2-0.4,0.3-0.6
		c0.2-0.2,0.3-0.3,0.6-0.4l0,0l0,0c0.2-0.2,0.3-0.3,0.5-0.5c0.2-0.2,0.4-0.3,0.7-0.5l0,0l0,0c0-0.1,0.1-0.2,0.1-0.2
		c0-0.1,0.1-0.2,0.1-0.3l0,0l-0.1-0.2l0,0v0c-0.1-0.2-0.2-0.2-0.2-0.4c-0.1-0.2-0.1-0.3-0.2-0.5l0-0.1l-0.2,0l-0.1,0l0,0l0,0
		l0.1-0.1l-0.1-0.2l0.4-0.4l0,0l0.2,0.2l0,0h0l0.1,0l0.2,0l0,0l0.1,0.1l0,0l0.5,0.2v0.1l0,0l-0.1,0l-0.3,0l-0.1,0l0.1,0.1
		c0,0.1,0.1,0.1,0.1,0.2c0.1,0.1,0.2,0.2,0.3,0.3c0.2,0.1,0.3,0.2,0.5,0.3l0.1,0l0.2-0.2l0.2-0.1h0.3l0.4,0.1
		c0.1,0.2,0.2,0.3,0.2,0.5c0,0.1,0.1,0.2,0.1,0.4v0.1l-0.1,0.2l-0.1-0.2l0.1-0.1l0,0l0,0c0,0,0-0.1,0-0.2c0-0.1,0-0.2-0.1-0.3
		s-0.2-0.1-0.4-0.1h0c-0.1,0-0.2,0-0.3,0.1s-0.1,0.1-0.1,0.1l0,0l-0.3,0.2l0,0l0,0.1c0,0.1,0,0.1,0,0.2c0,0.1,0,0.2,0,0.3
		c0,0.2-0.1,0.3-0.2,0.4l-0.1,0.2l0.2,0c0.3,0,0.2,0,0.5,0l0.1,0c0,0,0.1,0,0.1,0.1l0.2,1.2l-0.1,0.1l-0.1-0.4l0,0
		c0-0.1,0-0.1,0-0.2c0-0.1,0-0.1,0-0.2c0-0.1,0-0.3-0.1-0.4c0,0-0.1,0-0.1,0c-0.1,0-0.2,0-0.3,0.1c-0.3,0.1-0.5,0.2-0.6,0.2l0,0l0,0
		c-0.2,0.3-0.3,0.4-0.5,0.7c-0.1,0.1-0.2,0.2-0.3,0.2h0.3c0,0,0.1-0.1,0.1-0.1c0.2-0.2,0.4-0.4,0.6-0.7c0.2-0.1,0.4-0.2,0.6-0.2
		c0.1,0,0.2-0.1,0.3,0c0.1,0.1,0.1,0.1,0.1,0.2c0,0.1,0,0.1,0,0.2s0,0.1,0,0.2v0l0.1,0.4h0.6c0,0,0.1-0.1,0.1-0.1
		c0.1-0.1,0.2-0.2,0.3-0.4l0.8,0.4l0,0.1h0.2l0-0.1l0,0l-0.1-0.1l0.2,0.2h0.3l-0.3-0.3l0.9,0.3h0.5l0.9-0.8l-0.4,0.8h0.2l0.3-0.6
		v0.6h0.2l0-1.2l-0.1-0.1h0l0,0l-1.4,1.1l-1.8-0.6l-0.1,0.1l0,0l0.1,0.3l-0.6-0.3c0.2-0.4,0.3-0.8,0.3-1.2c0-0.3,0-0.6-0.1-0.9
		c0,0,0-0.1,0-0.1l0.6-0.2l0.1,0c0,0,0,0,0.1,0.1c0.1,0.1,0.4,0.3,0.6,0.4c0.4,0.2,0.7,0.1,1,0.1c0.2,0,0.6,0.1,0.8,0.2l0,0l0,0
		c0,0,0.1,0,0.1,0c0.1,0,0.2-0.1,0.2-0.2l0,0c0-0.1,0-0.1,0-0.2l0,0v0c0-0.3,0.4-0.5,0.7-0.5c0.1,0,0.2,0,0.4,0.1
		c0.3,0.1,0.4,0.4,0.4,0.7c0,0.1-0.1,0.3-0.2,0.4h0l0,0c0,0-0.1,0.1-0.1,0.1c0,0-0.1,0.1-0.1,0.1c0,0.1,0.1,0.2,0.2,0.2v0h0
		c0.2,0.1,0.5,0.3,0.7,0.5c0.2,0.2,0.3,0.5,0.7,0.7c0.2,0.1,0.5,0.2,0.7,0.2c0,0,0.1,0,0.1,0l0,0.1h0.3l-0.1-0.2
		c0-0.1-0.1-0.2-0.2-0.2h0c-0.1,0-0.5-0.1-0.7-0.2c-0.1-0.1-0.2-0.2-0.3-0.3c-0.1-0.1-0.2-0.2-0.3-0.4c-0.2-0.2-0.5-0.4-0.7-0.5l0,0
		c0.2-0.2,0.3-0.4,0.3-0.6c0-0.4-0.2-0.8-0.6-1c-0.1-0.1-0.3-0.1-0.5-0.1c-0.2,0-0.5,0.1-0.7,0.2c-0.2,0.1-0.3,0.4-0.4,0.6v0
		c-0.3-0.1-0.6-0.2-0.9-0.2v0c-0.2,0-0.3,0-0.5,0s-0.2,0-0.4-0.1c-0.2-0.1-0.3-0.2-0.4-0.3c-0.1,0-0.1-0.1-0.1-0.1l0,0l0,0
		c-0.1-0.1-0.2-0.1-0.2,0l-0.7,0.3l-0.6-0.4c-0.3-0.1-0.6-0.1-0.9,0.1l-0.1,0.1l0,0l0.1-0.1c0,0,0.1-0.1,0.1-0.1v-0.2l0-0.1
		l-0.1-0.3c0-0.1-0.1-0.1-0.1-0.1l-0.5-0.2l-0.1-0.1c0,0-0.1-0.1-0.1-0.1l-0.2,0h-0.1l-0.3-0.2c-0.1-0.1-0.2-0.1-0.3,0l-1,0.9
		c0-0.8-0.3-1.4-0.7-1.8c-0.4-0.4-1-0.6-1.6-0.6c-0.3,0-0.5,0-0.8,0.1c0.1-0.1,0.1-0.2,0.2-0.4c0.2-0.4,0.4-0.6,0.5-1.1h0.3
		c0.1,0,0.1,0,0.2-0.1s0.1-0.1,0.1-0.2V5.1c0-0.1-0.1-0.2-0.2-0.2h-1c0-0.3-0.2-0.7-0.5-1c-0.3-0.4-0.8-0.6-1.4-0.7V2.5h0.7
		c0.1,0,0.1,0,0.1-0.1s0.1-0.1,0.1-0.1V1.2c0-0.1,0-0.1-0.1-0.2c0,0-0.1-0.1-0.1-0.1h-0.7V0.2c0-0.1,0-0.1-0.1-0.2
		c0,0-0.1-0.1-0.2-0.1h-1.4c-0.1,0-0.1,0-0.2,0.1c0,0-0.1,0.1-0.1,0.2V1h-0.7c-0.1,0-0.1,0-0.1,0.1c0,0-0.1,0.1-0.1,0.2v1.1
		c0,0.1,0,0.1,0.1,0.2s0.1,0.1,0.1,0.1h0.7v0.6c-0.6,0.1-1,0.4-1.3,0.7c-0.3,0.3-0.5,0.7-0.5,1h-1c-0.1,0-0.2,0.1-0.2,0.2v1.1
		c0,0.1,0,0.1,0.1,0.2c0,0,0.1,0.1,0.2,0.1h0.3c0.1,0.5,0.3,0.7,0.5,1.1l0,0c0.1,0.1,0.2,0.2,0.2,0.4c-0.2,0-0.5-0.1-0.7-0.1
		c-0.5,0-1.1,0.2-1.6,0.5c-0.5,0.4-0.7,1-0.7,1.9v0.1l-1.3-1.2c-0.1-0.1-0.2-0.1-0.3,0l-2.9,3.1c0-0.2-0.1-0.3-0.1-0.3v0
		c-0.1-0.2-0.2-0.4-0.4-0.5c-0.2-0.1-0.4-0.1-0.6-0.1c-0.1,0-0.2,0-0.3,0c-0.4,0-1,0.1-1.7,0.3h0c-0.1,0-0.1,0-0.1,0
		c-0.1,0-0.2,0-0.2-0.1c-0.2-0.4-0.5-0.6-0.9-0.6c-0.1,0-0.3,0-0.4,0.1c-0.4,0.2-0.6,0.5-0.6,0.9c0,0.1,0,0.3,0.1,0.4l0,0.1
		c0,0.1,0,0.2-0.2,0.3l0,0c-0.5,0.4-1,0.8-1.3,1c-0.1,0.1-0.2,0.2-0.3,0.4c0,0.1-0.1,0.1-0.1,0.2L274.6,14.3L274.6,14.3z"/>
</g>
</svg>
