<?xml version="1.0" encoding="utf-8"?>
<!-- Generator: Adobe Illustrator 24.0.1, SVG Export Plug-In . SVG Version: 6.00 Build 0)  -->
<svg version="1.1" id="Capa_1" xmlns="http://www.w3.org/2000/svg" xmlns:xlink="http://www.w3.org/1999/xlink" x="0px" y="0px"
	 viewBox="0 0 314.4 55" style="enable-background:new 0 0 314.4 55;" xml:space="preserve">
<style type="text/css">
	.st0{fill:#FFFFFF;}
	.st1{font-family:'MyriadPro-Regular';}
	.st2{font-size:6.4637px;}
	.st3{fill:none;stroke:#FFFFFF;stroke-width:0.25;stroke-miterlimit:10;}
</style>
<g>
	<rect x="212.1" y="2" class="st0" width="0.8" height="52"/>
	<g>
		<path class="st0" d="M1.5,12.3c2.8-0.5,6.3-0.7,10.1-0.7c6.3,0,10.5,1,13.6,3.4c3.4,2.6,5.6,6.7,5.6,12.6c0,6.3-2.3,10.7-5.5,13.4
			c-3.5,2.9-8.8,4.3-15.3,4.3c-3.9,0-6.7-0.2-8.5-0.5V12.3z M9,39.3c0.6,0.1,1.7,0.1,2.6,0.1c6.8,0,11.3-3.7,11.3-11.6
			c0-7.1-4-10.5-10.5-10.5c-1.6,0-2.8,0.1-3.4,0.3V39.3z"/>
		<path class="st0" d="M56.2,37.2c0,3.1,0.1,5.7,0.2,7.7H50l-0.3-3.4h-0.1c-0.9,1.5-3.2,3.9-7.5,3.9c-4.9,0-8.5-3-8.5-10.5V20.9H41
			v12.9c0,3.5,1.1,5.6,3.8,5.6c2.1,0,3.3-1.4,3.7-2.6c0.2-0.4,0.3-1,0.3-1.6V20.9h7.5V37.2z"/>
		<path class="st0" d="M71.4,45.5c-7,0-12.4-4.6-12.4-12.4c0-7.8,5.1-12.7,12.9-12.7c7.3,0,12.2,5.1,12.2,12.3
			C84.1,41.5,77.9,45.5,71.4,45.5L71.4,45.5z M71.6,40.1c2.9,0,4.8-2.9,4.8-7.2c0-3.5-1.4-7.2-4.8-7.2c-3.5,0-4.9,3.6-4.9,7.2
			C66.7,37,68.4,40.1,71.6,40.1L71.6,40.1z"/>
		<path class="st0" d="M106.1,44.4c-1.3,0.6-3.8,1.1-6.7,1.1c-7.8,0-12.7-4.8-12.7-12.3c0-7,4.8-12.8,13.8-12.8c2,0,4.1,0.3,5.7,0.9
			l-1.2,5.6c-0.9-0.4-2.2-0.7-4.2-0.7c-3.9,0-6.5,2.8-6.4,6.7c0,4.4,2.9,6.8,6.6,6.8c1.8,0,3.1-0.3,4.3-0.8L106.1,44.4z"/>
		<path class="st0" d="M120.4,14.4v17.7c0,5.3,2,8,5.6,8c3.6,0,5.6-2.5,5.6-8V14.4h6.9v17.2c0,9.5-4.8,14-12.8,14
			c-7.7,0-12.3-4.3-12.3-14.1V14.4H120.4z"/>
		<path class="st0" d="M165.9,44.3c-1.3,0.6-4.1,1.4-7.9,1.4c-10.6,0-16.1-6.7-16.1-15.4c0-10.5,7.5-16.3,16.8-16.3
			c3.6,0,6.3,0.7,7.6,1.4l-1.4,5.5c-1.4-0.6-3.4-1.1-5.8-1.1c-5.5,0-9.8,3.3-9.8,10.2c0,6.2,3.6,10,9.8,10c2.1,0,4.4-0.5,5.8-1
			L165.9,44.3z"/>
	</g>
	<g>
		<g>
			<path class="st0" d="M191.9,21.6c0.2,0,0.4-0.2,0.4-0.4s-0.2-0.4-0.4-0.4c-0.2,0-0.4,0.2-0.4,0.4S191.7,21.6,191.9,21.6z"/>
			<path class="st0" d="M180.7,35.3c-0.1,0-0.1,0-0.1,0.1c0,0.1,0,0.1,0.1,0.1c0.1,0,0.1,0,0.1-0.1
				C180.8,35.4,180.8,35.3,180.7,35.3z"/>
			<path class="st0" d="M185.1,35.5c0.1,0,0.1,0,0.1-0.1c0-0.1,0-0.1-0.1-0.1c-0.1,0-0.1,0-0.1,0.1C185,35.5,185,35.5,185.1,35.5z"
				/>
			<path class="st0" d="M174.5,32.2l0.8,0.5c0,0.1,0,0.2,0,0.3c0,1.1,0.6,2,1.9,2.3c0.1,0,0.2,0,0.2,0.1l-0.2,2.1v0
				c0,0.4,0.4,0.8,0.9,0.8c0.5,0,0.9-0.4,0.9-0.8v0l-0.2-2.2h-0.1v-0.1c0-0.2-0.1-0.4-0.3-0.6c0.2,0,0.4,0,0.6-0.1
				c0.4-0.2,0.5-0.7,0.5-0.7l0.1-0.2l0.6-0.3v0.2c0,0.3,0.1,0.7,0.4,0.9v0.5v0.1c-0.3,0.1-0.6,0.3-0.7,0.4l-0.2,0.1l0,0.3
				c0,0,0,0.1,0,0.1c0.1,0.3,0.5,0.5,0.9,0.5c0.2,0,0.3,0,0.4-0.1c0,0,0,0,0,0c0.1,0.1,0.2,0.2,0.2,0.4c0.1,0.2,0.2,0.3,0.3,0.4
				c-0.2,0.2-0.3,0.5-0.3,0.8c0,0.4,0.2,0.7,0.4,0.8c-0.1,0.1-0.2,0.3-0.2,0.6c0,0.3,0.1,0.6,0.4,0.8c0,0.1-0.1,0.2-0.1,0.3
				c0,0.3,0.1,0.5,0.4,0.7c0,0.3,0.2,0.5,0.5,0.5c0.3,0,0.5-0.2,0.5-0.5c0.2-0.2,0.4-0.4,0.4-0.7c0-0.1,0-0.2-0.1-0.3
				c0.3-0.2,0.4-0.5,0.4-0.8c0-0.2-0.1-0.4-0.2-0.6c0.2-0.2,0.4-0.5,0.4-0.8c0-0.3-0.1-0.5-0.3-0.8c0.1-0.1,0.2-0.2,0.3-0.4
				c0.1-0.2,0.2-0.3,0.2-0.4l0,0c0.1,0,0.2,0.1,0.4,0.1c0.4,0,0.8-0.2,0.9-0.5c0,0,0-0.1,0-0.1l0.1-0.3l-0.2-0.2
				c-0.1-0.1-0.3-0.3-0.6-0.4v-0.5c0.3-0.2,0.5-0.6,0.5-1v-0.4h-0.4h-0.9c-0.4-0.4-0.9-0.7-1.5-0.7c-0.6,0-1.1,0.3-1.5,0.7h-0.8
				l1.1-0.7c0,0,0.1-0.1,0-0.1c0,0-0.1-0.1-0.1,0l-2.1,1.2l-0.2,0c0.1-0.2,0.1-0.4,0.1-0.4l0-0.3l1.6-1.3c0,0,0-0.1,0-0.1
				c0,0-0.1,0-0.1,0l-1.6,1.3l-0.1,0c0-0.1,0-0.1,0-0.1l0.5-0.6l-0.2-0.2c0,0-0.1-0.1-0.1-0.1l0.7-0.8c0,0,0-0.1,0-0.1
				c0,0-0.1,0-0.1,0l-0.7,0.8c-0.5-0.3-1-0.5-1.6-0.5c-0.4,0-0.8,0.1-1.1,0.2l-0.5-0.6c0,0-0.1,0-0.1,0c0,0,0,0.1,0,0.1l0.4,0.5
				c-0.2,0.1-0.4,0.3-0.6,0.5l-0.5-0.5c0,0-0.1,0-0.1,0c0,0,0,0.1,0,0.1l0.6,0.5c-0.2,0.2-0.3,0.5-0.4,0.8l-0.8-0.5c0,0-0.1,0-0.1,0
				C174.5,32.1,174.5,32.2,174.5,32.2z M181.7,36.3c-0.1-0.2-0.3-0.5-0.4-0.6c-0.1-0.1-0.3,0-0.6,0c-0.3,0-0.5-0.2-0.6-0.2
				c0,0,0-0.1,0-0.1c0.1-0.1,0.4-0.3,0.7-0.3c0.4,0,0.8,0.2,1.2,1c0.1,0.1,0.2,0.3,0.4,0.3c-0.1,0.1-0.3,0.1-0.4,0.2
				C181.9,36.6,181.8,36.5,181.7,36.3z M182,35.2h0.2c0,0.1,0,0.4,0,0.4S182,35.3,182,35.2z M183.3,39.7c-0.1,0.1-0.2,0.1-0.3,0.2
				c-0.1,0.1-0.1,0.2,0,0.2c0.1,0.1,0.2,0.1,0.2,0c0.1-0.1,0.1-0.1,0.2-0.1c0,0,0,0.1,0,0.1c0,0.2-0.2,0.4-0.4,0.4l0,0.2
				c0,0.1-0.1,0.1-0.1,0.1c-0.1,0-0.1-0.1-0.1-0.1l0-0.2c-0.2-0.1-0.4-0.2-0.4-0.4c0-0.1,0-0.2,0.1-0.3c0.2-0.3,0.3-0.4,0.7-0.6
				c0,0,0,0,0,0c0,0,0,0,0,0c0,0,0,0,0,0c0,0,0,0,0,0c0,0,0,0,0,0c0.1,0,0.1-0.1,0.1-0.2c0-0.1,0-0.1-0.1-0.2c0,0,0.1,0,0.1,0
				c0.1,0,0.2-0.1,0.3-0.1c0.1,0.1,0.1,0.2,0.1,0.4C183.8,39.4,183.5,39.6,183.3,39.7z M183.3,38.4
				C183.3,38.4,183.3,38.4,183.3,38.4c-0.1,0-0.1,0.1-0.2,0.1c-0.2,0.1-0.4,0.2-0.5,0.3c0,0,0,0,0,0c0,0,0,0,0,0c0,0,0,0,0,0
				c-0.1,0.1-0.1,0.1-0.1,0.2c0,0.1,0.1,0.2,0.2,0.3c-0.1,0.1-0.2,0.2-0.3,0.3c-0.2-0.1-0.3-0.3-0.3-0.5c0-0.2,0.1-0.4,0.3-0.5
				c0,0,0,0,0,0c0.2-0.1,0.4-0.2,0.6-0.4c0.1,0,0.1-0.1,0.2-0.1c0.2-0.1,0.4-0.2,0.4-0.4c0-0.2-0.1-0.3-0.3-0.4
				c0.1-0.1,0.3-0.1,0.4-0.2c0.2,0.1,0.3,0.3,0.3,0.6C184,38,183.7,38.3,183.3,38.4z M182.7,37.6c0-0.1,0.1-0.2,0.2-0.2
				c0.1,0,0.2,0.1,0.2,0.2c0,0.1-0.1,0.2-0.2,0.2C182.8,37.8,182.7,37.7,182.7,37.6z M185.7,35.4c0,0,0,0.1,0,0.1
				c0,0-0.2,0.2-0.6,0.2c-0.3,0-0.5-0.1-0.6,0c-0.1,0.1-0.3,0.3-0.4,0.6c-0.1,0.2-0.2,0.3-0.4,0.4c-0.2,0.1-0.4,0.2-0.6,0.3
				c-0.1,0.1-0.3,0.1-0.4,0.2v0c-0.2,0.1-0.4,0.2-0.4,0.4c0,0.1,0.1,0.3,0.3,0.4c-0.1,0.1-0.3,0.2-0.4,0.2c-0.2-0.2-0.4-0.3-0.4-0.6
				c0-0.3,0.2-0.5,0.4-0.7c0.2-0.1,0.4-0.2,0.6-0.3c0.2-0.1,0.4-0.2,0.6-0.3c0,0,0,0,0,0c0.1-0.1,0.2-0.2,0.3-0.3
				c0.4-0.8,0.9-1,1.2-1C185.3,35.1,185.6,35.4,185.7,35.4z M182.6,35.2h0.7l0,1c-0.1,0.1-0.3,0.1-0.4,0.2c0,0-0.1,0-0.1,0.1
				L182.6,35.2z M183.6,35.6c0,0,0-0.3,0-0.4h0.2C183.8,35.3,183.6,35.6,183.6,35.6z M180.6,33.2h1.2c0.1,0,0.2,0.1,0.2,0.2
				c0,0,0,0.2,0,0.3c0.1,0,0.2,0,0.3,0c0-0.1,0-0.3,0-0.3c0-0.2-0.1-0.4-0.3-0.5l-0.1,0l0.1-0.1c0.3-0.2,0.6-0.3,1-0.3
				c0.4,0,0.7,0.1,1,0.3l0.1,0l-0.1,0c-0.2,0.1-0.3,0.3-0.3,0.4c0,0,0,0.2,0,0.3c0.1,0,0.2,0,0.3,0c0-0.1,0-0.3,0-0.3
				c0-0.1,0.1-0.2,0.2-0.2h1.2v0.1c0,0.1,0,0.2,0,0.3h-0.8v0.1h0.8c-0.1,0.2-0.3,0.4-0.6,0.4c0,0-0.2,0-0.3,0c0,0.1,0,0.2,0,0.3
				c0.1,0,0.3,0,0.3,0s0.1,0,0.1,0h0.1v0.5h-4v-0.5l0.2,0l0.1,0c0,0,0.2,0,0.3,0c0-0.1,0-0.2,0-0.3c-0.1,0-0.3,0-0.3,0
				c-0.3,0-0.5-0.2-0.7-0.4h0.8v-0.1h-0.8C180.6,33.4,180.6,33.3,180.6,33.2L180.6,33.2z M178.7,37.5c0,0.2-0.2,0.4-0.5,0.4
				c-0.3,0-0.5-0.2-0.5-0.4l0.2-1.8h0.6L178.7,37.5z M178.9,34.1c-0.3,0.2-0.7,0.1-0.7,0.1s0.1-0.4,0.4-0.6c0.3-0.2,0.7-0.1,0.7-0.1
				S179.2,33.9,178.9,34.1z M178.6,32.9c0.3-0.2,0.7-0.2,0.7-0.2s0,0.4-0.3,0.6c-0.3,0.2-0.7,0.2-0.7,0.2S178.3,33.1,178.6,32.9z
				 M178.5,32.1c0.2-0.2,0.6-0.3,0.6-0.3s0,0.4-0.2,0.6c-0.2,0.2-0.6,0.3-0.6,0.3S178.3,32.4,178.5,32.1z M177.8,31.1
				c0.6,0,1.2,0.2,1.6,0.6l-0.1,0.1c-0.3-0.2-0.7-0.3-1.1-0.3c-1,0-1.7,0.7-1.7,1.5c0,0.7,0.4,1.3,1.2,1.5c0.5,0.1,0.6,0.4,0.6,0.5
				c0,0.1,0,0.1,0,0.1H178c0-0.2-0.2-0.3-0.6-0.3c-1-0.2-1.6-0.9-1.6-1.9C175.8,32,176.6,31.1,177.8,31.1z M177.8,32.9
				c0.3,0.2,0.3,0.6,0.3,0.6s-0.4,0-0.7-0.2c-0.3-0.2-0.3-0.6-0.3-0.6S177.6,32.7,177.8,32.9z M177.3,31.9c0,0,0.4,0,0.6,0.3
				c0.2,0.2,0.2,0.6,0.2,0.6s-0.4,0-0.6-0.3C177.3,32.2,177.3,31.9,177.3,31.9z M177.7,33.6c0.3,0.2,0.4,0.6,0.4,0.6
				s-0.4,0.1-0.7-0.1c-0.3-0.2-0.4-0.6-0.4-0.6S177.4,33.4,177.7,33.6z"/>
			<path class="st0" d="M196.4,34.6l-0.7-1.6c0.4,0,0.7-0.4,0.7-0.7c0-0.4-0.3-0.7-0.7-0.7c-0.3,0-0.5,0.2-0.7,0.4
				c-0.9,0-1.7-0.1-2.3-0.4c0-0.1,0-0.1,0-0.2c0-0.5-0.4-0.9-0.9-0.9c-0.5,0-0.9,0.4-0.9,0.9c0,0.1,0,0.2,0,0.2
				c-0.6,0.3-1.3,0.4-2.2,0.4c-0.1-0.2-0.4-0.4-0.7-0.4c-0.4,0-0.7,0.3-0.7,0.7c0,0.4,0.3,0.7,0.7,0.7l-0.7,1.6h-0.3v0.4
				c0,0.7,0.6,1.3,1.3,1.3c0.3,0,0.5-0.1,0.7-0.2l-0.8,1.2h0l0,0l0,0l0,0l-0.1,0.6l2.4,0.5c0,0.1,0.2,0.3,0.4,0.3c0.1,0,0.3,0,0.4,0
				l0.1,1l0,0c0,0.3,0.2,0.5,0.5,0.5c0.3,0,0.5-0.2,0.5-0.5l0,0v0l0-0.7l1.4,0.4l1.2-3l0-0.2c0.1,0.1,0.3,0.1,0.5,0.1
				c0.7,0,1.3-0.6,1.3-1.3v-0.4H196.4z M196.1,34.6h-1.3l0.7-1.5L196.1,34.6z M194.4,35.7c-0.1,0-0.2,0-0.3-0.1
				c-0.2-0.1-0.4-0.2-0.6-0.3c-0.2-0.1-0.4-0.2-0.6-0.3c-0.1,0-0.1,0-0.2,0l0.1-2l2.4,0l-0.7,1.6h-0.3v0.4
				C194.1,35.2,194.2,35.5,194.4,35.7z M188.2,33.1l0.7,1.5h-1.3L188.2,33.1z M189.2,34.6l-0.7-1.6l2.4,0l0.1,1.9
				c-0.1,0-0.3,0-0.4,0c-0.3-0.1-0.5-0.2-0.5-0.2l-0.1-0.1l-0.1,0.1l-0.3,0.5c0-0.1,0-0.1,0-0.2v-0.4H189.2z M188.2,35.9
				c-0.5,0-0.9-0.4-0.9-0.9h1.9C189.1,35.5,188.7,35.9,188.2,35.9z M191,38.1c-0.1-0.3-0.2-0.4-0.5-0.5c-0.2-0.1-0.4,0-0.7,0
				c-0.3,0-0.6,0.1-0.9,0c-0.2-0.1-0.3-0.1-0.4-0.2c0.2-0.2,1.4-2.1,1.5-2.4c0.1,0.1,0.3,0.1,0.5,0.2c0.2,0,0.4,0,0.5,0l0.2,2.7
				C191.1,37.9,191,38.1,191,38.1z M192,39.5c0,0.1-0.1,0.1-0.1,0.1c-0.1,0-0.1-0.1-0.1-0.1l-0.5-6.9h-3.2c0,0,0,0,0,0
				c-0.2,0-0.4-0.2-0.4-0.4c0-0.2,0.2-0.4,0.4-0.4c0.2,0,0.4,0.2,0.4,0.4c0,0,0,0,0,0c0.7,0,2.1,0.1,3-0.6c-0.1-0.1-0.1-0.2-0.1-0.4
				c0-0.3,0.2-0.5,0.5-0.5c0.3,0,0.5,0.2,0.5,0.5c0,0.1-0.1,0.3-0.1,0.4c1,0.7,2.3,0.7,3,0.6c0,0,0,0,0,0c0-0.2,0.2-0.4,0.4-0.4
				c0.2,0,0.4,0.2,0.4,0.4c0,0.2-0.2,0.4-0.4,0.4c0,0,0,0,0,0h-3.2L192,39.5z M193.5,38.7c0,0-0.2,0-0.3,0c-0.2,0-0.4-0.3-0.7-0.4
				l0.2-2.9c0,0,0.1,0,0.2,0c0.2,0,0.3,0.1,0.5,0.3c0.2,0.1,0.4,0.3,0.7,0.3c0.2,0,0.5,0.1,0.6,0.1
				C194.4,36.5,193.5,38.7,193.5,38.7z M195.5,35.9c-0.5,0-0.9-0.4-0.9-0.9h1.9C196.4,35.5,196,35.9,195.5,35.9z"/>
			<path class="st0" d="M176.2,24.8c0,1.4,1.1,2.1,2,2.4c0,0.1,0.1,0.3,0.2,0.3c-0.1,0-0.1,0.1-0.1,0.2c-0.1,0.1-0.1,0.3,0,0.4
				c0,0.1,0.1,0.2,0.2,0.3c-0.2,0.2-0.6,0.4-0.6,0.8v0.3h2.9v-0.3c0-0.5-0.5-0.7-0.7-0.9c0,0-0.1-0.1-0.1-0.1c0,0,0,0,0,0
				c0,0,0.5-0.1,0.5-0.5c0-0.2-0.1-0.4-0.2-0.4c0.1,0,0.1-0.1,0.1-0.2c0.1-0.1,0.1-0.3,0-0.4c0-0.1-0.1-0.1-0.1-0.2
				c0.1-0.1,0.2-0.1,0.3-0.2c0.4-0.3,1-0.7,1-1.5V24h-0.9l0-0.3c0.1,0,0.2-0.1,0.3-0.1c0.1,0,0.3,0.1,0.4,0.1c0.1,0,0.2-0.1,0.2-0.1
				c0-0.1-0.1,0-0.2,0c-0.1,0-0.2-0.2-0.4-0.2c-0.1,0-0.2,0-0.3,0.1c-0.1-0.1-0.3-0.3-0.5-0.4h1.8v6.4h1.9c0,0,0-5.8,0-6.4
				c0.5,0,2,0,2,0v-1.9c0,0-1.5,0-2,0c0-0.5,0-2.3,0-2.3H182v2.3h-2v1.8c-0.2-0.1-0.4-0.1-0.5-0.1c-0.3,0-0.6,0.1-0.6,0.1
				s-0.5-0.1-0.9-0.1C177.1,22.8,176.2,23.5,176.2,24.8z M180.4,21.5h2v-2.3h1.1v2.3h2v1.1h-2v6.5h-1.1v-6.5h-2V21.5z M180.4,29.1
				L180.4,29.1l-2.1,0.1v-0.1c0-0.2,0.5-0.5,0.7-0.7l0.6-0.2C179.6,28.5,180.4,28.8,180.4,29.1z M178.6,26.9l1.2-0.3
				c0.1,0,0.2,0,0.3,0.1c0,0.1,0,0.2-0.1,0.3l-1.2,0.3c-0.1,0-0.2,0-0.3-0.1C178.5,27,178.5,26.9,178.6,26.9z M180,27.8l-1.2,0.3
				c-0.1,0-0.2,0-0.3-0.1c0-0.1,0-0.2,0.1-0.3l1.2-0.3c0.1,0,0.2,0,0.3,0.1C180.2,27.7,180.1,27.8,180,27.8z M181.1,24.4v0.4
				c0,0.6-0.4,0.9-0.8,1.1c-0.2,0.1-0.5,0.3-0.5,0.3l-0.8,0.2c-0.1-0.2-0.4-0.4-0.7-0.5c-0.4-0.3-0.8-0.6-0.8-1.1v-0.4H181.1z
				 M178,23.2c0.3,0,0.6,0,0.8,0.1c0,0,0.3-0.1,0.7-0.1c0.4,0,0.7,0.4,0.7,0.4l0,0.2c0,0-0.2,0.2-0.7,0.2c-0.3,0-0.6-0.2-0.8-0.3
				c-0.2-0.1-0.5-0.1-0.8-0.1c-0.4,0-1,0.4-1,1.1c0,0.6,0.4,1,0.7,1.2c0.4,0.3,0.7,0.5,0.9,0.6l-0.1,0c-0.1,0-0.2,0.1-0.3,0.2
				c-0.8-0.3-1.7-0.8-1.7-2C176.6,23.8,177.4,23.2,178,23.2z"/>
			<path class="st0" d="M196.8,25c0-1-0.7-1.6-1.7-1.6h-1.3l-0.6-1.6c0.1-0.2,0.1-0.3,0.1-0.5c0-0.8-0.6-1.4-1.4-1.4
				c-0.8,0-1.4,0.6-1.4,1.4c0,0.2,0,0.4,0.1,0.5l-0.6,1.6h-1.3c-1,0-1.7,0.7-1.7,1.6c0,0.8,0.6,1.4,1.4,1.4c0.2,0,0.3,0,0.4-0.1
				l-0.6,1.5l-0.5,1.3c-0.1,0.3,0.1,0.4,0.1,0.4l0.3,0.2c0.2,0.1,0.3,0,0.4-0.2l0.3-0.6V29h0.4h5.2h0.4v-0.2l0.3,0.6
				c0.1,0.2,0.2,0.3,0.4,0.2l0.3-0.2c0,0,0.2-0.1,0.1-0.4l-0.5-1.3l-0.6-1.5c0.1,0.1,0.3,0.1,0.4,0.1
				C196.2,26.4,196.8,25.8,196.8,25z M191.9,20.2c0.6,0,1,0.4,1,1c0,0.6-0.4,1-1,1c-0.6,0-1-0.4-1-1
				C190.9,20.7,191.4,20.2,191.9,20.2z M188.4,26c-0.5,0-1-0.4-1-1c0-0.7,0.5-1.2,1.3-1.2h1.1l-0.4,1c-0.1-0.4-0.5-0.6-0.9-0.6
				c-0.4,0-0.8,0.3-0.8,0.7c0,0.4,0.3,0.6,0.6,0.6c0.1,0,0.2-0.1,0.2-0.2c0-0.1-0.1-0.2-0.2-0.2c-0.1,0-0.2,0-0.2-0.2
				c0-0.2,0.2-0.3,0.3-0.3c0.3,0,0.5,0.2,0.5,0.6C189.1,25.7,188.8,26,188.4,26z M188.2,29.2l-0.1-0.1c0,0,1.9-4.8,2.7-7
				c0.1,0.1,0.3,0.3,0.5,0.3l0.4,0.6L188.2,29.2z M191.8,23.8h0.3l0.7,1.2h-1.7L191.8,23.8z M190,28.6h-0.7v-0.5l0.7-1.2V28.6z
				 M193.4,28.6h-0.7V26c0-0.1-0.1-0.2-0.2-0.2c-0.1,0-0.2,0.1-0.2,0.2v2.6h-0.7V26c0-0.1-0.1-0.2-0.2-0.2c-0.1,0-0.2,0.1-0.2,0.2
				v2.6h-0.7v-2.5l0.4-0.7h2.2l0.4,0.7V28.6z M194.5,28.6h-0.7v-1.7l0.7,1.2V28.6z M195.7,29.2L195.7,29.2l-3.9-6.5c0,0,0.1,0,0.1,0
				c0.4,0,0.8-0.2,1-0.5C193.8,24.3,195.7,29.2,195.7,29.2z M194.7,25.3c0-0.4,0.2-0.6,0.5-0.6c0.2,0,0.3,0.1,0.3,0.3
				c0,0.2-0.1,0.2-0.2,0.2c-0.1,0-0.2,0.1-0.2,0.2c0,0.1,0.1,0.2,0.2,0.2c0.4,0,0.6-0.3,0.6-0.6c0-0.4-0.3-0.7-0.8-0.7
				c-0.4,0-0.7,0.2-0.9,0.6l-0.4-1h1.1c0.8,0,1.3,0.5,1.3,1.2c0,0.5-0.4,1-1,1C195,26,194.7,25.7,194.7,25.3z"/>
			<path class="st0" d="M179.6,23.7c0.1,0,0.1,0,0.1-0.1c0-0.1,0-0.1-0.1-0.1c-0.1,0-0.1,0-0.1,0.1
				C179.5,23.6,179.5,23.7,179.6,23.7z"/>
			<path class="st0" d="M191.5,11.5c0,0.1,0.1,0.4,0.2,0.4c0.1,0.1,0.4,0.2,0.4,0.2c0,0,0,0,0,0c0-0.1,0-0.1,0-0.2
				c0-0.7,0.7-1.2,0.7-1.2s0-0.1,0-0.1l-0.1-0.5c0-0.1,0-0.1-0.1-0.1l-0.4,0.1c-0.4,0.5-0.8,0.8-0.8,0.8
				C191.6,11.1,191.5,11.3,191.5,11.5z M191.8,11c0.3-0.2,0.5-0.5,0.6-0.6l0.1,0l0.1,0l0,0c0,0.1,0,0.1,0,0.2l0,0l0,0
				c-0.3,0.2-0.6,0.5-0.7,1l0,0.1l0-0.1l0,0c0,0,0-0.2,0-0.2c0,0,0,0,0-0.1C191.8,11.2,191.8,11.1,191.8,11L191.8,11L191.8,11z"/>
			<path class="st0" d="M193.1,9.7c0,0.1,0,0.7,0,0.7c0.1-0.1,0.2-0.2,0.2-0.4c0-0.3-0.1-0.7-0.1-0.7c0,0-0.3-0.4-0.4-0.4
				c-0.1,0-0.1,0.1-0.2,0.2c0,0.1-0.2,0.3-0.2,0.4l0,0C192.6,9.6,193,9.6,193.1,9.7z"/>
			<path class="st0" d="M177,13.1l0.3,0.4c0.2-0.1,0.4-0.3,0.6-0.4c0,0,0-0.1,0-0.1c0-0.1,0-0.1,0-0.2c0.1-0.1,0.2-0.2,0.3-0.3
				c0.1,0,0.1-0.1,0.2-0.1c0.2,0,0.3,0.1,0.4,0.2c0.2-0.1,0.4-0.1,0.6-0.2l-0.1-0.5c-0.4,0.1-0.8,0.2-1.2,0.4
				C177.7,12.6,177.3,12.8,177,13.1z"/>
			<path class="st0" d="M176.2,12.1l0.3,0.4c0.3-0.2,0.5-0.4,0.8-0.6c0,0,0,0,0-0.1c0-0.2,0.1-0.4,0.3-0.5c0.1,0,0.1-0.1,0.2-0.1
				c0.2,0,0.3,0.1,0.4,0.2c0.3-0.1,0.6-0.2,0.9-0.2c0-0.1-0.1-0.5-0.1-0.5c-0.5,0.1-1,0.3-1.5,0.5C177.1,11.4,176.6,11.7,176.2,12.1
				z"/>
			<path class="st0" d="M176.8,10.8C176.8,10.7,176.8,10.7,176.8,10.8c0-0.3,0.1-0.5,0.3-0.6c0.1,0,0.2-0.1,0.2-0.1
				c0.2,0,0.3,0.1,0.4,0.2c0.4-0.1,0.8-0.3,1.2-0.3c-0.1-0.2-0.1-0.3-0.1-0.4c0,0-0.1,0-0.1,0c-0.1,0-0.3,0-0.5,0.1l-0.1,0
				c-0.1,0-0.3,0.1-0.5,0.1c-0.3,0-0.5-0.1-0.7-0.3c-0.1-0.1-0.1-0.1-0.1-0.1c0,0,0,0-0.1,0c-0.1,0-0.1,0-0.1,0.1c0,0,0,0.1,0,0.1
				c0,0,0,0.1,0,0.1c0,0.5-0.4,0.8-0.6,0.9l-0.1,0c-0.3,0.2-0.4,0.4-0.5,0.4c0,0.1,0.1,0.2,0.2,0.3C176.1,11.2,176.4,11,176.8,10.8z
				"/>
			<path class="st0" d="M188.4,11.1c0.2,0.1,0.6,0.2,0.6,0.2c0.1-0.5,0.5-0.9,0.7-1c-0.1-0.1-0.4-0.5-0.6-0.8
				c-0.3,0.1-0.6,0.2-0.7,0.3c0,0.1,0.1,0.5,0.1,0.9C188.5,10.8,188.4,11,188.4,11.1z M189,9.7c0.1,0.2,0.3,0.4,0.4,0.5
				c0,0-0.3,0.2-0.5,0.7c-0.1,0-0.1,0-0.2-0.1c0-0.1,0-0.2,0-0.3c0-0.3,0-0.5-0.1-0.8C188.7,9.8,188.9,9.8,189,9.7z"/>
			<path class="st0" d="M182.9,10.3c0.2,0.1,0.5,0.4,0.7,1c0.1,0,0.4-0.1,0.6-0.2c0-0.1-0.1-0.3-0.1-0.5c0-0.4,0.1-0.8,0.1-0.9
				c-0.1,0-0.4-0.1-0.7-0.3C183.3,9.8,183.1,10.1,182.9,10.3z M184,9.9c0,0.2-0.1,0.5-0.1,0.8c0,0.1,0,0.2,0,0.3
				c-0.1,0-0.1,0-0.2,0.1c-0.2-0.5-0.5-0.7-0.5-0.7c0.1-0.1,0.3-0.3,0.4-0.5C183.8,9.8,183.9,9.8,184,9.9z"/>
			<path class="st0" d="M183.3,12.9c0.9-0.2,1.5-0.4,1.7-0.5c-0.1-0.1-0.4-0.4-0.6-0.8c-0.1,0-0.3,0.1-0.7,0.2
				C183.7,12.3,183.4,12.7,183.3,12.9z M183.9,11.9c0.1,0,0.3-0.1,0.4-0.1c0.1,0.2,0.2,0.3,0.3,0.5c-0.2,0.1-0.5,0.2-0.9,0.3
				C183.8,12.3,183.9,12.1,183.9,11.9z"/>
			<path class="st0" d="M185.8,12.4c0.1,0.1,0.3,0.2,0.6,0.3c0.2-0.1,0.4-0.3,0.6-0.3c-0.1-0.1-0.4-0.3-0.6-0.7
				C186.1,12.1,185.9,12.3,185.8,12.4z M186.3,12.2c0.1,0.1,0.1,0.1,0.2,0.2c-0.1,0-0.1,0.1-0.2,0.1c0,0-0.1-0.1-0.2-0.1
				C186.2,12.3,186.3,12.2,186.3,12.2z"/>
			<path class="st0" d="M183.4,8.8c0.1-0.2,0.3-0.6,0.3-1c0-0.2-0.1-0.5-0.4-0.5c-0.2,0-0.5,0.3-0.5,0.7
				C182.9,8.5,183.3,8.8,183.4,8.8z M183.4,7.7c0.1,0,0.1,0.2,0.1,0.2c0,0.1,0,0.3-0.2,0.6c-0.1-0.1-0.2-0.3-0.2-0.4
				C183.2,7.9,183.3,7.7,183.4,7.7z"/>
			<path class="st0" d="M189.4,12.9c-0.2-0.2-0.4-0.6-0.4-1.2c-0.4-0.1-0.6-0.2-0.7-0.2c-0.2,0.4-0.5,0.7-0.6,0.8
				C187.9,12.4,188.5,12.7,189.4,12.9z M188.4,11.8c0.1,0,0.3,0.1,0.4,0.1c0,0.2,0.1,0.5,0.1,0.7c-0.4-0.1-0.6-0.2-0.9-0.3
				C188.2,12.1,188.3,11.9,188.4,11.8z"/>
			<path class="st0" d="M185.1,10.8C185.2,10.8,185.2,10.8,185.1,10.8C185.2,10.8,185.2,10.8,185.1,10.8c0.1-0.2,0.1-0.2,0.2-0.3
				c0,0,0,0,0.1,0c0.1,0,0.2,0.1,0.2,0.2c0.1,0.2-0.1,0.4-0.4,0.5l-0.4,0.1c0.1,0.2,0.3,0.5,0.6,0.7c0.4-0.3,0.7-0.7,0.7-1.1
				c0-0.6-0.6-0.9-1.4-1.1c0,0.2-0.1,0.5-0.1,0.8c0,0.1,0,0.2,0,0.3L185.1,10.8z M185.9,11c0,0,0,0.4-0.4,0.8
				c-0.1-0.1-0.2-0.2-0.2-0.3C185.8,11.4,185.9,11,185.9,11z M184.9,10.2c0.3,0.1,0.5,0.2,0.5,0.2s-0.3,0-0.4,0.2c0,0-0.1,0-0.1,0
				c0,0,0,0,0,0C184.9,10.5,184.9,10.3,184.9,10.2z"/>
			<path class="st0" d="M189.7,8.1c0-0.4-0.2-0.7-0.5-0.7c-0.2,0-0.4,0.3-0.4,0.5c0,0.4,0.2,0.8,0.3,1
				C189.4,8.8,189.7,8.5,189.7,8.1z M189.3,7.7c0.1,0,0.2,0.2,0.2,0.4c0,0.1,0,0.2-0.2,0.4c-0.1-0.3-0.2-0.5-0.2-0.6
				C189.1,7.8,189.2,7.7,189.3,7.7z"/>
			<path class="st0" d="M187.2,12.1c0.3-0.2,0.4-0.5,0.6-0.7l-0.5-0.1c-0.3-0.1-0.4-0.3-0.4-0.5c0-0.1,0.1-0.2,0.2-0.2
				c0,0,0,0,0.1,0c0.1,0,0.2,0.1,0.2,0.2c0,0,0,0,0,0c0,0,0,0,0.1,0l0.5,0.1c0-0.1,0-0.2,0-0.3c0-0.3,0-0.5-0.1-0.8
				c-0.7,0.2-1.4,0.5-1.4,1.1C186.6,11.4,186.8,11.8,187.2,12.1z M187.7,10.2c0,0.1,0,0.3,0,0.4c0,0,0,0,0,0c0,0-0.1,0-0.1,0
				c-0.2-0.3-0.5-0.2-0.5-0.2S187.5,10.3,187.7,10.2z M186.8,11c0,0,0.1,0.4,0.7,0.6c-0.1,0.1-0.1,0.2-0.2,0.3
				C186.7,11.3,186.8,11,186.8,11z"/>
			<polygon class="st0" points="195.1,12.7 195.2,11.9 195.9,11.8 195.2,11.5 195.3,10.8 194.8,11.3 194.1,11 194.2,11 194.5,11.6 
				194,12.2 194.7,12 			"/>
			<path class="st0" d="M192.8,11.5c-0.1,0.1-0.1,0.2-0.1,0.4c0,0.3,0.1,0.6,0.4,0.8c0,0,0.3,0.2,0.3,0.2c0.2,0.2,0.4,0.3,0.5,0.5
				l0,0.1l0.1,0c0.2,0,0.5,0.1,0.7,0.1l0.4,0.1c0.1,0,0.2,0,0.2,0c0.2,0,0.4-0.1,0.6-0.2c0.1-0.1,0.2-0.2,0.2-0.3
				c0.1-0.2,0.1-0.3,0.1-0.5l0-0.3c0-0.1,0-0.3,0-0.5c0,0,0-0.1,0-0.1l0,0l0-0.1c0.1-0.2,0.3-0.4,0.5-0.5l0.1-0.1l-0.1-0.4l-0.1,0
				c-0.2,0-0.3-0.1-0.4-0.1c-0.1-0.1-0.5-0.3-0.5-0.7c0,0,0,0,0-0.1c0,0,0-0.1,0-0.1c0-0.2-0.1-0.2-0.2-0.3c0,0-0.1,0-0.1,0
				c-0.1,0-0.2,0.1-0.3,0.2c-0.1,0.1-0.2,0.2-0.4,0.2c-0.2,0-0.3,0-0.4-0.1c-0.1,0-0.2-0.1-0.4-0.2l-0.1-0.1L194,9.5
				c0,0-0.1,0.1-0.2,0.1l-0.1,0.1l0,0.1c0,0.1,0,0.2,0,0.4c0,0.1,0,0.2-0.1,0.3l0,0.1c0,0,0,0-0.1,0.1c-0.1,0.2-0.3,0.3-0.4,0.4
				C193,11.2,192.9,11.3,192.8,11.5z M193.9,10.7c0.2-0.3,0.1-0.9,0.1-0.9l0,0c0.2,0.1,0.4,0.2,0.4,0.2c0.2,0,0.3,0.1,0.5,0.1
				c0.3,0,0.5-0.1,0.6-0.3c0,0,0.1-0.1,0.1-0.1c0,0,0,0.1,0,0.1c0,0,0,0.1,0,0.1c0,0.5,0.5,0.8,0.7,0.9c0.1,0,0.2,0.1,0.4,0.1l0,0
				c0,0-0.3,0.1-0.6,0.6c-0.3,0.5-0.1,1.1-0.2,1.4c-0.2,0.3-0.4,0.4-0.6,0.4c-0.1,0-0.1,0-0.2,0l-0.4-0.1c-0.2-0.1-0.5-0.1-0.7-0.1
				l0,0c-0.1-0.2-0.3-0.3-0.6-0.5c0,0-0.3-0.2-0.3-0.2c-0.2-0.1-0.4-0.5-0.2-0.8C193.2,11.3,193.6,11.2,193.9,10.7z"/>
			<path class="st0" d="M181.8,12.3c0.2,0,0.2-0.2,0.3-0.3c0.1-0.1,0.3,0,0.3-0.3c0-0.2-0.2-0.2-0.3-0.3c-0.1-0.1,0-0.3-0.3-0.3
				c-0.1,0-0.2,0.1-0.2,0.3V12C181.6,12.2,181.7,12.3,181.8,12.3z"/>
			<path class="st0" d="M175.1,14.4c-0.1-0.1-0.2-0.1-0.3,0c-0.1,0.2,0.1,0.3,0.1,0.4c0,0.1-0.2,0.3,0,0.4c0.2,0.1,0.3-0.1,0.4-0.1
				c0.1,0,0.3,0.2,0.4,0c0.1-0.1,0-0.2-0.1-0.3L175.1,14.4z"/>
			<path class="st0" d="M200.3,20.3c0.5-0.1,0.9-0.6,0.9-1.1c0-0.3-0.1-0.8-0.8-1.3c-0.1-0.1-0.2-0.1-0.3-0.1c0.5-0.2,0.7-0.5,0.7-1
				c0-0.3-0.3-0.6-0.6-0.6c-0.2,0-0.3,0.1-0.4,0.2c-0.1,0.1-0.1,0.2-0.2,0.3c-0.1,0-0.2,0.1-0.7,0.1c-0.2,0-0.4,0-0.5-0.1
				c0.1,0,0.4-0.3,0.6-0.4c0.1-0.1,0.4-0.2,0.6-0.4c0.4-0.6,0.5-1,0.7-1.6c0.1-0.3,0.1-0.6,0.1-0.8c0-0.2,0-0.4-0.1-0.6l0-0.3
				c0-0.2-0.1-0.7-0.5-0.9c0,0-0.8-1.2-0.8-1.2c0,0-0.1-0.1-0.1,0c0,0-0.3,0.4-0.3,0.4c-0.1,0-0.2,0-0.3,0.1c0,0,0-0.1-0.1-0.1
				c0,0,0,0-0.1-0.1l-0.1-0.9l-0.1,0c0,0-0.5,0.1-0.5,0.1c0,0-0.1,0-0.3-0.1c0,0-0.1-0.1-0.2-0.1c0,0,0-0.1,0-0.1
				c0-0.4-0.2-0.8-0.6-1c-0.3-0.1-0.8-0.2-1.2,0.2c0,0-0.1,0-0.2,0c-0.1-0.1-0.2-0.1-0.2-0.1l-0.3-0.5l-0.7,0.4
				c-0.4-0.4-0.6-0.5-0.9-0.4c-0.1,0-0.2,0.1-0.3,0.2c0-0.1,0-0.1,0-0.2c0-0.3-0.2-0.5-0.5-0.5c0,0-0.1,0-0.1-0.1
				c-0.1-0.2-0.2-0.6-0.3-0.6c0,0-0.1-0.1-0.1,0c0,0-0.9,0.7-0.9,0.7c-0.1-0.5-0.5-0.9-1-1V5.9h-0.4v0c0-1.2-0.8-2-1.9-2
				c0,0-0.1,0-0.2,0V3.1h0.8V1.8H187V1h-1.3v0.8h-0.8v1.3h0.8v0.8c-0.1,0-0.2,0-0.3,0c-1.1,0-1.9,0.8-1.9,2h-0.5v0.9
				c-0.5,0.1-0.9,0.6-0.9,1.2l-0.4-0.3c0,0-0.7-0.6-0.7-0.6l-0.1-0.1l-1.5,1.8c-0.2-0.1-0.4-0.2-0.7-0.2c-0.5,0-1,0.2-1.1,0.2
				c-0.5-0.5-1-0.4-1.3-0.3c-0.3,0.1-0.6,0.4-0.6,1c0,0,0,0.1,0,0.2c0,0-0.1,0.1-0.2,0.1c0,0-0.1,0.1-0.1,0.1
				c-0.5,0.4-0.8,0.8-0.9,1.2h-2.4l0,2.2h1.7c-0.1,0.1-0.7,0.6-0.7,1.6c0,1.2,1,1.8,1.1,1.9c-0.2,0.1-0.4,0.1-0.6,0.1
				c-0.4,0-0.6,0-0.7-0.1c0-0.3-0.3-0.5-0.6-0.5c-0.3,0-0.6,0.3-0.6,0.6c0,0.7,0.6,0.9,0.7,1c-0.1,0-1.1,0.5-1.1,1.4
				c0,0.6,0.4,1,0.9,1.1c-1.9,2.8-3.1,6.2-3,9.8c0.1,9.4,7.7,17,17.1,16.9c9.4-0.1,17-7.7,16.9-17.1C203.3,26.3,202.2,23,200.3,20.3
				z M199.3,15c0,0.5-0.3,0.9-0.7,1.2c-0.3,0.3-0.7,0.4-1,0.4c0.4,0.2,0.9,0.5,1.5,0.5c0.9,0,1-0.2,1-0.4c0-0.1,0-0.1,0.1-0.2
				c0,0,0.1-0.1,0.2-0.1c0.1,0,0.2,0.1,0.2,0.2c0,0.8-1,0.8-1.5,0.8l-0.2,0c0.1,0.1,0.3,0.1,0.3,0.1c0.7,0.3,0.7,0.3,0.7,0.3
				c0.2,0.1,0.3,0.1,0.4,0.2c0.4,0.3,0.6,0.6,0.6,1c0,0.4-0.3,0.8-0.7,0.8c-0.4,0-0.7-0.3-0.7-0.7c0-0.1,0.1-0.2,0.2-0.2
				c0.1,0,0.2,0.1,0.2,0.2c0,0.2,0.1,0.3,0.2,0.3c0.1,0,0.3-0.1,0.3-0.4c0-0.2-0.1-0.4-0.4-0.6c-0.1-0.1-0.2-0.1-0.4-0.2l-0.7-0.3
				c0,0-0.7-0.4-0.8-0.4h0l0,0c-0.4-0.3-0.9-0.6-1.3-1l-0.2-0.1l0,0c0,0,0.3,0.1,0.4,0c0.1-0.1,0-0.4,0-0.4l0.1,0c0,0,0.1,0,0.1,0
				c0,0,0.1,0,0.1,0c0.4,0,0.8-0.2,0.9-0.3c0.3-0.2,0.5-0.6,0.5-0.9c0,0,0-0.1,0-0.1c0-0.4-0.1-0.7-0.3-0.8
				c-0.1-0.1-0.1-0.1-0.1-0.2c0-0.1,0-0.1,0-0.1c0,0,0.1-0.1,0.1-0.1c0.1,0,0.2,0,0.2,0.1c0.2,0.3,0.4,0.7,0.4,1.1
				C199.3,14.9,199.3,14.9,199.3,15z M199.3,19c-0.2-0.3-0.3-0.4-0.6-0.6l0.7,0.3c0.1,0.1,0.2,0.1,0.2,0.1
				C199.4,18.8,199.3,18.9,199.3,19z M190.7,8l0.2,0l-0.1-0.2l0.2,0.1l0-0.2l0.1,0.1l0.1-0.2l0.1,0.3c0.1,0,0.2,0.1,0.3,0.1
				c0,0,0.2,0,0.3,0.1c0.1,0.2-0.3,0.2-0.3,0.3c0,0,0.1,0.1,0.2,0.2c0.2,0.1,0.4,0.4,0.5,0.5c0-0.1,0.2-0.2,0.2-0.2
				c0.1-0.1,0.2-0.3,0.3-0.3c0.1-0.1,0.3,0.1,0.4,0.2c0.2,0.1,0.3,0.3,0.3,0.3l0.7-0.4c0,0,0.3,0.6,0.9,0.6c0.1,0,0.2,0,0.2-0.1
				c0.3-0.3,0.5-0.4,0.8-0.2c0.3,0.1,0.4,0.4,0.4,0.8c0,0.2,0.3,0.4,0.4,0.5c0.2,0.1,0.4,0.1,0.5,0.1l0.2,0l0.2,1
				c-0.8,0.4-0.8,0.4-0.8,1.3c0,0.3,0,0.6-0.1,0.8c-0.1,0.1-0.2,0.3-0.3,0.4c0,0,0,0,0,0c0,0,0,0.1,0,0.1l0.2,0.4
				c0.1,0,0.4-0.3,0.5-0.4c0-0.1,0-0.5,0-0.5s0.1-0.2,0.1-0.8c0-0.6,0-0.7,0.2-0.8c0.1-0.1,0.3-0.2,0.5-0.3c0,0.2-0.4,0.3-0.4,0.4
				c0,0.1,0.1,0.2,0.1,0.2l0.1-0.1c0.1-0.1,0.2-0.1,0.2-0.1c0.1-0.1,0.2-0.2,0.3-0.2c0.1,0,0.3,0.1,0.3,0.1l0.1-0.1
				c0,0-0.1-0.2-0.1-0.2c0-0.1-0.1-0.2-0.3-0.1l0.1-0.1c0.1-0.1,0.2-0.1,0.2-0.1c0.1,0,0.1,0,0.2,0l0.2-0.2l0,0.2l0.1,0l0,0.2l0.1,0
				l0,0.1l0.1,0.1l-0.3,0.1c0,0.2,0,0.3-0.2,0.5c0,0,0,0.1,0,0.1c0,0.2-0.2,0.3-0.3,0.3l0,0.2c0,0,0.1,0.1,0.2,0.1
				c0.5,0,0.5-0.9,0.8-0.9c0.3,0,0.4,0.3,0.4,0.6c0,0.4,0.2,0.7,0,1.5c-0.1,0.5-0.2,0.8-0.5,1.2c0-0.1,0.1-0.2,0.1-0.4l0-0.2
				c0-0.5-0.2-0.9-0.4-1.2c-0.2-0.2-0.3-0.2-0.4-0.2c-0.1,0-0.2,0.1-0.3,0.1c-0.1,0.1-0.1,0.2-0.1,0.3c0,0.1,0.1,0.3,0.2,0.4
				c0.1,0.1,0.2,0.4,0.2,0.6l0,0.1c0,0.3-0.2,0.5-0.4,0.7c0,0,0,0,0-0.1c0-0.1,0.1-0.3,0.1-0.4c0,0,0-0.2,0-0.3
				c0-0.1,0.1-0.3,0.1-0.4c-0.1,0.1-0.3,0.3-0.5,0.3c0,0-0.1,0-0.1,0c0,0.1,0,0.3,0,0.4c0,0.1-0.1,0.7-0.1,0.7c0,0,0,0,0,0l-0.2,0
				c0,0,0,0,0,0c0,0-0.2-0.1-0.2-0.1l0.1-0.6l-0.2,0.4c0,0-0.1-0.1-0.1-0.2c0,0-0.1,0-0.1,0l-0.3,0.6c0,0,0.2,0.2,0.2,0.4l-0.1,0
				c0,0-0.1-0.2-0.2-0.2c-0.1,0-0.2,0.2-0.2,0.2l-0.1,0c0,0,0-0.1,0.1-0.2c0,0-0.1,0-0.1,0c-0.1,0-0.2,0.1-0.3,0.1l0-0.1
				c0,0,0.1-0.1,0.3-0.2c0,0,0-0.1-0.1,0c-0.1,0-0.2,0-0.2,0l0-0.1c0,0,0.1-0.1,0.2-0.1c0.2,0,0.2,0.1,0.4,0.1l0.3-0.6
				c0-0.2,0.1-0.3,0.1-0.4c0-0.1,0-0.1,0-0.1c0,0-0.4,0.1-0.4,0.1c-0.1,0-0.1-0.2-0.1-0.3l-0.2-0.3c-0.2,0.1-0.3,0.1-0.4,0l0,0
				c0,0,0,0,0,0c-0.2,0.1-0.4,0.1-0.7,0l0,0l-0.5-0.1c-0.1,0-0.3-0.1-0.4-0.1c-0.1,0-0.4,0.2-0.4,0.3c0,0-0.1,0.1-0.2,0
				c-0.1,0-0.1-0.1-0.1-0.2c0-0.1,0-0.3-0.1-0.5c-0.1-0.1-0.2-0.2-0.3-0.3l-0.4-0.3l0,0c-0.2-0.2-0.4-0.4-0.5-0.7l0,0l-0.1-0.1
				l-0.3,0c0,0-0.3-0.3-0.5-0.4l-0.1-0.1c0,0,0-0.1,0-0.2c0-0.1-0.1-0.1-0.1-0.1c0,0.1-0.2,0.2-0.3,0.4c-0.1,0.2-0.3,0.3-0.3,0.4
				c0,0.2,0.1,0.4,0.1,0.6c0,0,0.1,0.1,0.1,0.1c0,0.1,0.2,0.2,0.2,0.3c0,0,0,0.1,0,0.1c-0.1,0-0.2,0-0.2-0.1l-0.1,0l0-0.1l-0.1-0.1
				c0-0.2,0-0.4-0.1-0.6c0-0.1-0.1-0.2-0.1-0.2l0-0.1c0.1-0.1,0.3-0.4,0.2-0.6c0-0.1-0.1-0.1-0.1-0.2c-0.1-0.1-0.1-0.1-0.2-0.2
				c-0.1,0-0.2,0-0.3-0.1c0,0,0-0.1,0-0.1c0-0.1,0.1-0.1,0.1,0c0,0,0,0,0,0.1c0,0.1,0.1,0,0.2,0c0-0.1,0-0.3,0.1-0.4
				c0.1-0.2,0.3-0.3,0.3-0.3c0,0,0.1-0.1,0.3-0.3c0.1-0.1,0.2-0.1,0.2-0.2c0.3-0.2,0.4-0.5,0.5-0.5l0-0.2c-0.1-0.1-0.3-0.3-0.4-0.5
				c0,0,0-0.1,0-0.1c-0.1,0-0.4-0.1-0.5-0.2l0.3,0L190.7,8z M195,14.7c-0.2-0.3,0.3-0.4,0.4-0.3c0.2,0.3,0.5,0.7,0.8,1l0.1,0.1h-0.2
				c-0.1,0-0.2,0.1-0.3,0.1l-0.1,0l-0.1,0C195.5,15.3,195.3,15,195,14.7z M195.5,15.7c-0.6-0.4-1.3-0.8-2-1.1c0.2,0.1,0.4,0,0.5-0.1
				c0.1-0.1,0.2-0.1,0.2-0.1c0.1,0,0.1,0,0.2,0.1c0.1,0.1,0.3,0.3,0.4,0.5C195.1,15.1,195.3,15.4,195.5,15.7z M195.8,14.6
				c0.1,0,0.2,0,0.3,0c0,0,0,0.1,0,0.1c0,0.1,0,0.3,0.1,0.4l0.3,0.1c0,0-0.1,0.1-0.1,0.2C196.2,15.1,196,14.8,195.8,14.6z
				 M191.1,13.4c0,0,0-0.1,0-0.1c0,0,0-0.1,0-0.1l0,0l0,0v-0.1c0,0,0.9,0,1.2,0c0.3,0,0.3,0.4,0.1,0.4l-1.3,0L191.1,13.4z M191,12.8
				c0,0-0.1-0.1-0.1-0.1c0-0.1,0-0.3-0.1-0.4c0,0,0-0.1,0-0.1c0.1-0.1,0.2-0.2,0.2-0.2l0,0.1c0,0,0.1,0.1,0.1,0.1s0,0,0.1,0
				c0,0,0.1,0,0.1,0l0.3,0.3c0,0,0.2,0,0.3,0c0,0,0,0,0,0c0,0.1,0.1,0.1,0.1,0.2C191.8,12.8,191.4,12.8,191,12.8z M192.4,13.7
				c0.2,0,0.5,0,0.7,0c0.1,0,0.1,0.1,0.2,0.1c0,0.1,0,0.2,0,0.3c0,0.1,0.1,0.3,0.2,0.4c-0.7-0.3-1.4-0.6-2.1-0.8
				C191.8,13.7,192.1,13.7,192.4,13.7z M190,12.5c-0.3-0.3-0.3-0.6-0.3-0.8c0,0,0,0,0,0c0-0.1,0-0.2,0-0.3c0.1,0.1,0.2,0.1,0.3,0.1
				c0,0,0.1,0.1,0.1,0.1c-0.1,0.1-0.2,0.3-0.2,0.3l-0.1,0.3C189.8,12.2,190,12.4,190,12.5z M190.8,8.8c0.1,0.2,0.2,0.3,0.3,0.5
				c0,0,0,0,0,0c-0.1,0.1-0.3,0.3-0.5,0.5c-0.2,0-0.4,0.1-0.5,0.1c-0.1-0.1-0.2-0.3-0.4-0.5c0.5-0.4,0.6-0.8,0.6-0.8
				S190.6,8.7,190.8,8.8z M185.4,4.3c0.3,0,0.5,0.1,0.6,0.1V2.7h-0.8V2.2h0.8V1.4h0.6v0.8h0.8v0.5h-0.8v1.6c0.2-0.1,0.3-0.1,0.6-0.1
				c0.9,0,1.4,0.6,1.4,1.6c0,0,0,0,0,0h-0.5c0-0.5-0.3-1.1-1-1.1c-0.4,0-0.6,0.3-0.8,0.5c-0.1-0.2-0.4-0.5-0.8-0.5
				c-0.7,0-1,0.5-1,1.1H184c0,0,0,0,0,0C184,4.9,184.6,4.3,185.4,4.3z M183.4,6.2h5.8v0.4h-5.8V6.2z M186.3,8.8
				c-0.7,0-1.6-0.9-2-1.9h0.6c0.4,0.7,1,1.3,1.4,1.3c0.5,0,1.1-0.6,1.4-1.3h0.6C187.9,7.9,187,8.8,186.3,8.8z M188.5,8.9
				c0,0-0.1,0-0.1,0c-0.1-0.2-0.2-0.5-0.4-0.7c0.1-0.1,0.1-0.2,0.2-0.2C188.2,8.3,188.3,8.6,188.5,8.9z M187.3,8.9
				c0.1,0.1,0.1,0.2,0.2,0.4c-0.4,0.2-0.9,0.4-1.2,0.7c-0.3-0.3-0.8-0.5-1.2-0.7c0.1-0.1,0.1-0.3,0.2-0.4c0.3,0.2,0.7,0.4,1,0.4
				C186.7,9.3,187,9.1,187.3,8.9z M184.6,8.2c-0.1,0.2-0.3,0.5-0.4,0.7c0,0-0.1,0-0.1,0c0.2-0.3,0.3-0.7,0.3-0.9
				C184.5,8.1,184.6,8.2,184.6,8.2z M183.4,7c0.5,0,0.8,0.5,0.8,0.9c0,0.5-0.3,1-0.4,1.2c0.2,0.1,0.4,0.2,0.6,0.2
				c0.1-0.2,0.2-0.6,0.5-1l0.1-0.1l0.1,0.1c0.1,0.1,0.1,0.1,0.2,0.2l0,0l0,0.1c-0.2,0.4-0.4,0.7-0.4,0.8c0.6,0.2,1.2,0.5,1.5,0.9
				c0.3-0.5,0.9-0.7,1.5-0.9c-0.1-0.2-0.2-0.5-0.4-0.8l0-0.1l0,0c0.1-0.1,0.1-0.1,0.2-0.2l0.1-0.1l0,0.1c0.3,0.4,0.4,0.8,0.5,0.9
				c0.2-0.1,0.5-0.2,0.6-0.2c-0.1-0.2-0.4-0.7-0.4-1.2c0-0.4,0.4-0.9,0.8-0.9c0.5,0,0.9,0.5,0.9,1.1c0,0.5-0.2,0.8-0.7,1.1
				c0.3,0.4,0.6,0.7,0.6,0.8c0,0,0.5-0.1,0.5-0.1l-0.3,0.2c-0.3,0.3-0.4,0.5-0.4,0.5h0c-0.2,0-0.3,0.2-0.3,0.4c0,0,0,0,0,0.1l0,0
				l0,0c-0.1,0.2-0.1,0.4-0.1,0.6c0,0.1,0,0.8,0.7,1.1l0,0l0,0.2c0,0,0.2,0.1,0.2,0.1l0.1,0.2l0.1,0.1l-0.2,0
				c-1.9-0.2-2.8-0.7-3-0.8c-0.2,0.1-0.8,0.5-1,0.5c-0.2,0-0.8-0.4-1-0.5c-0.3,0.1-1.7,0.8-3.8,0.8c-0.4,0-0.8,0-1.1,0
				c-0.1,0-0.1-0.4,0-0.4c0.1,0,0.9,0,1.3,0l0.1,0c1,0,1.4-0.7,1.4-1.3c0-0.4-0.1-0.7-0.4-1c-0.3-0.3-0.7-0.4-0.9-0.4
				c-0.9,0-1.3,0.6-1.4,0.6c0,0.1-0.1,0.1-0.2,0.1c-0.1,0-0.1,0-0.1-0.1c0,0-0.1-0.1-0.1-0.2c0-0.1,0-0.1,0.1-0.2
				c0,0,0.6-0.7,1.7-0.7c0.3,0,0.5,0.1,0.6,0.1c0.3-0.3,0.5-0.7,0.6-0.8c-0.2-0.1-0.7-0.5-0.7-1.1C182.5,7.5,182.9,7,183.4,7z
				 M179.1,14.1c0,0.1,0,0.1-0.1,0.2c-0.1,0-0.1,0-0.2,0c0,0-0.2-0.2-0.5-0.3c0.2-0.2,0.6-0.3,0.8-0.4
				C179,13.8,179.1,14.1,179.1,14.1z M179.1,14.6c-0.7,0.3-1.4,0.7-2,1.1c0.3-0.3,0.5-0.6,0.6-0.8c0.2-0.2,0.4-0.5,0.5-0.6
				c0.1,0,0.3,0.1,0.3,0.2C178.7,14.6,178.9,14.6,179.1,14.6z M179.4,14.1c0,0,0-0.1,0-0.1c0-0.1,0-0.3,0.1-0.3c0.1,0,0.5,0,0.8,0
				c0.3,0,0.6,0,1,0c-0.7,0.2-1.4,0.5-2.1,0.8C179.3,14.5,179.4,14.3,179.4,14.1z M180,11.4L180,11.4l1.1,0c0,0,0,0,0-0.1
				c0-0.4,0.3-0.7,0.7-0.7c0.4,0,0.6,0.4,0.6,0.5c0.1,0,0.4,0.2,0.4,0.6c0,0.4-0.4,0.6-0.4,0.6c0,0.1-0.2,0.5-0.6,0.5
				c-0.4,0-0.7-0.4-0.7-0.7c0,0,0,0,0-0.1h-0.9l0,0c0,0,0,0,0,0C180,11.8,180,11.7,180,11.4z M180,10.6l-0.1-0.4
				c0.3-0.3,0.5-0.6,0.6-0.7c0,0,0.3,0.2,0.5,0.4C180.4,10.1,180,10.5,180,10.6z M181.1,12.8c-0.3,0-0.5,0-0.7,0
				c0-0.1,0-0.2-0.1-0.4c0.3,0,0.5,0,0.5,0C180.9,12.5,181,12.7,181.1,12.8C181.1,12.8,181.1,12.8,181.1,12.8z M182.3,8.6
				c0,0,0.2,0.5,0.6,0.7c-0.2,0.2-0.3,0.4-0.4,0.5c-0.2-0.1-0.3-0.1-0.5-0.1c-0.2,0-0.5,0-0.7,0.1L182.3,8.6z M181,7.5l0.5,0.4
				L181.3,8l0.3,0.2l0.1-0.1l0.3,0.3l-0.4,0.5l-0.3-0.3l0.1-0.1l-0.3-0.2l-0.3,0.4l0.3,0.2l0.1-0.1l0.3,0.3L181,9.6l-0.3-0.3
				l0.1-0.1l-0.3-0.2l-0.8,0.9c0,0,0,0,0,0c-0.2-0.2-0.3-0.3-0.2-0.6L181,7.5z M175.6,10.2L175.6,10.2c0.2-0.2,0.5-0.3,0.5-0.5
				c0-0.3,0-0.6,0.4-0.8c0.4-0.2,0.7,0,0.9,0.2c0,0.1,0.1,0.1,0.2,0.1c0.3,0,0.7-0.2,1.2-0.2c0.3,0,0.5,0.1,0.6,0.3
				c0.4,1.2,0.8,3.8,0.8,3.8c0,0-0.7,0-1.5,0.4c-0.7,0.3-1.3,0.9-1.3,0.9c0,0-1.8-2-2.4-3.1C174.8,11,175,10.6,175.6,10.2z
				 M176.4,14.5c0-0.1,0.2-0.2,0.3-0.4c0.1,0.1,0.2,0.2,0.3,0.3c-0.1,0.2-0.3,0.4-0.4,0.6c0,0,0,0,0,0
				C176.5,14.8,176.4,14.6,176.4,14.5z M176,14.5c0.2,0.1,0.2,0.3,0.2,0.5c0,0.5-0.3,0.7-0.6,0.7c-0.1,0-0.2,0-0.3,0
				c0,0-0.2,0.1-0.3,0.1c-0.4,0-0.7-0.3-0.7-0.7c0-0.1,0-0.2,0-0.2c0,0-0.1-0.2-0.1-0.3c0-0.2,0-0.4,0.2-0.5
				c0.1-0.1,0.3-0.2,0.5-0.2c0,0,0,0,0.1,0c0.2,0,0.3,0.1,0.4,0.2c0,0,0,0,0,0l0.7-0.8c0,0,0.2,0,0.3,0.2c0.1,0.1,0.1,0.3,0.1,0.3
				L176,14.5C176,14.5,176,14.5,176,14.5z M175.6,12.7c-0.1,0-0.1-0.1-0.2-0.1c0,0-0.5,0-1,0.3c0-0.2,0-0.6,0-0.6c0.2,0,0.5,0,0.9,0
				C175.3,12.4,175.5,12.6,175.6,12.7z M173.4,12.8v-0.4h0.2V12H173v0.4h0.2v0.4h-0.7v-0.4h0.2l0-0.4h-0.2v-0.6h2.3
				c0.3,0.2,0.3,0.3,0.3,0.6h-1.2v0.4h0.2v0.4L173.4,12.8z M171.8,19.2c0-0.4,0.2-0.7,0.6-1c0.2-0.1,0.3-0.1,0.4-0.2l0.6-0.3
				l0.3-0.1l-0.2,0c-1,0-1.5-0.3-1.5-0.8c0-0.1,0.1-0.2,0.2-0.2c0.1,0,0.2,0.1,0.2,0.2c0,0.1,0,0.1,0.1,0.2c0.2,0.2,0.8,0.2,1,0.2
				c0.6,0,1.1-0.2,1.5-0.5c-0.4,0-0.7-0.2-1-0.4c-0.4-0.3-0.6-0.7-0.7-1.2c0-0.5,0.1-0.9,0.4-1.3c0.7-0.8,1.6-0.8,1.7-0.8
				c0.1,0,0.2,0.1,0.2,0.2c0,0.1-0.1,0.2-0.2,0.2c0,0-0.7,0-1.3,0.7c-0.1,0.2-0.3,0.5-0.3,0.9c0,0.4,0.2,0.7,0.5,0.9
				c0.1,0.1,0.4,0.3,0.9,0.3c0.4,0,0.7-0.2,1-0.5l0.1,0c0.3-0.4,0.8-0.9,0.9-1.1c0.1-0.2,0.5,0.1,0.3,0.3c-0.4,0.4-0.8,1-1.5,1.7
				c-0.1,0.1-0.1,0.1-0.1,0.1c-0.4,0.4-0.9,0.8-1.4,1.1c-0.6,0.3-0.8,0.4-0.8,0.4l0,0l-0.7,0.3c-0.2,0.1-0.2,0.1-0.4,0.2
				c-0.3,0.2-0.4,0.4-0.4,0.6c0,0.2,0.2,0.3,0.3,0.3c0.2,0,0.2-0.2,0.2-0.3c0-0.1,0-0.1,0.1-0.2c0,0,0.1-0.1,0.2-0.1
				c0.1,0,0.2,0.1,0.2,0.2c0,0.5-0.4,0.7-0.7,0.7C172.1,20,171.8,19.6,171.8,19.2z M174.1,15C174.1,15,174.1,15,174.1,15
				C174.1,15,174.1,15,174.1,15L174.1,15z M173.8,18.4c-0.2,0.3-0.2,0.3-0.5,0.5c0,0,0-0.1-0.1-0.1c-0.1-0.1-0.2-0.1-0.3-0.1
				c-0.1,0,0,0,0.1-0.1C173.3,18.6,173.8,18.4,173.8,18.4z M186.4,46.7c-9.2,0.1-16.7-7.4-16.7-16.5c0-3.7,1.2-7.1,3.2-9.8
				c0.1,0,0.2-0.1,0.3-0.2c0.1-0.1,0.3-0.3,0.3-0.6c3-3.7,7.6-6,12.7-6.1c5.2,0,9.8,2.3,12.9,6c0.1,0.6,0.5,0.8,0.7,0.8
				c2,2.7,3.1,6,3.2,9.6C203,39.1,195.6,46.6,186.4,46.7z"/>
			<path class="st0" d="M199,30c0-7-5.7-12.6-12.6-12.6c-7,0-12.6,5.7-12.6,12.6c0,6.9,5.7,12.6,12.6,12.6C193.3,42.6,199,37,199,30
				z M186.2,42.2c-6.6-0.1-11.9-5.4-12-12h12V42.2z M186.2,29.8h-12c0.1-6.5,5.4-11.8,12-11.9V29.8z M186.6,17.8
				c6.5,0.1,11.8,5.4,12,11.9h-12V17.8z M186.6,42.2v-12h12C198.5,36.8,193.1,42.1,186.6,42.2z"/>
			<path class="st0" d="M176.3,39.2c0-0.1-0.2-0.2-0.3-0.3c0,0-0.1,0-0.1,0c0,0,0,0,0,0.1c0.1,0.2,0.1,0.2-0.2,0.5l-1,0.9
				c0,0,0,0-0.1-0.1c-0.2-0.2-0.1-0.4,0.1-0.6c0.2-0.2,0.4-0.1,0.6,0c0,0.1,0.1,0.1,0.1,0c0,0,0-0.1,0-0.1c-0.3-0.3-0.7-0.3-1-0.1
				c-0.3,0.2-0.2,0.6,0.1,0.8c0.1,0.1,0.2,0.2,0.3,0.3c0,0.1,0.2,0.2,0.3,0.3c0,0,0.1,0,0.1,0c0,0,0,0,0-0.1c-0.1-0.1-0.1-0.2,0-0.3
				l1-0.9c0.3-0.2,0.3-0.2,0.4-0.1c0,0,0,0,0.1,0c0,0,0,0,0-0.1C176.5,39.3,176.3,39.2,176.3,39.2z"/>
			<path class="st0" d="M174.8,37.1c-0.4-0.6-1-0.7-1.5-0.4c-0.5,0.3-0.6,0.9-0.3,1.5c0.4,0.7,1.1,0.7,1.5,0.4
				C174.9,38.3,175.2,37.7,174.8,37.1z M173.1,38.1c-0.2-0.4-0.1-0.9,0.4-1.2c0.7-0.4,1-0.1,1.1,0.1c0.3,0.4,0.1,0.9-0.4,1.2
				C173.6,38.6,173.3,38.4,173.1,38.1z"/>
			<path class="st0" d="M173.8,35.7C173.9,35.7,173.9,35.7,173.8,35.7C173.9,35.7,173.9,35.7,173.8,35.7c0-0.2,0-0.3,0-0.3
				c0-0.1,0-0.2-0.1-0.3c0,0,0-0.1-0.1-0.1c0,0,0,0,0,0.1c0.1,0.2,0,0.2-0.2,0.3l-1,0.4l0.9-1.9c0,0,0-0.1,0-0.1c0,0,0,0-0.1,0
				l-1.6,0.6c-0.2,0.1-0.2,0-0.3-0.1c0,0,0-0.1-0.1-0.1c0,0,0,0,0,0.1c0,0.1,0.1,0.2,0.1,0.2c0,0.1,0.1,0.2,0.1,0.3
				c0,0,0,0.1,0.1,0.1c0,0,0,0,0-0.1c-0.1-0.2,0-0.2,0.2-0.3l1.1-0.4l-0.9,1.8c0,0,0,0.1,0,0.2c0,0,0.1,0,0.1,0l1.6-0.5
				C173.8,35.5,173.8,35.5,173.8,35.7z"/>
			<path class="st0" d="M171.4,33.6C171.5,33.6,171.5,33.6,171.4,33.6C171.5,33.5,171.5,33.5,171.4,33.6c-0.1-0.1-0.2-0.1-0.2-0.4
				l-0.1-0.4l1.3-0.2c0.4-0.1,0.5-0.1,0.5,0.1c0,0,0,0.1,0,0c0,0,0,0,0-0.1c0-0.1-0.1-0.3-0.1-0.3c0-0.1,0-0.2-0.1-0.4
				c0,0,0-0.1-0.1-0.1c0,0,0,0,0,0.1c0,0.2,0,0.2-0.4,0.3l-1.3,0.2l0-0.3c0-0.2,0-0.3,0.1-0.3c0,0,0.1,0,0.1-0.1c0,0,0,0-0.1,0
				c-0.1,0-0.3,0-0.3,0c-0.1,0-0.1,0-0.1,0c0,0,0,0.1,0.1,0.3l0.2,1.2c0,0.1,0,0.2,0,0.3c0,0,0,0,0.1,0
				C171.1,33.6,171.4,33.6,171.4,33.6z"/>
			<path class="st0" d="M170.8,31.2c0-0.2,0-0.2,0.1-0.2c0.1,0,0.2,0,0.6,0l0.5,0c0.3,0,0.5,0,0.6,0c0.1,0,0.1,0,0.1,0.2
				c0,0,0,0.1,0,0.1c0,0,0,0,0-0.1c0-0.1,0-0.3,0-0.3c0-0.1,0-0.2,0-0.4c0,0,0-0.1,0-0.1c0,0,0,0,0,0.1c0,0.2,0,0.2-0.1,0.2
				c-0.1,0-0.3,0-0.6,0l-0.5,0c-0.4,0-0.5,0-0.6,0c-0.1,0-0.2,0-0.2-0.2c0,0,0-0.1,0-0.1c0,0,0,0,0,0.1c0,0.1,0,0.3,0,0.3
				C170.7,30.9,170.7,31.1,170.8,31.2C170.7,31.2,170.8,31.3,170.8,31.2C170.8,31.2,170.8,31.2,170.8,31.2z"/>
			<path class="st0" d="M170.7,29.6C170.8,29.6,170.8,29.6,170.7,29.6c0.1-0.3,0.1-0.3,0.4-0.3l1.2,0.1c0.4,0,0.4,0.1,0.4,0.2
				c0,0,0,0.1,0,0.1c0,0,0,0,0-0.1c0-0.1,0-0.3,0-0.3c0-0.1,0-0.2,0-0.4c0-0.1,0-0.1,0-0.1c0,0,0,0,0,0.1c0,0.2,0,0.2-0.4,0.2
				l-0.4,0c0,0,0,0,0,0c0,0,0-0.3,0-0.4c0-0.1,0.1-0.1,0.2-0.1c0,0,0.1,0,0.1,0c0,0,0,0-0.1,0c-0.2,0-0.3-0.1-0.4-0.1c0,0,0,0,0,0
				c0,0,0.1,0,0.1,0.2l0,0.4c0,0,0,0,0,0l-0.8-0.1c0,0,0,0,0,0l0-0.4c0-0.1,0.1-0.1,0.1-0.2c0,0,0.1,0,0.1,0c0,0,0.1,0,0.1,0
				c0,0,0,0,0,0c0,0-0.2,0-0.2,0c0,0-0.1,0-0.1,0c0,0,0,0,0,0c0,0,0,0,0,0c0,0,0,0,0,0l0,0c0,0,0,0.1,0,0.1c0,0.1,0,0.6,0,0.7
				C170.7,29.2,170.7,29.4,170.7,29.6C170.7,29.6,170.7,29.6,170.7,29.6z"/>
			<path class="st0" d="M171,27.5c0-0.1,0.1-0.2,0.2-0.1c0.1,0,0.2,0,0.6,0.1l0.5,0.1c0.3,0,0.5,0.1,0.6,0.1c0.1,0,0.1,0.1,0.1,0.2
				c0,0,0,0.1,0,0.1c0,0,0,0,0.1-0.1c0-0.1,0-0.3,0.1-0.3c0-0.1,0.1-0.2,0.1-0.4c0,0,0-0.1,0-0.1c0,0,0,0,0,0c0,0.1-0.1,0.2-0.2,0.2
				c-0.1,0-0.3-0.1-0.6-0.1l-0.5-0.1c-0.4-0.1-0.5-0.1-0.6-0.1c-0.1,0-0.1-0.1-0.1-0.2c0,0,0-0.1,0-0.1c0,0,0,0,0,0.1
				c0,0.1,0,0.3-0.1,0.3C171,27.2,170.9,27.4,171,27.5C170.9,27.5,170.9,27.5,171,27.5C171,27.6,171,27.5,171,27.5z"/>
			<path class="st0" d="M172.2,26.2c0.7,0.3,1.2-0.2,1.5-0.9c0.1-0.2,0.1-0.4,0.1-0.5c0-0.1,0-0.1-0.1-0.1c-0.1-0.1-0.3-0.2-0.3-0.2
				c0,0-0.1,0-0.1,0c0,0,0,0,0,0.1c0.2,0.1,0.2,0.3,0.1,0.7c-0.2,0.5-0.6,0.7-1.2,0.5c-0.5-0.2-0.7-0.5-0.6-1
				c0.1-0.3,0.3-0.6,0.6-0.5c0,0,0.1,0,0.1,0c0,0,0,0-0.1-0.1c0,0-0.2-0.1-0.3-0.1c-0.1,0-0.1-0.1-0.1-0.1c0,0,0,0-0.1,0
				c-0.1,0.1-0.2,0.3-0.3,0.6C171.4,25.3,171.5,26,172.2,26.2z"/>
			<path class="st0" d="M172.3,23.3c0.1-0.1,0.1-0.1,0.2-0.1c0.1,0,0.1,0.1,0.5,0.3l0.4,0.2c0.2,0.1,0.4,0.2,0.5,0.3
				c0.1,0.1,0.1,0.1,0,0.2c0,0,0,0.1,0,0.1c0,0,0,0,0.1,0c0-0.1,0.1-0.3,0.1-0.3c0-0.1,0.1-0.2,0.2-0.4c0,0,0-0.1,0-0.1
				c0,0,0,0-0.1,0c-0.1,0.1-0.1,0.2-0.2,0.2c-0.1,0-0.3-0.1-0.5-0.3l-0.4-0.2c-0.4-0.2-0.4-0.2-0.5-0.3c-0.1-0.1-0.1-0.1-0.1-0.2
				c0,0,0-0.1,0-0.1c0,0,0,0-0.1,0c0,0.1-0.1,0.2-0.1,0.3C172.4,23,172.3,23.2,172.3,23.3C172.2,23.3,172.2,23.3,172.3,23.3
				C172.3,23.4,172.3,23.3,172.3,23.3z"/>
			<path class="st0" d="M174.5,22.8c0.1,0.2,0.1,0.3,0,0.4c0,0,0,0,0,0.1c0,0,0,0,0.1,0c0.1-0.1,0.2-0.2,0.2-0.3
				c0-0.1,0.1-0.2,0.2-0.2c0,0,0-0.1,0-0.1c0,0,0,0-0.1,0c0,0.1-0.1,0.1-0.1,0c0,0-0.1-0.1-0.1-0.1l-0.2-0.2c0,0,0,0,0,0l0.4-0.5
				c0,0,0,0,0,0l0.5,0.1c0,0,0,0.1,0,0.1c0,0,0,0,0,0.1c0,0,0.1,0,0.1-0.1c0,0,0.1-0.2,0.2-0.3c0-0.1,0.1-0.2,0.2-0.2
				c0.1-0.1,0.1-0.1,0-0.1c0,0,0,0-0.1,0c-0.1,0.1-0.2,0.1-0.4,0c-0.4-0.1-1.6-0.4-1.7-0.4c-0.1,0-0.1,0-0.1,0c0,0,0,0.1,0,0.1
				L174.5,22.8z M174.7,21.7l-0.3,0.5l-0.5-0.7c0,0,0,0,0,0l0,0L174.7,21.7z"/>
			<path class="st0" d="M175.5,18.8c0.1-0.1,0.2-0.1,0.4,0.1l0.5,0.6c0.4,0.5,0.8,0.5,1.2,0.2c0.5-0.4,0.4-0.8,0-1.3l-0.4-0.5
				c-0.2-0.2-0.2-0.2-0.1-0.4c0,0,0-0.1,0-0.1c0,0,0,0-0.1,0c-0.1,0.1-0.2,0.1-0.2,0.2c-0.1,0-0.1,0.1-0.2,0.2c0,0,0,0.1,0,0.1
				c0,0,0,0,0.1,0c0.2-0.1,0.2-0.1,0.4,0.1l0.5,0.6c0.3,0.4,0.4,0.7,0.1,0.9c-0.3,0.3-0.6,0.1-0.9-0.2l-0.5-0.6
				c-0.2-0.2-0.2-0.3-0.1-0.3c0,0,0,0,0-0.1c0,0,0,0-0.1,0c-0.1,0.1-0.2,0.2-0.3,0.2C175.7,18.5,175.6,18.6,175.5,18.8
				C175.5,18.7,175.5,18.7,175.5,18.8C175.5,18.8,175.5,18.8,175.5,18.8z"/>
			<path class="st0" d="M178.8,18.2c0.1,0.2,0.1,0.3,0,0.3c0,0,0,0,0,0.1c0,0,0,0,0.1,0c0.1-0.1,0.2-0.1,0.3-0.1
				c0,0,0.1-0.1,0.3-0.2c0,0,0.1,0,0-0.1c0,0,0,0-0.1,0c-0.1,0.1-0.2,0.1-0.4-0.2l-0.5-1l2,0.6c0,0,0.1,0,0.1,0c0,0,0,0,0-0.1
				l-0.8-1.5c-0.1-0.2-0.1-0.2,0-0.3c0,0,0.1,0,0-0.1c0,0,0,0-0.1,0c-0.1,0.1-0.2,0.1-0.2,0.1c-0.1,0-0.2,0.1-0.3,0.1
				c0,0-0.1,0.1-0.1,0.1c0,0,0,0,0.1,0c0.2-0.1,0.2-0.1,0.3,0.1l0.6,1l-1.9-0.6c0,0-0.1,0-0.2,0c0,0,0,0.1,0,0.1L178.8,18.2z"/>
			<path class="st0" d="M180.6,15.5c0.1-0.1,0.2,0,0.2,0.1c0,0.1,0.1,0.2,0.2,0.5l0.2,0.4c0.1,0.2,0.2,0.4,0.2,0.6
				c0,0.1,0,0.1-0.1,0.2c0,0-0.1,0,0,0.1c0,0,0,0,0.1,0c0.1,0,0.3-0.1,0.3-0.1c0.1,0,0.2-0.1,0.4-0.1c0,0,0.1,0,0-0.1c0,0,0,0-0.1,0
				c-0.1,0.1-0.2,0.1-0.3,0c0-0.1-0.1-0.3-0.2-0.6l-0.2-0.4c-0.1-0.4-0.2-0.5-0.2-0.5c0-0.1,0-0.2,0.1-0.2c0,0,0.1,0,0-0.1
				c0,0,0,0-0.1,0c-0.1,0-0.2,0.1-0.3,0.1C180.9,15.4,180.7,15.4,180.6,15.5C180.6,15.5,180.6,15.5,180.6,15.5
				C180.6,15.5,180.6,15.5,180.6,15.5z"/>
			<path class="st0" d="M181.9,15c0.2,0,0.3,0,0.3,0.1l1.1,1.5c0,0.1,0.1,0.1,0.1,0.1c0,0,0.1,0,0.1-0.2l0.4-1.7
				c0-0.2,0.1-0.3,0.2-0.3c0,0,0.1,0,0,0c0,0,0,0-0.1,0c-0.1,0-0.1,0-0.2,0.1c-0.1,0-0.2,0-0.3,0c-0.1,0-0.1,0-0.1,0.1
				c0,0,0,0,0.1,0c0.1,0,0.1,0,0.1,0c0,0,0,0.1,0,0.1l-0.2,1.4l-0.7-1.1c-0.1-0.1-0.1-0.2-0.1-0.2c0-0.1,0.1-0.1,0.1-0.1
				c0,0,0.1,0,0,0c0,0,0,0-0.1,0c-0.1,0-0.3,0.1-0.3,0.1C182.2,14.9,182.1,14.9,181.9,15C181.9,15,181.9,15,181.9,15
				C181.9,15,181.9,15,181.9,15z"/>
			<path class="st0" d="M184.7,14.5c0.2,0,0.2,0,0.2,0.1c0,0.1,0,0.2,0,0.6l0,0.5c0,0.1,0,0.3,0,0.4c0,0.3,0,0.3-0.2,0.3
				c0,0-0.1,0-0.1,0c0,0,0,0,0.1,0c0.1,0,0.3,0,0.3,0c0.3,0,0.6,0,0.8,0c0.1,0,0.1,0,0.1-0.1c0-0.1,0-0.2,0-0.3c0,0,0-0.1,0-0.1
				c0,0,0,0,0,0.1c0,0.1,0,0.2-0.1,0.2c-0.1,0-0.3,0-0.3,0.1c-0.2,0-0.2,0-0.2-0.2c0-0.1,0-0.3,0-0.6c0,0,0,0,0,0c0,0,0.3,0,0.4,0
				c0.1,0,0.2,0.1,0.2,0.2c0,0,0,0,0,0c0,0,0,0,0-0.1c0-0.1,0-0.3,0-0.4c0,0,0,0,0,0c0,0,0,0-0.1,0.1c0,0-0.1,0.1-0.2,0.1
				c-0.1,0-0.3,0-0.3,0c0,0,0,0,0,0l0-0.7c0,0,0,0,0,0c0.5,0,0.5,0,0.6,0.2c0,0,0,0.1,0,0c0,0,0,0,0,0c0-0.2,0-0.3,0-0.4
				c0,0,0,0,0,0c0,0-0.1,0-0.2,0c-0.1,0-0.6,0-0.7,0C185,14.4,184.9,14.4,184.7,14.5C184.7,14.4,184.6,14.5,184.7,14.5
				C184.7,14.5,184.7,14.5,184.7,14.5z"/>
			<path class="st0" d="M186.8,16.4c0.1,0,0.3,0,0.3,0c0,0,0.2,0,0.4,0c0,0,0.1,0,0.1,0c0,0,0,0,0,0c-0.2,0-0.2-0.1-0.2-0.4l0-0.4
				c0,0,0,0,0,0l0.2,0c0,0,0,0,0,0c0.1,0.1,0.2,0.3,0.2,0.4c0.2,0.3,0.3,0.5,0.6,0.5l0.3,0c0,0,0.1,0,0.1,0c0,0,0,0,0,0
				c-0.2,0-0.4-0.2-0.9-1c0.3-0.2,0.4-0.4,0.4-0.6c0-0.4-0.3-0.5-0.7-0.6c-0.1,0-0.3,0-0.4,0c-0.1,0-0.2,0-0.4,0c-0.1,0-0.1,0-0.1,0
				c0,0,0,0,0.1,0c0.2,0,0.2,0.1,0.2,0.3L187,16C186.9,16.3,186.9,16.4,186.8,16.4C186.7,16.4,186.7,16.4,186.8,16.4
				C186.7,16.4,186.7,16.4,186.8,16.4z M187.5,14.6c0,0,0,0,0.2,0c0.2,0,0.4,0.2,0.4,0.5c0,0.2-0.1,0.4-0.4,0.4
				c-0.2,0-0.2,0-0.2-0.1L187.5,14.6z"/>
			<path class="st0" d="M189.5,16.8c0.4,0.1,0.7,0,0.8-0.4c0.2-0.6-0.6-0.9-0.5-1.3c0-0.1,0.2-0.2,0.4-0.2c0.2,0,0.3,0.2,0.3,0.4
				c0,0,0,0.1,0,0.1c0,0,0,0,0.1-0.1c0.1-0.2,0.1-0.3,0.1-0.3c0,0,0,0,0-0.1c-0.1,0-0.2-0.1-0.4-0.1c-0.4-0.1-0.7,0.1-0.8,0.4
				c-0.1,0.6,0.6,0.9,0.5,1.3c0,0.1-0.2,0.3-0.4,0.2c-0.3-0.1-0.3-0.3-0.3-0.5c0,0,0-0.1,0-0.1c0,0-0.1,0-0.1,0.1l-0.1,0.4
				C189,16.7,189.2,16.8,189.5,16.8z"/>
			<path class="st0" d="M190.7,17.2c0.1,0,0.3,0.1,0.3,0.1c0.1,0,0.2,0.1,0.4,0.2c0,0,0.1,0,0.1,0c0,0,0,0,0-0.1
				c-0.1-0.1-0.2-0.1-0.2-0.2c0-0.1,0.1-0.3,0.2-0.6l0.2-0.4c0.1-0.4,0.2-0.5,0.2-0.5c0.1-0.1,0.1-0.1,0.2-0.1c0,0,0.1,0,0.1,0
				c0,0,0,0-0.1-0.1c-0.1,0-0.3-0.1-0.3-0.1c-0.1,0-0.2-0.1-0.3-0.1c-0.1,0-0.1,0-0.1,0c0,0,0,0,0,0.1c0.1,0.1,0.1,0.1,0.1,0.2
				c0,0.1-0.1,0.2-0.2,0.5l-0.2,0.4c-0.1,0.2-0.2,0.4-0.2,0.5C190.9,17.1,190.9,17.1,190.7,17.2C190.7,17.1,190.7,17.1,190.7,17.2
				C190.7,17.1,190.7,17.2,190.7,17.2z"/>
			<path class="st0" d="M192.1,17.6C192,17.6,192.1,17.6,192.1,17.6c0.1,0.1,0.3,0.2,0.3,0.2c0.1,0.1,0.3,0.2,0.5,0.3
				c0.6,0.3,1.2,0.3,1.6-0.3c0.4-0.6,0-1.2-0.7-1.6c-0.1-0.1-0.3-0.2-0.4-0.2c-0.1,0-0.2-0.1-0.3-0.2c0,0-0.1,0-0.1,0c0,0,0,0,0,0.1
				c0.1,0.1,0.2,0.1,0.1,0.2c0,0.1-0.1,0.1-0.3,0.5l-0.2,0.4C192.3,17.6,192.3,17.7,192.1,17.6C192.1,17.6,192.1,17.6,192.1,17.6z
				 M192.8,17.4l0.6-1.1c0-0.1,0.1-0.1,0.2,0c0.5,0.3,0.7,0.8,0.4,1.3c-0.3,0.5-0.7,0.6-1.2,0.3C192.7,17.8,192.7,17.8,192.8,17.4z"
				/>
			<path class="st0" d="M194.2,18.8C194.2,18.8,194.2,18.8,194.2,18.8C194.2,18.8,194.2,18.9,194.2,18.8c0.1,0.2,0.2,0.3,0.2,0.3
				c0.1,0.1,0.2,0.1,0.2,0.2c0,0,0,0,0.1,0c0,0,0,0,0-0.1c-0.1-0.1-0.1-0.1,0-0.1c0,0,0.1-0.1,0.1-0.1l0.3-0.1c0,0,0,0,0,0l0.5,0.4
				c0,0,0,0,0,0l-0.2,0.5c0,0-0.1-0.1-0.1-0.1c0,0,0,0-0.1,0c0,0,0,0.1,0.1,0.1c0,0,0.2,0.1,0.2,0.2c0.1,0,0.1,0.1,0.2,0.2
				c0.1,0.1,0.1,0.1,0.1,0.1c0,0,0,0,0-0.1c-0.1-0.1-0.1-0.2,0-0.4c0.1-0.4,0.5-1.6,0.5-1.7c0-0.1,0-0.1,0-0.1c0,0-0.1,0-0.1,0
				l-1.6,0.9C194.4,18.9,194.4,18.9,194.2,18.8z M195.9,18.4C196,18.3,196,18.3,195.9,18.4L195.9,18.4l-0.3,0.8l-0.4-0.4L195.9,18.4
				z"/>
			<path class="st0" d="M196.3,20.6C196.2,20.5,196.2,20.5,196.3,20.6C196.2,20.5,196.2,20.5,196.3,20.6c0,0.1,0.1,0.2,0.2,0.3
				c0.1,0.1,0.2,0.3,0.3,0.5c0.4,0.5,1.1,0.7,1.6,0.3c0.6-0.5,0.4-1.1-0.1-1.7c-0.1-0.1-0.2-0.3-0.3-0.3c0-0.1-0.2-0.2-0.2-0.3
				c0,0-0.1,0-0.1,0c0,0,0,0,0,0.1c0.1,0.1,0.1,0.2,0,0.3c-0.1,0.1-0.1,0.1-0.4,0.4l-0.4,0.3C196.4,20.6,196.3,20.6,196.3,20.6z
				 M196.9,20.7l1-0.8c0.1-0.1,0.1-0.1,0.2,0.1c0.4,0.5,0.4,1-0.1,1.4c-0.5,0.4-0.8,0.3-1.2-0.1C196.6,20.9,196.7,20.9,196.9,20.7z"
				/>
			<path class="st0" d="M199.1,25.3c0,0,0.1,0,0.1,0c0.1,0,0.3-0.1,0.4-0.1c0,0,0,0,0-0.1c0,0,0,0-0.1,0c-0.2,0-0.4,0-0.5-0.4
				c-0.2-0.4,0-0.9,0.5-1.2c0.5-0.2,0.9-0.1,1.1,0.4c0.1,0.3,0.1,0.6-0.1,0.8c0,0-0.1,0,0,0.1c0,0,0,0,0.1,0c0.1,0,0.2-0.1,0.3-0.1
				c0.1,0,0.1,0,0.1,0c0,0,0,0,0-0.1c0-0.1-0.1-0.4-0.2-0.6c-0.3-0.6-0.8-1-1.4-0.7c-0.7,0.3-0.8,1-0.5,1.6
				C199,25,199.1,25.2,199.1,25.3z"/>
			<path class="st0" d="M199.3,25.7C199.3,25.6,199.3,25.6,199.3,25.7C199.3,25.6,199.3,25.7,199.3,25.7c0,0.2,0,0.3,0,0.4
				c0,0.1,0,0.2,0.1,0.3c0,0,0,0.1,0.1,0c0,0,0,0,0-0.1c0-0.1,0-0.1,0-0.1c0,0,0.1,0,0.2,0l0.3,0c0,0,0,0,0,0l0.2,0.6c0,0,0,0,0,0
				l-0.4,0.3c0,0-0.1-0.1-0.1-0.1c0,0,0,0,0,0c0,0,0,0,0,0.1c0,0,0.1,0.2,0.1,0.3c0,0.1,0,0.2,0.1,0.3c0,0.1,0.1,0.1,0.1,0.1
				c0,0,0,0,0-0.1c0-0.1,0.1-0.2,0.2-0.3c0.4-0.3,1.3-1,1.4-1.1c0.1,0,0.1-0.1,0.1-0.1c0,0,0,0-0.1-0.1l-1.8-0.3
				C199.5,25.9,199.4,25.8,199.3,25.7z M201,26.3C201,26.3,201,26.3,201,26.3L201,26.3L201,26.3l-0.7,0.5l-0.1-0.6L201,26.3z"/>
			<path class="st0" d="M201.5,27.8C201.5,27.8,201.5,27.8,201.5,27.8C201.5,27.9,201.5,27.9,201.5,27.8c0.1,0.1,0.2,0.2,0.2,0.4
				l0,0.4l-1.3,0.1c-0.4,0-0.5,0-0.5-0.1c0,0,0-0.1,0-0.1c0,0,0,0,0,0.1c0,0.1,0,0.3,0,0.3c0,0.1,0,0.3,0,0.4c0,0,0,0.1,0,0.1
				c0,0,0,0,0-0.1c0-0.2,0-0.2,0.5-0.3l1.3-0.1l0,0.3c0,0.2,0,0.3-0.1,0.3c0,0-0.1,0-0.1,0c0,0,0,0,0.1,0c0.1,0,0.3,0,0.3,0
				c0.1,0,0.1,0,0.1,0c0,0,0-0.1-0.1-0.3l-0.1-1.2c0-0.1,0-0.2,0-0.2c0,0,0,0-0.1,0C201.8,27.8,201.6,27.8,201.5,27.8z"/>
			<path class="st0" d="M202.3,31.8c0,0-0.2-0.4-0.3-0.6c0-0.7-0.5-1-1-1.1c-0.5,0-1.1,0.2-1.2,1c-0.1,0.7,0.4,1.2,1,1.2
				c0.6,0.1,1-0.3,1.1-1c0.1,0.2,0.1,0.5,0.1,0.5c0,0,0,0,0.1,0c0.1,0,0.1,0,0.1-0.1C202.3,31.9,202.3,31.8,202.3,31.8z M201.8,31.3
				c0,0.4-0.4,0.8-1,0.7c-0.8-0.1-0.8-0.5-0.8-0.7c0-0.5,0.5-0.8,1.1-0.7C201.7,30.6,201.9,31,201.8,31.3z"/>
			<path class="st0" d="M201.6,33.4c0,0.2-0.1,0.2-0.4,0.1l-1-0.3c-0.4-0.1-0.5-0.1-0.4-0.3c0,0,0-0.1,0-0.1c0,0,0,0-0.1,0.1
				c0,0.1-0.1,0.3-0.1,0.3c-0.1,0.2-0.1,0.4-0.2,0.8c0,0.1,0,0.2,0,0.2c0.1,0,0.3,0.1,0.3,0.1c0,0,0.1,0,0.1,0c0,0,0,0,0-0.1
				c-0.2-0.1-0.2-0.1-0.2-0.4c0.1-0.3,0.1-0.4,0.5-0.3l1,0.3c0.3,0.1,0.3,0.1,0.3,0.3c0,0,0,0.1,0,0.1c0,0,0,0,0.1-0.1
				c0-0.1,0.1-0.3,0.1-0.4C201.6,33.7,201.6,33.5,201.6,33.4C201.7,33.3,201.7,33.3,201.6,33.4C201.6,33.3,201.6,33.3,201.6,33.4z"
				/>
			<path class="st0" d="M200.9,35.5c-0.1,0.1-0.1,0.1-0.2,0.1c-0.1,0-0.2-0.1-0.5-0.2l-0.4-0.2c-0.2-0.1-0.4-0.2-0.5-0.2
				c-0.1-0.1-0.1-0.1-0.1-0.2c0,0,0-0.1,0-0.1c0,0,0,0-0.1,0c0,0.1-0.1,0.3-0.1,0.3c0,0.1-0.1,0.2-0.2,0.4c0,0,0,0.1,0,0.1
				c0,0,0,0,0.1,0c0.1-0.1,0.1-0.2,0.2-0.2c0.1,0,0.3,0.1,0.6,0.2l0.4,0.2c0.4,0.2,0.5,0.2,0.5,0.2c0.1,0.1,0.1,0.1,0.1,0.2
				c0,0,0,0.1,0,0.1c0,0,0,0,0.1-0.1c0-0.1,0.1-0.2,0.1-0.3C200.9,35.8,201,35.7,200.9,35.5C201,35.5,201,35.5,200.9,35.5
				C201,35.5,200.9,35.5,200.9,35.5z"/>
			<path class="st0" d="M199.5,36.6c-0.7-0.4-1.3,0-1.6,0.5c-0.1,0.2-0.2,0.3-0.2,0.5c0,0.1,0,0.1,0,0.1c0.1,0.1,0.3,0.2,0.3,0.2
				c0,0,0,0,0.1,0c0,0,0,0,0-0.1c-0.2-0.2-0.2-0.3,0-0.7c0.2-0.4,0.7-0.6,1.3-0.2c0.4,0.3,0.6,0.6,0.4,1.1c-0.2,0.3-0.4,0.5-0.7,0.4
				c0,0-0.1,0-0.1,0c0,0,0,0,0,0.1c0,0,0.2,0.1,0.2,0.2c0.1,0.1,0.1,0.1,0.1,0.1c0,0,0,0,0.1,0c0.1-0.1,0.2-0.3,0.4-0.5
				C200.1,37.6,200.1,36.9,199.5,36.6z"/>
			<path class="st0" d="M197.5,38.4c-0.1-0.2-0.1-0.3,0-0.4c0,0,0,0,0-0.1c0,0,0,0-0.1,0c-0.1,0.1-0.2,0.2-0.2,0.3
				c-0.1,0.1-0.1,0.2-0.2,0.2c0,0,0,0,0,0.1c0,0,0,0,0.1,0c0.1-0.1,0.1-0.1,0.1,0c0,0,0.1,0.1,0.1,0.1l0.1,0.3c0,0,0,0,0,0l-0.4,0.5
				c0,0,0,0,0,0l-0.5-0.2c0,0,0.1-0.1,0.1-0.1c0,0,0,0,0-0.1c0,0-0.1,0-0.1,0.1c0,0-0.1,0.2-0.2,0.2c0,0.1-0.1,0.1-0.2,0.2
				c-0.1,0.1-0.1,0.1-0.1,0.1c0,0,0,0,0.1,0c0.1-0.1,0.2-0.1,0.4,0c0.4,0.1,1.6,0.5,1.7,0.5c0.1,0,0.1,0,0.1,0c0,0,0-0.1,0-0.1
				L197.5,38.4z M198,39.7L198,39.7l-0.8-0.3l0.4-0.4L198,39.7C198,39.7,198,39.7,198,39.7L198,39.7z"/>
			<path class="st0" d="M179.2,41.6c-0.1-0.1-0.3-0.2-0.4-0.2c-0.1,0-0.2-0.1-0.3-0.2c0,0-0.1,0-0.1,0c0,0,0,0,0,0.1
				c0.1,0.1,0.2,0.1,0.1,0.2c0,0.1-0.1,0.1-0.3,0.5l-0.2,0.4c-0.3,0.6-0.4,0.6-0.5,0.5c-0.1,0-0.1,0-0.1,0c0,0,0,0,0,0.1
				c0.1,0.1,0.2,0.1,0.3,0.2c0.1,0.1,0.3,0.2,0.5,0.3c0.6,0.4,1.2,0.3,1.6-0.3C180.2,42.6,179.9,42.1,179.2,41.6z M179.5,43.1
				c-0.3,0.5-0.7,0.6-1.2,0.3c-0.3-0.2-0.3-0.2-0.1-0.6l0.6-1.1c0-0.1,0.1-0.1,0.2,0C179.6,42,179.8,42.6,179.5,43.1z"/>
			<path class="st0" d="M182.1,43c0,0-0.6-0.2-0.6-0.2c-0.1,0-0.2-0.1-0.4-0.1c0,0-0.1,0-0.1,0c0,0,0,0,0,0.1
				c0.1,0.1,0.2,0.1,0.1,0.2c0,0.1-0.1,0.2-0.2,0.5l-0.2,0.4c0,0.1-0.1,0.3-0.1,0.4c-0.1,0.3-0.1,0.3-0.3,0.3c0,0-0.1,0-0.1,0
				c0,0,0,0,0,0.1c0.1,0,0.3,0.1,0.3,0.1c0.3,0.1,0.5,0.2,0.8,0.3c0.1,0,0.1,0,0.1,0c0,0,0.1-0.2,0.1-0.3c0,0,0-0.1,0-0.1
				c0,0,0,0-0.1,0c-0.1,0.1-0.1,0.1-0.2,0.1c-0.1,0-0.3-0.1-0.3-0.1c-0.2-0.1-0.2-0.1-0.1-0.3c0-0.1,0.1-0.3,0.2-0.6c0,0,0,0,0,0
				c0,0,0.3,0.1,0.3,0.1c0.1,0,0.1,0.2,0.1,0.2c0,0,0,0,0,0c0,0,0,0,0.1,0c0.1-0.1,0.1-0.3,0.2-0.3c0,0,0,0,0,0c0,0,0,0-0.1,0
				c0,0-0.1,0-0.2,0c-0.1,0-0.2-0.1-0.3-0.1c0,0,0,0,0,0l0.3-0.7c0,0,0,0,0,0c0.5,0.2,0.5,0.2,0.5,0.4c0,0,0,0,0,0.1c0,0,0,0,0.1,0
				c0.1-0.2,0.1-0.3,0.2-0.3c0,0,0,0,0,0C182.2,43,182.2,43,182.1,43z"/>
			<path class="st0" d="M185.9,43.7c-0.1,0-0.3-0.1-0.7-0.1c-0.6-0.1-1.2,0.3-1.3,0.9c-0.1,0.8,0.5,1.2,1.2,1.2c0.2,0,0.4,0,0.5,0
				c0,0,0.1,0,0.1-0.1c0-0.1,0.1-0.3,0.1-0.4c0,0,0-0.1,0-0.1c0,0,0,0-0.1,0.1c-0.1,0.2-0.2,0.3-0.6,0.3c-0.5,0-0.8-0.4-0.7-1
				c0.1-0.5,0.3-0.8,0.8-0.8c0.3,0,0.6,0.2,0.6,0.5c0,0,0,0.1,0,0.1c0,0,0,0,0.1-0.1c0-0.1,0-0.2,0-0.3
				C185.9,43.8,185.9,43.8,185.9,43.7C186,43.8,185.9,43.7,185.9,43.7z"/>
			<path class="st0" d="M189.2,45.4c-0.2,0-0.2,0-0.2-0.1c0-0.1-0.1-0.3-0.1-0.6l-0.1-0.5c0-0.4-0.1-0.5-0.1-0.6
				c0-0.1,0-0.2,0.2-0.2c0,0,0.1,0,0.1,0c0,0,0,0-0.1,0c-0.1,0-0.3,0-0.3,0c-0.1,0-0.2,0-0.4,0c0,0-0.1,0-0.1,0c0,0,0,0,0.1,0
				c0.1,0,0.2,0,0.2,0.1c0,0.1,0,0.2,0.1,0.6l0,0.1c0,0,0,0,0,0l-1,0.1c0,0,0,0,0,0l0-0.1c0-0.4-0.1-0.5-0.1-0.6
				c0-0.1,0-0.2,0.1-0.2c0,0,0.1,0,0.1,0c0,0,0,0-0.1,0c-0.1,0-0.3,0-0.3,0c-0.1,0-0.3,0-0.4,0c-0.1,0-0.1,0-0.1,0c0,0,0,0,0.1,0
				c0.1,0,0.2,0,0.2,0.1c0,0.1,0,0.2,0.1,0.6l0.1,0.5c0,0.2,0.1,0.5,0,0.6c0,0.1,0,0.2-0.1,0.2c0,0-0.1,0-0.1,0c0,0,0,0,0.1,0
				c0.1,0,0.3,0,0.3,0c0.1,0,0.2,0,0.4,0c0,0,0.1,0,0.1,0c0,0,0,0-0.1,0c-0.2,0-0.2,0-0.2-0.1c0-0.1,0-0.3-0.1-0.6l0-0.2
				c0,0,0,0,0,0l1-0.1c0,0,0,0,0,0l0,0.2c0,0.2,0,0.5,0,0.6c0,0.1,0,0.2-0.1,0.2c0,0-0.1,0-0.1,0c0,0,0,0,0.1,0c0.1,0,0.3,0,0.3,0
				C188.9,45.6,189,45.5,189.2,45.4C189.3,45.5,189.3,45.5,189.2,45.4C189.3,45.4,189.2,45.4,189.2,45.4z"/>
			<path class="st0" d="M191.2,44.9c-0.1,0-0.2,0-0.3-0.1c0-0.1-0.1-0.3-0.2-0.6l-0.1-0.5c-0.1-0.4-0.1-0.5-0.2-0.5
				c0-0.1,0-0.2,0.1-0.2c0,0,0.1,0,0-0.1c0,0,0,0-0.1,0c-0.1,0-0.3,0.1-0.3,0.1c-0.1,0-0.2,0.1-0.3,0.1c-0.1,0-0.1,0-0.1,0.1
				c0,0,0,0,0.1,0c0.1,0,0.2,0,0.2,0.1c0,0.1,0,0.2,0.2,0.5l0.1,0.5c0.1,0.3,0.1,0.5,0.2,0.6c0,0.1,0,0.1-0.1,0.2c0,0-0.1,0,0,0
				c0,0,0,0,0.1,0c0.1,0,0.3-0.1,0.3-0.1C190.8,45.1,191,45,191.2,44.9C191.2,45,191.2,45,191.2,44.9
				C191.2,44.9,191.2,44.9,191.2,44.9z"/>
			<path class="st0" d="M193.4,43.6C193.4,43.6,193.4,43.6,193.4,43.6C193.3,43.6,193.3,43.6,193.4,43.6c0,0.2,0,0.3-0.3,0.4
				c-0.3,0.1-0.4,0.1-0.5-0.2l-0.4-1c-0.1-0.3-0.1-0.3,0-0.4c0,0,0.1,0,0-0.1c0,0,0,0-0.1,0c-0.1,0-0.3,0.1-0.3,0.2
				c-0.1,0-0.2,0.1-0.3,0.2c0,0-0.1,0-0.1,0.1c0,0,0,0,0.1,0c0.2-0.1,0.2,0,0.3,0.2l0.4,1c0.2,0.4,0.2,0.5,0,0.5c0,0-0.1,0,0,0.1
				c0,0,0,0,0.1,0c0.1,0,0.3-0.1,0.3-0.1c0.2-0.1,0.4-0.2,0.7-0.3c0.1-0.1,0.1-0.1,0.1-0.1C193.5,43.9,193.4,43.6,193.4,43.6z"/>
			<path class="st0" d="M195.4,42.4C195.4,42.4,195.3,42.4,195.4,42.4C195.3,42.4,195.3,42.4,195.4,42.4c0,0.1,0,0.2-0.1,0.3
				c0,0.1-0.2,0.2-0.3,0.2c-0.2,0.1-0.2,0.1-0.3,0c0-0.1-0.2-0.3-0.3-0.5c0,0,0,0,0,0c0,0,0.3-0.2,0.3-0.2c0.1-0.1,0.2,0,0.2,0.1
				c0,0,0,0,0.1,0c0,0,0-0.1,0-0.1c-0.1-0.1-0.2-0.3-0.2-0.3c0,0,0,0,0,0c0,0,0,0,0,0.1c0,0,0,0.1-0.2,0.2c-0.1,0.1-0.2,0.1-0.2,0.2
				c0,0,0,0,0,0l-0.4-0.6c0,0,0,0,0,0c0.4-0.3,0.5-0.3,0.6-0.2c0,0,0,0,0.1,0c0,0,0,0,0-0.1c-0.1-0.2-0.1-0.3-0.2-0.3c0,0,0,0,0,0
				c0,0,0,0.1-0.1,0.1c0,0-0.5,0.3-0.6,0.4c-0.1,0-0.2,0.1-0.3,0.2c0,0-0.1,0.1,0,0.1c0,0,0,0,0.1,0c0.1-0.1,0.2-0.1,0.3,0
				c0,0.1,0.1,0.1,0.3,0.5l0.3,0.4c0.1,0.1,0.1,0.2,0.2,0.3c0.2,0.3,0.2,0.3,0,0.4c0,0,0,0,0,0.1c0,0,0,0,0.1,0
				c0.1-0.1,0.2-0.2,0.3-0.2c0.2-0.2,0.5-0.3,0.7-0.4c0,0,0.1-0.1,0-0.1C195.5,42.7,195.4,42.5,195.4,42.4z"/>
		</g>
		<g>
			<g>
				<g>
					<g>
						<text transform="matrix(1 0 0 1 164.8633 11.7402)" class="st0 st1 st2">R</text>
						<path class="st3" d="M170.2,9.5c0,2-1.6,3.6-3.6,3.6s-3.6-1.6-3.6-3.6c0-2,1.6-3.6,3.6-3.6S170.2,7.5,170.2,9.5z"/>
					</g>
				</g>
			</g>
		</g>
	</g>
	<g>
		<path class="st0" d="M238.9,31.4c-0.2-3.7-0.4-7.8-0.3-10.9h-0.2c-0.6,3.1-1.4,6.4-2.2,9.7l-3.4,13.1h-2l-3.3-12.6
			c-0.9-3.6-1.7-7-2.3-10.2h-0.1c0,3.3-0.2,7.2-0.3,11.1l-0.5,11.8h-2.9l1.7-27.9h3.4l3.3,12.8c1,3.7,1.7,6.4,2.2,9.6h0.1
			c0.5-3.2,1.2-5.8,2.1-9.6l3.1-12.8h3.6l1.6,27.9h-3L238.9,31.4z"/>
		<path class="st0" d="M250.4,15.5v27.9h-3.2V15.5H250.4z"/>
		<path class="st0" d="M255.9,15.9c1.4-0.4,3-0.5,4.6-0.5c2.8,0,4.8,0.6,6.3,2c1.4,1.4,1.9,3.3,1.9,5.5c0,3.6-1.7,5.9-4.5,7.2v0.1
			c2.1,0.6,3.1,2.6,3.8,6.3c0.6,3.9,1.2,6.2,1.6,7.1h-3.2c-0.4-0.8-1-3.5-1.5-6.9c-0.6-3.8-1.8-5.3-4.6-5.3h-1.2v12.2h-3.2V15.9z
			 M259.1,28.8h1.3c3.1,0,5.1-2.2,5.1-5.6c0-3.2-1.3-5.2-4.8-5.3c-0.6,0-1.2,0-1.7,0.2V28.8z"/>
		<path class="st0" d="M276.9,35.1l-1.9,8.4h-3.1l6.4-27.9h3.5l6.2,27.9h-3.1l-1.9-8.4H276.9z M282.6,32.5l-1.5-7.1
			c-0.4-2-0.8-4.3-1.1-6.4h-0.2c-0.3,2.1-0.7,4.5-1.1,6.4l-1.5,7.1H282.6z"/>
		<path class="st0" d="M303,21.4v9.9h9.5v2.2H303v9.9h-2.3v-9.9h-9.5v-2.2h9.5v-9.9H303z"/>
	</g>
</g>
</svg>
